%TF.GenerationSoftware,KiCad,Pcbnew,7.0.5*%
%TF.CreationDate,2023-07-28T19:51:42-07:00*%
%TF.ProjectId,roshambo-pcb-smt,726f7368-616d-4626-9f2d-7063622d736d,rev?*%
%TF.SameCoordinates,Original*%
%TF.FileFunction,Copper,L2,Bot*%
%TF.FilePolarity,Positive*%
%FSLAX46Y46*%
G04 Gerber Fmt 4.6, Leading zero omitted, Abs format (unit mm)*
G04 Created by KiCad (PCBNEW 7.0.5) date 2023-07-28 19:51:42*
%MOMM*%
%LPD*%
G01*
G04 APERTURE LIST*
%TA.AperFunction,ComponentPad*%
%ADD10R,1.700000X1.700000*%
%TD*%
%TA.AperFunction,ComponentPad*%
%ADD11O,1.700000X1.700000*%
%TD*%
%TA.AperFunction,ViaPad*%
%ADD12C,0.800000*%
%TD*%
%TA.AperFunction,Conductor*%
%ADD13C,0.250000*%
%TD*%
G04 APERTURE END LIST*
D10*
%TO.P,J1,1,Pin_1*%
%TO.N,GND*%
X99207254Y-83516991D03*
D11*
%TO.P,J1,2,Pin_2*%
%TO.N,unconnected-(J1-Pin_2-Pad2)*%
X99207254Y-86056991D03*
%TO.P,J1,3,Pin_3*%
%TO.N,unconnected-(J1-Pin_3-Pad3)*%
X99207254Y-88596991D03*
%TO.P,J1,4,Pin_4*%
%TO.N,/RX1*%
X99207254Y-91136991D03*
%TO.P,J1,5,Pin_5*%
%TO.N,/TX1*%
X99207254Y-93676991D03*
%TO.P,J1,6,Pin_6*%
%TO.N,unconnected-(J1-Pin_6-Pad6)*%
X99207254Y-96216991D03*
%TD*%
D10*
%TO.P,J2,1,Pin_1*%
%TO.N,GND*%
X99000000Y-111456991D03*
D11*
%TO.P,J2,2,Pin_2*%
%TO.N,/TX1*%
X99000000Y-113996991D03*
%TO.P,J2,3,Pin_3*%
%TO.N,/RX1*%
X99000000Y-116536991D03*
%TD*%
D10*
%TO.P,J3,1,Pin_1*%
%TO.N,GND*%
X132227254Y-111525869D03*
D11*
%TO.P,J3,2,Pin_2*%
%TO.N,/RX1*%
X132227254Y-114065869D03*
%TO.P,J3,3,Pin_3*%
%TO.N,/TX1*%
X132227254Y-116605869D03*
%TD*%
%TO.P,U1,1,GPIO0*%
%TO.N,unconnected-(U1-GPIO0-Pad1)*%
X124594336Y-131798709D03*
%TO.P,U1,2,GPIO1*%
%TO.N,unconnected-(U1-GPIO1-Pad2)*%
X124594336Y-129258709D03*
D10*
%TO.P,U1,3,GND*%
%TO.N,GND*%
X124594336Y-126718709D03*
D11*
%TO.P,U1,4,GPIO2*%
%TO.N,unconnected-(U1-GPIO2-Pad4)*%
X124594336Y-124178709D03*
%TO.P,U1,5,GPIO3*%
%TO.N,unconnected-(U1-GPIO3-Pad5)*%
X124594336Y-121638709D03*
%TO.P,U1,6,GPIO4*%
%TO.N,/TX1*%
X124594336Y-119098709D03*
%TO.P,U1,7,GPIO5*%
%TO.N,/RX1*%
X124594336Y-116558709D03*
D10*
%TO.P,U1,8,GND*%
%TO.N,GND*%
X124594336Y-114018709D03*
D11*
%TO.P,U1,9,GPIO6*%
%TO.N,/SER*%
X124594336Y-111478709D03*
%TO.P,U1,10,GPIO7*%
%TO.N,/SRCLK*%
X124594336Y-108938709D03*
%TO.P,U1,11,GPIO8*%
%TO.N,/RCLK*%
X124594336Y-106398709D03*
%TO.P,U1,12,GPIO9*%
%TO.N,/OE*%
X124594336Y-103858709D03*
D10*
%TO.P,U1,13,GND*%
%TO.N,unconnected-(U1-GND-Pad13)*%
X124594336Y-101318709D03*
D11*
%TO.P,U1,14,GPIO10*%
%TO.N,unconnected-(U1-GPIO10-Pad14)*%
X124594336Y-98778709D03*
%TO.P,U1,15,GPIO11*%
%TO.N,unconnected-(U1-GPIO11-Pad15)*%
X124594336Y-96238709D03*
%TO.P,U1,16,GPIO12*%
%TO.N,unconnected-(U1-GPIO12-Pad16)*%
X124594336Y-93698709D03*
%TO.P,U1,17,GPIO13*%
%TO.N,unconnected-(U1-GPIO13-Pad17)*%
X124594336Y-91158709D03*
D10*
%TO.P,U1,18,GND*%
%TO.N,GND*%
X124594336Y-88618709D03*
D11*
%TO.P,U1,19,GPIO14*%
%TO.N,unconnected-(U1-GPIO14-Pad19)*%
X124594336Y-86078709D03*
%TO.P,U1,20,GPIO15*%
%TO.N,unconnected-(U1-GPIO15-Pad20)*%
X124594336Y-83538709D03*
%TO.P,U1,21,GPIO16*%
%TO.N,unconnected-(U1-GPIO16-Pad21)*%
X106814336Y-83538709D03*
%TO.P,U1,22,GPIO17*%
%TO.N,unconnected-(U1-GPIO17-Pad22)*%
X106814336Y-86078709D03*
D10*
%TO.P,U1,23,GND*%
%TO.N,GND*%
X106814336Y-88618709D03*
D11*
%TO.P,U1,24,GPIO18*%
%TO.N,unconnected-(U1-GPIO18-Pad24)*%
X106814336Y-91158709D03*
%TO.P,U1,25,GPIO19*%
%TO.N,unconnected-(U1-GPIO19-Pad25)*%
X106814336Y-93698709D03*
%TO.P,U1,26,GPIO20*%
%TO.N,unconnected-(U1-GPIO20-Pad26)*%
X106814336Y-96238709D03*
%TO.P,U1,27,GPIO21*%
%TO.N,unconnected-(U1-GPIO21-Pad27)*%
X106814336Y-98778709D03*
D10*
%TO.P,U1,28,GND*%
%TO.N,GND*%
X106814336Y-101318709D03*
D11*
%TO.P,U1,29,GPIO22*%
%TO.N,unconnected-(U1-GPIO22-Pad29)*%
X106814336Y-103858709D03*
%TO.P,U1,30,RUN*%
%TO.N,Net-(U1-RUN)*%
X106814336Y-106398709D03*
%TO.P,U1,31,GPIO26_ADC0*%
%TO.N,unconnected-(U1-GPIO26_ADC0-Pad31)*%
X106814336Y-108938709D03*
%TO.P,U1,32,GPIO27_ADC1*%
%TO.N,unconnected-(U1-GPIO27_ADC1-Pad32)*%
X106814336Y-111478709D03*
D10*
%TO.P,U1,33,AGND*%
%TO.N,unconnected-(U1-AGND-Pad33)*%
X106814336Y-114018709D03*
D11*
%TO.P,U1,34,GPIO28_ADC2*%
%TO.N,unconnected-(U1-GPIO28_ADC2-Pad34)*%
X106814336Y-116558709D03*
%TO.P,U1,35,ADC_VREF*%
%TO.N,unconnected-(U1-ADC_VREF-Pad35)*%
X106814336Y-119098709D03*
%TO.P,U1,36,3V3*%
%TO.N,unconnected-(U1-3V3-Pad36)*%
X106814336Y-121638709D03*
%TO.P,U1,37,3V3_EN*%
%TO.N,Net-(U1-3V3_EN)*%
X106814336Y-124178709D03*
D10*
%TO.P,U1,38,GND*%
%TO.N,GND*%
X106814336Y-126718709D03*
D11*
%TO.P,U1,39,VSYS*%
%TO.N,unconnected-(U1-VSYS-Pad39)*%
X106814336Y-129258709D03*
%TO.P,U1,40,VBUS*%
%TO.N,+5V*%
X106814336Y-131798709D03*
%TO.P,U1,41,SWCLK*%
%TO.N,unconnected-(U1-SWCLK-Pad41)*%
X118244336Y-83768709D03*
D10*
%TO.P,U1,42,GND*%
%TO.N,unconnected-(U1-GND-Pad42)*%
X115704336Y-83768709D03*
D11*
%TO.P,U1,43,SWDIO*%
%TO.N,unconnected-(U1-SWDIO-Pad43)*%
X113164336Y-83768709D03*
%TD*%
D12*
%TO.N,GND*%
X122672800Y-52152000D03*
X101747254Y-79960991D03*
X116373600Y-64394800D03*
X110531600Y-55962000D03*
X128671254Y-117806991D03*
X116297400Y-88296200D03*
X129454600Y-57968600D03*
X122952200Y-56165200D03*
X112233400Y-111456991D03*
X122241000Y-53879200D03*
X103699000Y-52126600D03*
X133751254Y-72594991D03*
X112512800Y-69068400D03*
X110430000Y-64369400D03*
X122901400Y-64521800D03*
X103017254Y-117298991D03*
X100473200Y-50907400D03*
X102429000Y-107549400D03*
X108605254Y-105106991D03*
X116449800Y-52177400D03*
X115332200Y-72370400D03*
X101489200Y-72954600D03*
X116500600Y-56139800D03*
X103800600Y-56012800D03*
X101747254Y-93422991D03*
X132782000Y-51110600D03*
X116475200Y-60356200D03*
X103495800Y-62489800D03*
X122850600Y-60280000D03*
X130195254Y-101296991D03*
X128337000Y-73030800D03*
X103597400Y-64369400D03*
X120463000Y-124008600D03*
X108169400Y-52583800D03*
X115052800Y-78009200D03*
X118837400Y-68789000D03*
X102429000Y-97618000D03*
X103597400Y-60483200D03*
X98699254Y-99010991D03*
X131766000Y-132619200D03*
X97806200Y-121748000D03*
X110455400Y-60559400D03*
X117669000Y-76561400D03*
X129327600Y-64420200D03*
X132705800Y-124897600D03*
X122067254Y-113234991D03*
X129784800Y-95763800D03*
X114011400Y-102850400D03*
X110379200Y-52152000D03*
%TO.N,/RX1*%
X108859254Y-93676991D03*
%TO.N,/TX1*%
X108092163Y-94968668D03*
%TO.N,/D3*%
X98268397Y-54647300D03*
X98295243Y-67861621D03*
%TO.N,/D4*%
X99024558Y-68703615D03*
X99019743Y-55306454D03*
%TO.N,/D5*%
X99743819Y-57428281D03*
X99774100Y-69364820D03*
%TO.N,/D6*%
X100498600Y-58083500D03*
X100485300Y-70138170D03*
%TO.N,/D7*%
X101441308Y-70760463D03*
X101223100Y-58780828D03*
%TO.N,/D8*%
X101934300Y-59515375D03*
X102225800Y-71379800D03*
%TO.N,/D9*%
X132233027Y-65487000D03*
X132223200Y-71202000D03*
%TO.N,/D10*%
X130042487Y-71151578D03*
X130966500Y-62966110D03*
%TO.N,/D11*%
X129048200Y-71049600D03*
X130191200Y-62218038D03*
%TO.N,/D14*%
X130143294Y-66327490D03*
X130333527Y-68017882D03*
%TO.N,/D15*%
X129336070Y-68081784D03*
X129276800Y-65829300D03*
%TO.N,/D16*%
X128438600Y-65253016D03*
X128337000Y-68052400D03*
%TO.N,/SER*%
X111610500Y-76663000D03*
%TO.N,/SRCLK*%
X119472400Y-76561400D03*
X107477075Y-75452105D03*
%TO.N,/RCLK*%
X108474200Y-76129600D03*
X120793200Y-76459800D03*
X115764000Y-76434400D03*
%TO.N,Net-(U2-QH')*%
X106484599Y-75333799D03*
X115713200Y-74783400D03*
%TO.N,/OE*%
X122215600Y-76383600D03*
X109998200Y-76662500D03*
X110886000Y-85802991D03*
%TD*%
D13*
%TO.N,/RX1*%
X120289254Y-111541254D02*
X120289254Y-113996991D01*
X122850972Y-116558709D02*
X124594336Y-116558709D01*
X108859254Y-100111254D02*
X120289254Y-111541254D01*
X120289254Y-113996991D02*
X122850972Y-116558709D01*
X108859254Y-93676991D02*
X108859254Y-100111254D01*
%TO.N,/TX1*%
X119781254Y-111669650D02*
X119781254Y-114125387D01*
X108097254Y-99985650D02*
X119781254Y-111669650D01*
X119781254Y-114125387D02*
X124594336Y-118938469D01*
X108097254Y-94973759D02*
X108097254Y-99985650D01*
X108092163Y-94968668D02*
X108097254Y-94973759D01*
X124594336Y-118938469D02*
X124594336Y-119098709D01*
%TO.N,/D3*%
X98295243Y-67861621D02*
X98268397Y-67834775D01*
X98268397Y-67834775D02*
X98268397Y-54647300D01*
%TO.N,/D4*%
X99024558Y-67565631D02*
X98923800Y-67464873D01*
X99024558Y-68703615D02*
X99024558Y-67565631D01*
X98923800Y-67464873D02*
X98923800Y-55402397D01*
X98923800Y-55402397D02*
X99019743Y-55306454D01*
%TO.N,/D5*%
X99771501Y-69362221D02*
X99771501Y-57455963D01*
X99774100Y-69364820D02*
X99771501Y-69362221D01*
X99771501Y-57455963D02*
X99743819Y-57428281D01*
%TO.N,/D6*%
X100498600Y-70124870D02*
X100498600Y-58083500D01*
X100485300Y-70138170D02*
X100498600Y-70124870D01*
%TO.N,/D7*%
X101441308Y-70760463D02*
X101387600Y-70706755D01*
X101209300Y-58794628D02*
X101223100Y-58780828D01*
X101209300Y-59815680D02*
X101209300Y-58794628D01*
X101387600Y-59993980D02*
X101209300Y-59815680D01*
X101387600Y-70706755D02*
X101387600Y-59993980D01*
%TO.N,/D8*%
X102214200Y-69657095D02*
X101946400Y-69389295D01*
X101946400Y-69389295D02*
X101946400Y-59527475D01*
X102214200Y-71368200D02*
X102214200Y-69657095D01*
X102225800Y-71379800D02*
X102214200Y-71368200D01*
X101946400Y-59527475D02*
X101934300Y-59515375D01*
%TO.N,/D9*%
X132233027Y-65487000D02*
X132233027Y-71192173D01*
X132233027Y-71192173D02*
X132223200Y-71202000D01*
%TO.N,/D10*%
X131508527Y-69685538D02*
X131508527Y-63508137D01*
X131508527Y-63508137D02*
X130966500Y-62966110D01*
X130042487Y-71151578D02*
X131508527Y-69685538D01*
%TO.N,/D11*%
X129048200Y-71049600D02*
X131058527Y-69039273D01*
X130242000Y-62268838D02*
X130191200Y-62218038D01*
X130242000Y-65400891D02*
X130242000Y-62268838D01*
X131058527Y-66217418D02*
X130242000Y-65400891D01*
X131058527Y-69039273D02*
X131058527Y-66217418D01*
%TO.N,/D14*%
X130333527Y-66517723D02*
X130143294Y-66327490D01*
X130333527Y-68017882D02*
X130333527Y-66517723D01*
%TO.N,/D15*%
X129336070Y-68081784D02*
X129336070Y-65888570D01*
X129336070Y-65888570D02*
X129276800Y-65829300D01*
%TO.N,/D16*%
X128362400Y-65329216D02*
X128438600Y-65253016D01*
X128362400Y-68027000D02*
X128362400Y-65329216D01*
X128337000Y-68052400D02*
X128362400Y-68027000D01*
%TO.N,/SER*%
X120863105Y-111478709D02*
X124594336Y-111478709D01*
X111610500Y-102226104D02*
X120863105Y-111478709D01*
X111610500Y-76663000D02*
X111610500Y-102226104D01*
%TO.N,/SRCLK*%
X124594336Y-108938709D02*
X120543254Y-104887627D01*
X120543254Y-77632254D02*
X119472400Y-76561400D01*
X115613895Y-75709400D02*
X115068895Y-75164400D01*
X120543254Y-104887627D02*
X120543254Y-77632254D01*
X107764780Y-75164400D02*
X107477075Y-75452105D01*
X119472400Y-76561400D02*
X118620400Y-75709400D01*
X115068895Y-75164400D02*
X107764780Y-75164400D01*
X118620400Y-75709400D02*
X115613895Y-75709400D01*
%TO.N,/RCLK*%
X108989400Y-75614400D02*
X114882499Y-75614400D01*
X120793200Y-76459800D02*
X120993254Y-76659854D01*
X115738600Y-76459800D02*
X115764000Y-76434400D01*
X120993254Y-76659854D02*
X120993254Y-102797627D01*
X120993254Y-102797627D02*
X124400000Y-106204373D01*
X108474200Y-76129600D02*
X108989400Y-75614400D01*
X115727899Y-76459800D02*
X115738600Y-76459800D01*
X114882499Y-75614400D02*
X115727899Y-76459800D01*
%TO.N,Net-(U2-QH')*%
X115027400Y-74097600D02*
X115713200Y-74783400D01*
X107720798Y-74097600D02*
X115027400Y-74097600D01*
X106484599Y-75333799D02*
X107720798Y-74097600D01*
%TO.N,/OE*%
X110886000Y-85802991D02*
X110891254Y-85797737D01*
X110891254Y-77555554D02*
X109998200Y-76662500D01*
X122215600Y-76383600D02*
X121443254Y-77155946D01*
X121443254Y-77155946D02*
X121443254Y-100707627D01*
X110891254Y-85797737D02*
X110891254Y-77555554D01*
X121443254Y-100707627D02*
X124594336Y-103858709D01*
%TD*%
%TA.AperFunction,Conductor*%
%TO.N,GND*%
G36*
X120760239Y-111791091D02*
G01*
X120789934Y-111796327D01*
X120795198Y-111797495D01*
X120800737Y-111798979D01*
X120834298Y-111807972D01*
X120874615Y-111804444D01*
X120880017Y-111804209D01*
X123503753Y-111804209D01*
X123570792Y-111823894D01*
X123616547Y-111876698D01*
X123618315Y-111880758D01*
X123619104Y-111882663D01*
X123716651Y-112065159D01*
X123716653Y-112065161D01*
X123847925Y-112225119D01*
X123944545Y-112304411D01*
X124007886Y-112356394D01*
X124133830Y-112423713D01*
X124155603Y-112435351D01*
X124205447Y-112484314D01*
X124220907Y-112552452D01*
X124197075Y-112618131D01*
X124141517Y-112660500D01*
X124097149Y-112668709D01*
X123696491Y-112668709D01*
X123636963Y-112675110D01*
X123636956Y-112675112D01*
X123502249Y-112725354D01*
X123502242Y-112725358D01*
X123387148Y-112811518D01*
X123387145Y-112811521D01*
X123300985Y-112926615D01*
X123300981Y-112926622D01*
X123250739Y-113061329D01*
X123250737Y-113061336D01*
X123244336Y-113120864D01*
X123244336Y-113768709D01*
X124148764Y-113768709D01*
X124125654Y-113804669D01*
X124084336Y-113945382D01*
X124084336Y-114092036D01*
X124125654Y-114232749D01*
X124148764Y-114268709D01*
X123244336Y-114268709D01*
X123244336Y-114916553D01*
X123250737Y-114976081D01*
X123250739Y-114976088D01*
X123300981Y-115110795D01*
X123300985Y-115110802D01*
X123387145Y-115225896D01*
X123387148Y-115225899D01*
X123502242Y-115312059D01*
X123502249Y-115312063D01*
X123636956Y-115362305D01*
X123636963Y-115362307D01*
X123696491Y-115368708D01*
X123696508Y-115368709D01*
X124097149Y-115368709D01*
X124164188Y-115388394D01*
X124209943Y-115441198D01*
X124219887Y-115510356D01*
X124190862Y-115573912D01*
X124155603Y-115602066D01*
X124007886Y-115681024D01*
X124007884Y-115681025D01*
X124007883Y-115681026D01*
X123847925Y-115812298D01*
X123716653Y-115972256D01*
X123619104Y-116154754D01*
X123618315Y-116156660D01*
X123617634Y-116157505D01*
X123616232Y-116160128D01*
X123615734Y-116159862D01*
X123574474Y-116211064D01*
X123508180Y-116233130D01*
X123503753Y-116233209D01*
X123037161Y-116233209D01*
X122970122Y-116213524D01*
X122949480Y-116196890D01*
X120651073Y-113898483D01*
X120617588Y-113837160D01*
X120614754Y-113810802D01*
X120614754Y-111913216D01*
X120634439Y-111846177D01*
X120687243Y-111800422D01*
X120756401Y-111790478D01*
X120760239Y-111791091D01*
G37*
%TD.AperFunction*%
%TA.AperFunction,Conductor*%
G36*
X134942539Y-50020185D02*
G01*
X134988294Y-50072989D01*
X134999500Y-50124500D01*
X134999500Y-134875500D01*
X134979815Y-134942539D01*
X134927011Y-134988294D01*
X134875500Y-134999500D01*
X95124500Y-134999500D01*
X95057461Y-134979815D01*
X95011706Y-134927011D01*
X95000500Y-134875500D01*
X95000500Y-131798709D01*
X105758753Y-131798709D01*
X105779035Y-132004641D01*
X105779036Y-132004643D01*
X105839104Y-132202663D01*
X105936651Y-132385159D01*
X105936653Y-132385161D01*
X106067925Y-132545119D01*
X106164545Y-132624411D01*
X106227886Y-132676394D01*
X106410382Y-132773941D01*
X106608402Y-132834009D01*
X106608401Y-132834009D01*
X106626865Y-132835827D01*
X106814336Y-132854292D01*
X107020270Y-132834009D01*
X107218290Y-132773941D01*
X107400786Y-132676394D01*
X107560746Y-132545119D01*
X107692021Y-132385159D01*
X107789568Y-132202663D01*
X107849636Y-132004643D01*
X107869919Y-131798709D01*
X107867615Y-131775319D01*
X111828836Y-131775319D01*
X111868015Y-131984907D01*
X111945038Y-132183728D01*
X112057284Y-132365011D01*
X112200929Y-132522581D01*
X112371082Y-132651076D01*
X112561942Y-132746112D01*
X112561944Y-132746112D01*
X112561947Y-132746114D01*
X112767026Y-132804465D01*
X112926142Y-132819209D01*
X112926146Y-132819209D01*
X113032526Y-132819209D01*
X113032530Y-132819209D01*
X113191646Y-132804465D01*
X113396725Y-132746114D01*
X113396729Y-132746112D01*
X113396730Y-132746112D01*
X113587589Y-132651076D01*
X113587589Y-132651075D01*
X113587591Y-132651075D01*
X113757743Y-132522581D01*
X113901388Y-132365011D01*
X114013634Y-132183728D01*
X114090657Y-131984907D01*
X114129836Y-131775319D01*
X117278836Y-131775319D01*
X117318015Y-131984907D01*
X117395038Y-132183728D01*
X117507284Y-132365011D01*
X117650929Y-132522581D01*
X117821082Y-132651076D01*
X118011942Y-132746112D01*
X118011944Y-132746112D01*
X118011947Y-132746114D01*
X118217026Y-132804465D01*
X118376142Y-132819209D01*
X118376146Y-132819209D01*
X118482526Y-132819209D01*
X118482530Y-132819209D01*
X118641646Y-132804465D01*
X118846725Y-132746114D01*
X118846729Y-132746112D01*
X118846730Y-132746112D01*
X119037589Y-132651076D01*
X119037589Y-132651075D01*
X119037591Y-132651075D01*
X119207743Y-132522581D01*
X119351388Y-132365011D01*
X119463634Y-132183728D01*
X119540657Y-131984907D01*
X119575464Y-131798709D01*
X123538753Y-131798709D01*
X123559035Y-132004641D01*
X123559036Y-132004643D01*
X123619104Y-132202663D01*
X123716651Y-132385159D01*
X123716653Y-132385161D01*
X123847925Y-132545119D01*
X123944545Y-132624411D01*
X124007886Y-132676394D01*
X124190382Y-132773941D01*
X124388402Y-132834009D01*
X124388401Y-132834009D01*
X124408683Y-132836006D01*
X124594336Y-132854292D01*
X124800270Y-132834009D01*
X124998290Y-132773941D01*
X125180786Y-132676394D01*
X125340746Y-132545119D01*
X125472021Y-132385159D01*
X125569568Y-132202663D01*
X125629636Y-132004643D01*
X125649919Y-131798709D01*
X125629636Y-131592775D01*
X125569568Y-131394755D01*
X125472021Y-131212259D01*
X125420038Y-131148918D01*
X125340746Y-131052298D01*
X125180788Y-130921026D01*
X125180789Y-130921026D01*
X125180786Y-130921024D01*
X124998290Y-130823477D01*
X124800270Y-130763409D01*
X124800268Y-130763408D01*
X124800270Y-130763408D01*
X124612799Y-130744944D01*
X124594336Y-130743126D01*
X124594335Y-130743126D01*
X124388403Y-130763408D01*
X124190379Y-130823478D01*
X124080233Y-130882352D01*
X124007886Y-130921024D01*
X124007884Y-130921025D01*
X124007883Y-130921026D01*
X123847925Y-131052298D01*
X123716653Y-131212256D01*
X123619105Y-131394752D01*
X123559035Y-131592776D01*
X123538753Y-131798709D01*
X119575464Y-131798709D01*
X119579836Y-131775319D01*
X119579836Y-131562099D01*
X119540657Y-131352511D01*
X119463634Y-131153690D01*
X119351388Y-130972407D01*
X119207743Y-130814837D01*
X119139641Y-130763408D01*
X119037589Y-130686341D01*
X118846729Y-130591305D01*
X118641646Y-130532953D01*
X118641645Y-130532953D01*
X118482530Y-130518209D01*
X118376142Y-130518209D01*
X118248849Y-130530004D01*
X118217025Y-130532953D01*
X118011943Y-130591305D01*
X118011941Y-130591305D01*
X117821082Y-130686341D01*
X117650929Y-130814836D01*
X117507283Y-130972408D01*
X117395038Y-131153689D01*
X117395037Y-131153691D01*
X117372348Y-131212259D01*
X117318015Y-131352511D01*
X117278836Y-131562099D01*
X117278836Y-131775319D01*
X114129836Y-131775319D01*
X114129836Y-131562099D01*
X114090657Y-131352511D01*
X114013634Y-131153690D01*
X113901388Y-130972407D01*
X113757743Y-130814837D01*
X113689641Y-130763408D01*
X113587589Y-130686341D01*
X113396729Y-130591305D01*
X113191646Y-130532953D01*
X113032530Y-130518209D01*
X112926142Y-130518209D01*
X112798849Y-130530004D01*
X112767025Y-130532953D01*
X112561943Y-130591305D01*
X112561941Y-130591305D01*
X112371082Y-130686341D01*
X112200929Y-130814836D01*
X112057283Y-130972408D01*
X111945038Y-131153689D01*
X111945037Y-131153691D01*
X111922348Y-131212259D01*
X111868015Y-131352511D01*
X111828836Y-131562099D01*
X111828836Y-131775319D01*
X107867615Y-131775319D01*
X107849636Y-131592775D01*
X107789568Y-131394755D01*
X107692021Y-131212259D01*
X107640038Y-131148918D01*
X107560746Y-131052298D01*
X107400788Y-130921026D01*
X107400789Y-130921026D01*
X107400786Y-130921024D01*
X107218290Y-130823477D01*
X107020270Y-130763409D01*
X107020268Y-130763408D01*
X107020270Y-130763408D01*
X106814336Y-130743126D01*
X106608403Y-130763408D01*
X106410379Y-130823478D01*
X106300233Y-130882352D01*
X106227886Y-130921024D01*
X106227884Y-130921025D01*
X106227883Y-130921026D01*
X106067925Y-131052298D01*
X105936653Y-131212256D01*
X105839105Y-131394752D01*
X105779035Y-131592776D01*
X105758753Y-131798709D01*
X95000500Y-131798709D01*
X95000500Y-127616553D01*
X105464336Y-127616553D01*
X105470737Y-127676081D01*
X105470739Y-127676088D01*
X105520981Y-127810795D01*
X105520985Y-127810802D01*
X105607145Y-127925896D01*
X105607148Y-127925899D01*
X105722242Y-128012059D01*
X105722249Y-128012063D01*
X105856956Y-128062305D01*
X105856963Y-128062307D01*
X105916491Y-128068708D01*
X105916508Y-128068709D01*
X106317149Y-128068709D01*
X106384188Y-128088394D01*
X106429943Y-128141198D01*
X106439887Y-128210356D01*
X106410862Y-128273912D01*
X106375603Y-128302066D01*
X106227886Y-128381024D01*
X106227884Y-128381025D01*
X106227883Y-128381026D01*
X106067925Y-128512298D01*
X105936653Y-128672256D01*
X105839105Y-128854752D01*
X105779035Y-129052776D01*
X105758753Y-129258709D01*
X105779035Y-129464641D01*
X105779036Y-129464643D01*
X105839104Y-129662663D01*
X105936651Y-129845159D01*
X105936653Y-129845161D01*
X106067925Y-130005119D01*
X106164545Y-130084411D01*
X106227886Y-130136394D01*
X106410382Y-130233941D01*
X106608402Y-130294009D01*
X106608401Y-130294009D01*
X106628683Y-130296006D01*
X106814336Y-130314292D01*
X107020270Y-130294009D01*
X107218290Y-130233941D01*
X107400786Y-130136394D01*
X107560746Y-130005119D01*
X107692021Y-129845159D01*
X107789568Y-129662663D01*
X107849636Y-129464643D01*
X107869919Y-129258709D01*
X107849636Y-129052775D01*
X107789568Y-128854755D01*
X107701314Y-128689645D01*
X112274967Y-128689645D01*
X112305778Y-128890772D01*
X112305781Y-128890784D01*
X112376447Y-129081590D01*
X112376451Y-129081597D01*
X112484081Y-129254276D01*
X112484083Y-129254278D01*
X112484084Y-129254280D01*
X112624277Y-129401762D01*
X112714621Y-129464643D01*
X112791285Y-129518003D01*
X112791286Y-129518003D01*
X112791287Y-129518004D01*
X112978278Y-129598249D01*
X113177595Y-129639209D01*
X113330079Y-129639209D01*
X113481775Y-129623783D01*
X113675915Y-129562871D01*
X113675916Y-129562870D01*
X113675924Y-129562868D01*
X113853838Y-129464118D01*
X114008231Y-129331575D01*
X114132784Y-129170667D01*
X114222396Y-128987980D01*
X114273399Y-128790994D01*
X114278539Y-128689645D01*
X117124967Y-128689645D01*
X117155778Y-128890772D01*
X117155781Y-128890784D01*
X117226447Y-129081590D01*
X117226451Y-129081597D01*
X117334081Y-129254276D01*
X117334083Y-129254278D01*
X117334084Y-129254280D01*
X117474277Y-129401762D01*
X117564621Y-129464643D01*
X117641285Y-129518003D01*
X117641286Y-129518003D01*
X117641287Y-129518004D01*
X117828278Y-129598249D01*
X118027595Y-129639209D01*
X118180079Y-129639209D01*
X118331775Y-129623783D01*
X118525915Y-129562871D01*
X118525916Y-129562870D01*
X118525924Y-129562868D01*
X118703838Y-129464118D01*
X118858231Y-129331575D01*
X118982784Y-129170667D01*
X119072396Y-128987980D01*
X119123399Y-128790994D01*
X119133705Y-128587773D01*
X119102892Y-128386638D01*
X119032222Y-128195822D01*
X118924588Y-128023138D01*
X118784395Y-127875656D01*
X118685923Y-127807118D01*
X118617386Y-127759414D01*
X118430392Y-127679168D01*
X118231077Y-127638209D01*
X118078594Y-127638209D01*
X118078593Y-127638209D01*
X117926896Y-127653634D01*
X117732756Y-127714546D01*
X117732741Y-127714553D01*
X117554836Y-127813298D01*
X117554831Y-127813301D01*
X117400442Y-127945841D01*
X117400440Y-127945843D01*
X117275890Y-128106746D01*
X117275889Y-128106749D01*
X117186276Y-128289437D01*
X117135273Y-128486423D01*
X117124967Y-128689645D01*
X114278539Y-128689645D01*
X114283705Y-128587773D01*
X114252892Y-128386638D01*
X114182222Y-128195822D01*
X114074588Y-128023138D01*
X113934395Y-127875656D01*
X113835923Y-127807118D01*
X113767386Y-127759414D01*
X113580392Y-127679168D01*
X113381077Y-127638209D01*
X113228594Y-127638209D01*
X113228593Y-127638209D01*
X113076896Y-127653634D01*
X112882756Y-127714546D01*
X112882741Y-127714553D01*
X112704836Y-127813298D01*
X112704831Y-127813301D01*
X112550442Y-127945841D01*
X112550440Y-127945843D01*
X112425890Y-128106746D01*
X112425889Y-128106749D01*
X112336276Y-128289437D01*
X112285273Y-128486423D01*
X112274967Y-128689645D01*
X107701314Y-128689645D01*
X107692021Y-128672259D01*
X107622683Y-128587770D01*
X107560746Y-128512298D01*
X107407635Y-128386645D01*
X107400786Y-128381024D01*
X107253068Y-128302066D01*
X107203225Y-128253104D01*
X107187765Y-128184966D01*
X107211597Y-128119287D01*
X107267155Y-128076918D01*
X107311523Y-128068709D01*
X107712164Y-128068709D01*
X107712180Y-128068708D01*
X107771708Y-128062307D01*
X107771715Y-128062305D01*
X107906422Y-128012063D01*
X107906429Y-128012059D01*
X108021523Y-127925899D01*
X108021526Y-127925896D01*
X108107686Y-127810802D01*
X108107690Y-127810795D01*
X108157932Y-127676088D01*
X108157934Y-127676081D01*
X108164335Y-127616553D01*
X123244336Y-127616553D01*
X123250737Y-127676081D01*
X123250739Y-127676088D01*
X123300981Y-127810795D01*
X123300985Y-127810802D01*
X123387145Y-127925896D01*
X123387148Y-127925899D01*
X123502242Y-128012059D01*
X123502249Y-128012063D01*
X123636956Y-128062305D01*
X123636963Y-128062307D01*
X123696491Y-128068708D01*
X123696508Y-128068709D01*
X124097149Y-128068709D01*
X124164188Y-128088394D01*
X124209943Y-128141198D01*
X124219887Y-128210356D01*
X124190862Y-128273912D01*
X124155603Y-128302066D01*
X124007886Y-128381024D01*
X124007884Y-128381025D01*
X124007883Y-128381026D01*
X123847925Y-128512298D01*
X123716653Y-128672256D01*
X123619105Y-128854752D01*
X123559035Y-129052776D01*
X123538753Y-129258708D01*
X123559035Y-129464641D01*
X123559036Y-129464643D01*
X123619104Y-129662663D01*
X123716651Y-129845159D01*
X123716653Y-129845161D01*
X123847925Y-130005119D01*
X123944545Y-130084411D01*
X124007886Y-130136394D01*
X124190382Y-130233941D01*
X124388402Y-130294009D01*
X124388401Y-130294009D01*
X124408683Y-130296006D01*
X124594336Y-130314292D01*
X124800270Y-130294009D01*
X124998290Y-130233941D01*
X125180786Y-130136394D01*
X125340746Y-130005119D01*
X125472021Y-129845159D01*
X125569568Y-129662663D01*
X125629636Y-129464643D01*
X125649919Y-129258709D01*
X125629636Y-129052775D01*
X125569568Y-128854755D01*
X125472021Y-128672259D01*
X125402683Y-128587770D01*
X125340746Y-128512298D01*
X125187635Y-128386645D01*
X125180786Y-128381024D01*
X125033068Y-128302066D01*
X124983225Y-128253104D01*
X124967765Y-128184966D01*
X124991597Y-128119287D01*
X125047155Y-128076918D01*
X125091523Y-128068709D01*
X125492164Y-128068709D01*
X125492180Y-128068708D01*
X125551708Y-128062307D01*
X125551715Y-128062305D01*
X125686422Y-128012063D01*
X125686429Y-128012059D01*
X125801523Y-127925899D01*
X125801526Y-127925896D01*
X125887686Y-127810802D01*
X125887690Y-127810795D01*
X125937932Y-127676088D01*
X125937934Y-127676081D01*
X125944335Y-127616553D01*
X125944336Y-127616536D01*
X125944336Y-126968709D01*
X125039908Y-126968709D01*
X125063018Y-126932749D01*
X125104336Y-126792036D01*
X125104336Y-126645382D01*
X125063018Y-126504669D01*
X125039908Y-126468709D01*
X125944336Y-126468709D01*
X125944336Y-125820881D01*
X125944335Y-125820864D01*
X125937934Y-125761336D01*
X125937932Y-125761329D01*
X125887690Y-125626622D01*
X125887686Y-125626615D01*
X125801526Y-125511521D01*
X125801523Y-125511518D01*
X125686429Y-125425358D01*
X125686422Y-125425354D01*
X125551715Y-125375112D01*
X125551708Y-125375110D01*
X125492180Y-125368709D01*
X125091523Y-125368709D01*
X125024484Y-125349024D01*
X124978729Y-125296220D01*
X124968785Y-125227062D01*
X124997810Y-125163506D01*
X125033069Y-125135351D01*
X125180786Y-125056394D01*
X125340746Y-124925119D01*
X125472021Y-124765159D01*
X125569568Y-124582663D01*
X125629636Y-124384643D01*
X125649919Y-124178709D01*
X125629636Y-123972775D01*
X125569568Y-123774755D01*
X125472021Y-123592259D01*
X125420038Y-123528918D01*
X125340746Y-123432298D01*
X125180788Y-123301026D01*
X125180789Y-123301026D01*
X125180786Y-123301024D01*
X124998290Y-123203477D01*
X124800270Y-123143409D01*
X124800268Y-123143408D01*
X124800270Y-123143408D01*
X124612799Y-123124944D01*
X124594336Y-123123126D01*
X124594335Y-123123126D01*
X124388403Y-123143408D01*
X124190379Y-123203478D01*
X124080233Y-123262352D01*
X124007886Y-123301024D01*
X124007884Y-123301025D01*
X124007883Y-123301026D01*
X123847925Y-123432298D01*
X123716653Y-123592256D01*
X123619105Y-123774752D01*
X123559035Y-123972776D01*
X123538753Y-124178708D01*
X123559035Y-124384641D01*
X123559036Y-124384643D01*
X123619104Y-124582663D01*
X123716651Y-124765159D01*
X123716653Y-124765161D01*
X123847925Y-124925119D01*
X123944545Y-125004411D01*
X124007886Y-125056394D01*
X124155603Y-125135351D01*
X124205447Y-125184314D01*
X124220907Y-125252452D01*
X124197075Y-125318131D01*
X124141517Y-125360500D01*
X124097149Y-125368709D01*
X123696491Y-125368709D01*
X123636963Y-125375110D01*
X123636956Y-125375112D01*
X123502249Y-125425354D01*
X123502242Y-125425358D01*
X123387148Y-125511518D01*
X123387145Y-125511521D01*
X123300985Y-125626615D01*
X123300981Y-125626622D01*
X123250739Y-125761329D01*
X123250737Y-125761336D01*
X123244336Y-125820864D01*
X123244336Y-126468709D01*
X124148764Y-126468709D01*
X124125654Y-126504669D01*
X124084336Y-126645382D01*
X124084336Y-126792036D01*
X124125654Y-126932749D01*
X124148764Y-126968709D01*
X123244336Y-126968709D01*
X123244336Y-127616553D01*
X108164335Y-127616553D01*
X108164336Y-127616536D01*
X108164336Y-126968709D01*
X107259908Y-126968709D01*
X107283018Y-126932749D01*
X107324336Y-126792036D01*
X107324336Y-126645382D01*
X107283018Y-126504669D01*
X107259908Y-126468709D01*
X108164336Y-126468709D01*
X108164336Y-125820881D01*
X108164335Y-125820864D01*
X108157934Y-125761336D01*
X108157932Y-125761329D01*
X108107690Y-125626622D01*
X108107686Y-125626615D01*
X108021526Y-125511521D01*
X108021523Y-125511518D01*
X107906429Y-125425358D01*
X107906422Y-125425354D01*
X107771715Y-125375112D01*
X107771708Y-125375110D01*
X107712180Y-125368709D01*
X107311523Y-125368709D01*
X107244484Y-125349024D01*
X107198729Y-125296220D01*
X107188785Y-125227062D01*
X107217810Y-125163506D01*
X107253069Y-125135351D01*
X107400786Y-125056394D01*
X107560746Y-124925119D01*
X107692021Y-124765159D01*
X107789568Y-124582663D01*
X107849636Y-124384643D01*
X107869919Y-124178709D01*
X107849636Y-123972775D01*
X107789568Y-123774755D01*
X107692021Y-123592259D01*
X107640038Y-123528918D01*
X107560746Y-123432298D01*
X107400788Y-123301026D01*
X107400789Y-123301026D01*
X107400786Y-123301024D01*
X107218290Y-123203477D01*
X107020270Y-123143409D01*
X107020268Y-123143408D01*
X107020270Y-123143408D01*
X106832799Y-123124944D01*
X106814336Y-123123126D01*
X106814335Y-123123126D01*
X106608403Y-123143408D01*
X106410379Y-123203478D01*
X106300233Y-123262352D01*
X106227886Y-123301024D01*
X106227884Y-123301025D01*
X106227883Y-123301026D01*
X106067925Y-123432298D01*
X105936653Y-123592256D01*
X105839105Y-123774752D01*
X105779035Y-123972776D01*
X105758753Y-124178708D01*
X105779035Y-124384641D01*
X105779036Y-124384643D01*
X105839104Y-124582663D01*
X105936651Y-124765159D01*
X105936653Y-124765161D01*
X106067925Y-124925119D01*
X106164545Y-125004411D01*
X106227886Y-125056394D01*
X106375603Y-125135351D01*
X106425447Y-125184314D01*
X106440907Y-125252452D01*
X106417075Y-125318131D01*
X106361517Y-125360500D01*
X106317149Y-125368709D01*
X105916491Y-125368709D01*
X105856963Y-125375110D01*
X105856956Y-125375112D01*
X105722249Y-125425354D01*
X105722242Y-125425358D01*
X105607148Y-125511518D01*
X105607145Y-125511521D01*
X105520985Y-125626615D01*
X105520981Y-125626622D01*
X105470739Y-125761329D01*
X105470737Y-125761336D01*
X105464336Y-125820864D01*
X105464336Y-126468709D01*
X106368764Y-126468709D01*
X106345654Y-126504669D01*
X106304336Y-126645382D01*
X106304336Y-126792036D01*
X106345654Y-126932749D01*
X106368764Y-126968709D01*
X105464336Y-126968709D01*
X105464336Y-127616553D01*
X95000500Y-127616553D01*
X95000500Y-121638709D01*
X105758753Y-121638709D01*
X105779035Y-121844641D01*
X105779036Y-121844643D01*
X105839104Y-122042663D01*
X105936651Y-122225159D01*
X105936653Y-122225161D01*
X106067925Y-122385119D01*
X106164545Y-122464411D01*
X106227886Y-122516394D01*
X106410382Y-122613941D01*
X106608402Y-122674009D01*
X106608401Y-122674009D01*
X106628683Y-122676006D01*
X106814336Y-122694292D01*
X107020270Y-122674009D01*
X107218290Y-122613941D01*
X107400786Y-122516394D01*
X107560746Y-122385119D01*
X107692021Y-122225159D01*
X107789568Y-122042663D01*
X107849636Y-121844643D01*
X107869919Y-121638709D01*
X123538753Y-121638709D01*
X123559035Y-121844641D01*
X123559036Y-121844643D01*
X123619104Y-122042663D01*
X123716651Y-122225159D01*
X123716653Y-122225161D01*
X123847925Y-122385119D01*
X123944545Y-122464411D01*
X124007886Y-122516394D01*
X124190382Y-122613941D01*
X124388402Y-122674009D01*
X124388401Y-122674009D01*
X124408683Y-122676006D01*
X124594336Y-122694292D01*
X124800270Y-122674009D01*
X124998290Y-122613941D01*
X125180786Y-122516394D01*
X125340746Y-122385119D01*
X125472021Y-122225159D01*
X125569568Y-122042663D01*
X125629636Y-121844643D01*
X125649919Y-121638709D01*
X125629636Y-121432775D01*
X125569568Y-121234755D01*
X125472021Y-121052259D01*
X125420038Y-120988918D01*
X125340746Y-120892298D01*
X125180788Y-120761026D01*
X125180789Y-120761026D01*
X125180786Y-120761024D01*
X124998290Y-120663477D01*
X124800270Y-120603409D01*
X124800268Y-120603408D01*
X124800270Y-120603408D01*
X124612799Y-120584944D01*
X124594336Y-120583126D01*
X124594335Y-120583126D01*
X124388403Y-120603408D01*
X124190379Y-120663478D01*
X124080233Y-120722352D01*
X124007886Y-120761024D01*
X124007884Y-120761025D01*
X124007883Y-120761026D01*
X123847925Y-120892298D01*
X123716653Y-121052256D01*
X123619105Y-121234752D01*
X123559035Y-121432776D01*
X123538753Y-121638709D01*
X107869919Y-121638709D01*
X107849636Y-121432775D01*
X107789568Y-121234755D01*
X107692021Y-121052259D01*
X107640038Y-120988918D01*
X107560746Y-120892298D01*
X107400788Y-120761026D01*
X107400789Y-120761026D01*
X107400786Y-120761024D01*
X107218290Y-120663477D01*
X107020270Y-120603409D01*
X107020268Y-120603408D01*
X107020270Y-120603408D01*
X106814336Y-120583126D01*
X106608403Y-120603408D01*
X106410379Y-120663478D01*
X106300233Y-120722352D01*
X106227886Y-120761024D01*
X106227884Y-120761025D01*
X106227883Y-120761026D01*
X106067925Y-120892298D01*
X105936653Y-121052256D01*
X105839105Y-121234752D01*
X105779035Y-121432776D01*
X105758753Y-121638709D01*
X95000500Y-121638709D01*
X95000500Y-119098709D01*
X105758753Y-119098709D01*
X105779035Y-119304641D01*
X105779036Y-119304643D01*
X105839104Y-119502663D01*
X105936651Y-119685159D01*
X105936653Y-119685161D01*
X106067925Y-119845119D01*
X106164545Y-119924411D01*
X106227886Y-119976394D01*
X106410382Y-120073941D01*
X106608402Y-120134009D01*
X106608401Y-120134009D01*
X106628683Y-120136006D01*
X106814336Y-120154292D01*
X107020270Y-120134009D01*
X107218290Y-120073941D01*
X107400786Y-119976394D01*
X107560746Y-119845119D01*
X107692021Y-119685159D01*
X107789568Y-119502663D01*
X107849636Y-119304643D01*
X107869919Y-119098709D01*
X107849636Y-118892775D01*
X107789568Y-118694755D01*
X107692021Y-118512259D01*
X107640038Y-118448918D01*
X107560746Y-118352298D01*
X107400788Y-118221026D01*
X107400789Y-118221026D01*
X107400786Y-118221024D01*
X107218290Y-118123477D01*
X107020270Y-118063409D01*
X107020268Y-118063408D01*
X107020270Y-118063408D01*
X106832799Y-118044944D01*
X106814336Y-118043126D01*
X106814335Y-118043126D01*
X106608403Y-118063408D01*
X106410379Y-118123478D01*
X106300233Y-118182352D01*
X106227886Y-118221024D01*
X106227884Y-118221025D01*
X106227883Y-118221026D01*
X106067925Y-118352298D01*
X105936653Y-118512256D01*
X105936651Y-118512259D01*
X105898298Y-118584012D01*
X105839105Y-118694752D01*
X105779035Y-118892776D01*
X105758753Y-119098709D01*
X95000500Y-119098709D01*
X95000500Y-116536990D01*
X97944417Y-116536990D01*
X97964699Y-116742923D01*
X97964700Y-116742925D01*
X98024768Y-116940945D01*
X98122315Y-117123441D01*
X98140140Y-117145161D01*
X98253589Y-117283401D01*
X98350209Y-117362693D01*
X98413550Y-117414676D01*
X98596046Y-117512223D01*
X98794066Y-117572291D01*
X98794065Y-117572291D01*
X98812529Y-117574109D01*
X99000000Y-117592574D01*
X99205934Y-117572291D01*
X99403954Y-117512223D01*
X99586450Y-117414676D01*
X99746410Y-117283401D01*
X99877685Y-117123441D01*
X99975232Y-116940945D01*
X100035300Y-116742925D01*
X100053444Y-116558709D01*
X105758753Y-116558709D01*
X105779035Y-116764641D01*
X105809069Y-116863653D01*
X105839104Y-116962663D01*
X105936651Y-117145159D01*
X105936653Y-117145161D01*
X106067925Y-117305119D01*
X106125391Y-117352279D01*
X106227886Y-117436394D01*
X106410382Y-117533941D01*
X106608402Y-117594009D01*
X106608401Y-117594009D01*
X106628683Y-117596006D01*
X106814336Y-117614292D01*
X107020270Y-117594009D01*
X107218290Y-117533941D01*
X107400786Y-117436394D01*
X107560746Y-117305119D01*
X107692021Y-117145159D01*
X107789568Y-116962663D01*
X107849636Y-116764643D01*
X107869919Y-116558709D01*
X107849636Y-116352775D01*
X107789568Y-116154755D01*
X107692021Y-115972259D01*
X107599449Y-115859459D01*
X107560746Y-115812298D01*
X107400788Y-115681026D01*
X107400789Y-115681026D01*
X107400786Y-115681024D01*
X107218290Y-115583477D01*
X107020270Y-115523409D01*
X107020268Y-115523408D01*
X107020270Y-115523408D01*
X106832799Y-115504944D01*
X106814336Y-115503126D01*
X106814335Y-115503126D01*
X106608403Y-115523408D01*
X106410379Y-115583478D01*
X106322151Y-115630638D01*
X106227886Y-115681024D01*
X106227884Y-115681025D01*
X106227883Y-115681026D01*
X106067925Y-115812298D01*
X105936653Y-115972256D01*
X105839105Y-116154752D01*
X105779035Y-116352776D01*
X105758753Y-116558709D01*
X100053444Y-116558709D01*
X100055583Y-116536991D01*
X100035300Y-116331057D01*
X99975232Y-116133037D01*
X99877685Y-115950541D01*
X99825702Y-115887200D01*
X99746410Y-115790580D01*
X99612916Y-115681026D01*
X99586450Y-115659306D01*
X99403954Y-115561759D01*
X99205934Y-115501691D01*
X99205932Y-115501690D01*
X99205934Y-115501690D01*
X99000000Y-115481408D01*
X98794067Y-115501690D01*
X98596043Y-115561760D01*
X98485897Y-115620634D01*
X98413550Y-115659306D01*
X98413548Y-115659307D01*
X98413547Y-115659308D01*
X98253589Y-115790580D01*
X98122317Y-115950538D01*
X98122315Y-115950541D01*
X98085500Y-116019416D01*
X98024769Y-116133034D01*
X97964699Y-116331058D01*
X97944417Y-116536990D01*
X95000500Y-116536990D01*
X95000500Y-112354835D01*
X97650000Y-112354835D01*
X97656401Y-112414363D01*
X97656403Y-112414370D01*
X97706645Y-112549077D01*
X97706649Y-112549084D01*
X97792809Y-112664178D01*
X97792812Y-112664181D01*
X97907906Y-112750341D01*
X97907913Y-112750345D01*
X98042620Y-112800587D01*
X98042627Y-112800589D01*
X98102155Y-112806990D01*
X98102172Y-112806991D01*
X98502813Y-112806991D01*
X98569852Y-112826676D01*
X98615607Y-112879480D01*
X98625551Y-112948638D01*
X98596526Y-113012194D01*
X98561267Y-113040348D01*
X98413550Y-113119306D01*
X98413548Y-113119307D01*
X98413547Y-113119308D01*
X98253589Y-113250580D01*
X98122317Y-113410538D01*
X98024769Y-113593034D01*
X97964699Y-113791058D01*
X97944417Y-113996990D01*
X97964699Y-114202923D01*
X97984655Y-114268709D01*
X98024768Y-114400945D01*
X98122315Y-114583441D01*
X98122317Y-114583443D01*
X98253589Y-114743401D01*
X98350209Y-114822693D01*
X98413550Y-114874676D01*
X98596046Y-114972223D01*
X98794066Y-115032291D01*
X98794065Y-115032291D01*
X98814347Y-115034288D01*
X99000000Y-115052574D01*
X99205934Y-115032291D01*
X99403954Y-114972223D01*
X99560660Y-114888461D01*
X105763836Y-114888461D01*
X105775467Y-114946935D01*
X105775468Y-114946939D01*
X105819783Y-115013261D01*
X105886105Y-115057576D01*
X105886106Y-115057577D01*
X105944583Y-115069208D01*
X105944586Y-115069209D01*
X105944588Y-115069209D01*
X107684086Y-115069209D01*
X107684087Y-115069208D01*
X107698904Y-115066261D01*
X107742565Y-115057577D01*
X107742565Y-115057576D01*
X107742567Y-115057576D01*
X107808888Y-115013261D01*
X107853203Y-114946940D01*
X107853203Y-114946938D01*
X107853205Y-114946935D01*
X107864835Y-114888461D01*
X107864836Y-114888459D01*
X107864836Y-113148958D01*
X107864835Y-113148956D01*
X107853204Y-113090479D01*
X107853203Y-113090478D01*
X107808888Y-113024156D01*
X107742566Y-112979841D01*
X107742565Y-112979840D01*
X107684088Y-112968209D01*
X107684084Y-112968209D01*
X105944588Y-112968209D01*
X105944583Y-112968209D01*
X105886106Y-112979840D01*
X105886105Y-112979841D01*
X105819783Y-113024156D01*
X105775468Y-113090478D01*
X105775467Y-113090479D01*
X105763836Y-113148956D01*
X105763836Y-114888461D01*
X99560660Y-114888461D01*
X99586450Y-114874676D01*
X99746410Y-114743401D01*
X99877685Y-114583441D01*
X99975232Y-114400945D01*
X100035300Y-114202925D01*
X100055583Y-113996991D01*
X100035300Y-113791057D01*
X99975232Y-113593037D01*
X99877685Y-113410541D01*
X99825702Y-113347200D01*
X99746410Y-113250580D01*
X99586452Y-113119308D01*
X99586453Y-113119308D01*
X99586450Y-113119306D01*
X99438732Y-113040348D01*
X99388889Y-112991386D01*
X99373429Y-112923248D01*
X99397261Y-112857569D01*
X99452819Y-112815200D01*
X99497187Y-112806991D01*
X99897828Y-112806991D01*
X99897844Y-112806990D01*
X99957372Y-112800589D01*
X99957379Y-112800587D01*
X100092086Y-112750345D01*
X100092093Y-112750341D01*
X100207187Y-112664181D01*
X100207190Y-112664178D01*
X100293350Y-112549084D01*
X100293354Y-112549077D01*
X100343596Y-112414370D01*
X100343598Y-112414363D01*
X100349999Y-112354835D01*
X100350000Y-112354818D01*
X100350000Y-111706991D01*
X99433686Y-111706991D01*
X99459493Y-111666835D01*
X99500000Y-111528880D01*
X99500000Y-111478708D01*
X105758753Y-111478708D01*
X105779035Y-111684641D01*
X105785815Y-111706991D01*
X105839104Y-111882663D01*
X105936651Y-112065159D01*
X105936653Y-112065161D01*
X106067925Y-112225119D01*
X106164545Y-112304411D01*
X106227886Y-112356394D01*
X106410382Y-112453941D01*
X106608402Y-112514009D01*
X106608401Y-112514009D01*
X106628683Y-112516006D01*
X106814336Y-112534292D01*
X107020270Y-112514009D01*
X107218290Y-112453941D01*
X107400786Y-112356394D01*
X107560746Y-112225119D01*
X107692021Y-112065159D01*
X107789568Y-111882663D01*
X107849636Y-111684643D01*
X107869919Y-111478709D01*
X107849636Y-111272775D01*
X107789568Y-111074755D01*
X107692021Y-110892259D01*
X107640038Y-110828918D01*
X107560746Y-110732298D01*
X107443013Y-110635678D01*
X107400786Y-110601024D01*
X107218290Y-110503477D01*
X107020270Y-110443409D01*
X107020268Y-110443408D01*
X107020270Y-110443408D01*
X106832799Y-110424944D01*
X106814336Y-110423126D01*
X106814335Y-110423126D01*
X106608403Y-110443408D01*
X106410379Y-110503478D01*
X106306202Y-110559163D01*
X106227886Y-110601024D01*
X106227884Y-110601025D01*
X106227883Y-110601026D01*
X106067925Y-110732298D01*
X105936653Y-110892256D01*
X105839105Y-111074752D01*
X105779035Y-111272776D01*
X105758753Y-111478708D01*
X99500000Y-111478708D01*
X99500000Y-111385102D01*
X99459493Y-111247147D01*
X99433686Y-111206991D01*
X100350000Y-111206991D01*
X100350000Y-110559163D01*
X100349999Y-110559146D01*
X100343598Y-110499618D01*
X100343596Y-110499611D01*
X100293354Y-110364904D01*
X100293350Y-110364897D01*
X100207190Y-110249803D01*
X100207187Y-110249800D01*
X100092093Y-110163640D01*
X100092086Y-110163636D01*
X99957379Y-110113394D01*
X99957372Y-110113392D01*
X99897844Y-110106991D01*
X99250000Y-110106991D01*
X99250000Y-111021489D01*
X99142315Y-110972311D01*
X99035763Y-110956991D01*
X98964237Y-110956991D01*
X98857685Y-110972311D01*
X98750000Y-111021489D01*
X98750000Y-110106991D01*
X98102155Y-110106991D01*
X98042627Y-110113392D01*
X98042620Y-110113394D01*
X97907913Y-110163636D01*
X97907906Y-110163640D01*
X97792812Y-110249800D01*
X97792809Y-110249803D01*
X97706649Y-110364897D01*
X97706645Y-110364904D01*
X97656403Y-110499611D01*
X97656401Y-110499618D01*
X97650000Y-110559146D01*
X97650000Y-111206991D01*
X98566314Y-111206991D01*
X98540507Y-111247147D01*
X98500000Y-111385102D01*
X98500000Y-111528880D01*
X98540507Y-111666835D01*
X98566314Y-111706991D01*
X97650000Y-111706991D01*
X97650000Y-112354835D01*
X95000500Y-112354835D01*
X95000500Y-108938709D01*
X105758753Y-108938709D01*
X105779035Y-109144641D01*
X105779036Y-109144643D01*
X105839104Y-109342663D01*
X105936651Y-109525159D01*
X105936653Y-109525161D01*
X106067925Y-109685119D01*
X106164545Y-109764411D01*
X106227886Y-109816394D01*
X106410382Y-109913941D01*
X106608402Y-109974009D01*
X106608401Y-109974009D01*
X106628684Y-109976006D01*
X106814336Y-109994292D01*
X107020270Y-109974009D01*
X107218290Y-109913941D01*
X107400786Y-109816394D01*
X107560746Y-109685119D01*
X107692021Y-109525159D01*
X107789568Y-109342663D01*
X107849636Y-109144643D01*
X107869919Y-108938709D01*
X107849636Y-108732775D01*
X107789568Y-108534755D01*
X107692021Y-108352259D01*
X107640038Y-108288918D01*
X107560746Y-108192298D01*
X107400788Y-108061026D01*
X107400789Y-108061026D01*
X107400786Y-108061024D01*
X107218290Y-107963477D01*
X107020270Y-107903409D01*
X107020268Y-107903408D01*
X107020270Y-107903408D01*
X106832799Y-107884944D01*
X106814336Y-107883126D01*
X106814335Y-107883126D01*
X106608403Y-107903408D01*
X106410379Y-107963478D01*
X106338079Y-108002124D01*
X106227886Y-108061024D01*
X106227884Y-108061025D01*
X106227883Y-108061026D01*
X106067925Y-108192298D01*
X105936653Y-108352256D01*
X105839105Y-108534752D01*
X105779035Y-108732776D01*
X105758753Y-108938709D01*
X95000500Y-108938709D01*
X95000500Y-106398709D01*
X105758753Y-106398709D01*
X105779035Y-106604641D01*
X105779036Y-106604643D01*
X105839104Y-106802663D01*
X105936651Y-106985159D01*
X105936653Y-106985161D01*
X106067925Y-107145119D01*
X106164545Y-107224411D01*
X106227886Y-107276394D01*
X106410382Y-107373941D01*
X106608402Y-107434009D01*
X106608401Y-107434009D01*
X106626865Y-107435827D01*
X106814336Y-107454292D01*
X107020270Y-107434009D01*
X107218290Y-107373941D01*
X107400786Y-107276394D01*
X107560746Y-107145119D01*
X107692021Y-106985159D01*
X107789568Y-106802663D01*
X107849636Y-106604643D01*
X107869919Y-106398709D01*
X107849636Y-106192775D01*
X107789568Y-105994755D01*
X107692021Y-105812259D01*
X107640038Y-105748918D01*
X107560746Y-105652298D01*
X107400788Y-105521026D01*
X107400789Y-105521026D01*
X107400786Y-105521024D01*
X107218290Y-105423477D01*
X107020270Y-105363409D01*
X107020268Y-105363408D01*
X107020270Y-105363408D01*
X106832799Y-105344944D01*
X106814336Y-105343126D01*
X106814335Y-105343126D01*
X106608403Y-105363408D01*
X106410379Y-105423478D01*
X106338079Y-105462124D01*
X106227886Y-105521024D01*
X106227884Y-105521025D01*
X106227883Y-105521026D01*
X106067925Y-105652298D01*
X105936653Y-105812256D01*
X105839105Y-105994752D01*
X105779035Y-106192776D01*
X105758753Y-106398709D01*
X95000500Y-106398709D01*
X95000500Y-102216553D01*
X105464336Y-102216553D01*
X105470737Y-102276081D01*
X105470739Y-102276088D01*
X105520981Y-102410795D01*
X105520985Y-102410802D01*
X105607145Y-102525896D01*
X105607148Y-102525899D01*
X105722242Y-102612059D01*
X105722249Y-102612063D01*
X105856956Y-102662305D01*
X105856963Y-102662307D01*
X105916491Y-102668708D01*
X105916508Y-102668709D01*
X106317149Y-102668709D01*
X106384188Y-102688394D01*
X106429943Y-102741198D01*
X106439887Y-102810356D01*
X106410862Y-102873912D01*
X106375603Y-102902066D01*
X106227886Y-102981024D01*
X106227884Y-102981025D01*
X106227883Y-102981026D01*
X106067925Y-103112298D01*
X105936653Y-103272256D01*
X105936651Y-103272259D01*
X105900922Y-103339102D01*
X105839105Y-103454752D01*
X105779035Y-103652776D01*
X105758753Y-103858708D01*
X105779035Y-104064641D01*
X105779036Y-104064643D01*
X105839104Y-104262663D01*
X105936651Y-104445159D01*
X105936653Y-104445161D01*
X106067925Y-104605119D01*
X106164545Y-104684411D01*
X106227886Y-104736394D01*
X106410382Y-104833941D01*
X106608402Y-104894009D01*
X106608401Y-104894009D01*
X106626865Y-104895827D01*
X106814336Y-104914292D01*
X107020270Y-104894009D01*
X107218290Y-104833941D01*
X107400786Y-104736394D01*
X107560746Y-104605119D01*
X107692021Y-104445159D01*
X107789568Y-104262663D01*
X107849636Y-104064643D01*
X107869919Y-103858709D01*
X107849636Y-103652775D01*
X107789568Y-103454755D01*
X107692021Y-103272259D01*
X107578107Y-103133453D01*
X107560746Y-103112298D01*
X107400788Y-102981026D01*
X107400789Y-102981026D01*
X107400786Y-102981024D01*
X107253068Y-102902066D01*
X107203225Y-102853104D01*
X107187765Y-102784966D01*
X107211597Y-102719287D01*
X107267155Y-102676918D01*
X107311523Y-102668709D01*
X107712164Y-102668709D01*
X107712180Y-102668708D01*
X107771708Y-102662307D01*
X107771715Y-102662305D01*
X107906422Y-102612063D01*
X107906429Y-102612059D01*
X108021523Y-102525899D01*
X108021526Y-102525896D01*
X108107686Y-102410802D01*
X108107690Y-102410795D01*
X108157932Y-102276088D01*
X108157934Y-102276081D01*
X108164335Y-102216553D01*
X108164336Y-102216536D01*
X108164336Y-101568709D01*
X107259908Y-101568709D01*
X107283018Y-101532749D01*
X107324336Y-101392036D01*
X107324336Y-101245382D01*
X107283018Y-101104669D01*
X107259908Y-101068709D01*
X108164336Y-101068709D01*
X108164336Y-100812420D01*
X108184021Y-100745381D01*
X108236825Y-100699626D01*
X108305983Y-100689682D01*
X108369539Y-100718707D01*
X108376017Y-100724739D01*
X119419434Y-111768156D01*
X119452919Y-111829479D01*
X119455753Y-111855837D01*
X119455754Y-114108465D01*
X119455518Y-114113872D01*
X119451989Y-114154195D01*
X119462466Y-114193297D01*
X119463637Y-114198577D01*
X119470665Y-114238430D01*
X119472489Y-114243442D01*
X119479451Y-114260248D01*
X119481699Y-114265068D01*
X119481700Y-114265071D01*
X119486414Y-114271803D01*
X119504909Y-114298218D01*
X119507815Y-114302779D01*
X119528060Y-114337842D01*
X119559069Y-114363862D01*
X119563059Y-114367518D01*
X123648538Y-118452997D01*
X123682023Y-118514320D01*
X123677039Y-118584012D01*
X123670216Y-118599130D01*
X123619105Y-118694753D01*
X123559035Y-118892776D01*
X123538753Y-119098708D01*
X123559035Y-119304641D01*
X123559036Y-119304643D01*
X123619104Y-119502663D01*
X123716651Y-119685159D01*
X123716653Y-119685161D01*
X123847925Y-119845119D01*
X123944545Y-119924411D01*
X124007886Y-119976394D01*
X124190382Y-120073941D01*
X124388402Y-120134009D01*
X124388401Y-120134009D01*
X124406865Y-120135827D01*
X124594336Y-120154292D01*
X124800270Y-120134009D01*
X124998290Y-120073941D01*
X125180786Y-119976394D01*
X125340746Y-119845119D01*
X125472021Y-119685159D01*
X125569568Y-119502663D01*
X125629636Y-119304643D01*
X125649919Y-119098709D01*
X125629636Y-118892775D01*
X125569568Y-118694755D01*
X125472021Y-118512259D01*
X125420038Y-118448918D01*
X125340746Y-118352298D01*
X125180788Y-118221026D01*
X125180789Y-118221026D01*
X125180786Y-118221024D01*
X124998290Y-118123477D01*
X124800270Y-118063409D01*
X124800268Y-118063408D01*
X124800270Y-118063408D01*
X124594336Y-118043126D01*
X124388402Y-118063408D01*
X124299319Y-118090431D01*
X124229452Y-118091054D01*
X124175644Y-118059451D01*
X123212083Y-117095890D01*
X123178598Y-117034567D01*
X123183582Y-116964875D01*
X123225454Y-116908942D01*
X123290918Y-116884525D01*
X123299764Y-116884209D01*
X123503753Y-116884209D01*
X123570792Y-116903894D01*
X123616547Y-116956698D01*
X123618315Y-116960758D01*
X123619104Y-116962663D01*
X123716651Y-117145159D01*
X123716653Y-117145161D01*
X123847925Y-117305119D01*
X123905391Y-117352279D01*
X124007886Y-117436394D01*
X124190382Y-117533941D01*
X124388402Y-117594009D01*
X124388401Y-117594009D01*
X124408683Y-117596006D01*
X124594336Y-117614292D01*
X124800270Y-117594009D01*
X124998290Y-117533941D01*
X125180786Y-117436394D01*
X125340746Y-117305119D01*
X125472021Y-117145159D01*
X125569568Y-116962663D01*
X125629636Y-116764643D01*
X125645274Y-116605869D01*
X131171671Y-116605869D01*
X131191953Y-116811801D01*
X131191954Y-116811803D01*
X131252022Y-117009823D01*
X131349569Y-117192319D01*
X131349571Y-117192321D01*
X131480843Y-117352279D01*
X131556872Y-117414673D01*
X131640804Y-117483554D01*
X131823300Y-117581101D01*
X132021320Y-117641169D01*
X132021319Y-117641169D01*
X132041602Y-117643166D01*
X132227254Y-117661452D01*
X132433188Y-117641169D01*
X132631208Y-117581101D01*
X132813704Y-117483554D01*
X132973664Y-117352279D01*
X133104939Y-117192319D01*
X133202486Y-117009823D01*
X133262554Y-116811803D01*
X133282837Y-116605869D01*
X133262554Y-116399935D01*
X133202486Y-116201915D01*
X133104939Y-116019419D01*
X133048410Y-115950538D01*
X132973664Y-115859458D01*
X132813706Y-115728186D01*
X132813707Y-115728186D01*
X132813704Y-115728184D01*
X132631208Y-115630637D01*
X132433188Y-115570569D01*
X132433186Y-115570568D01*
X132433188Y-115570568D01*
X132227254Y-115550286D01*
X132021321Y-115570568D01*
X131823297Y-115630638D01*
X131713152Y-115689512D01*
X131640804Y-115728184D01*
X131640802Y-115728185D01*
X131640801Y-115728186D01*
X131480843Y-115859458D01*
X131349571Y-116019416D01*
X131252023Y-116201912D01*
X131252022Y-116201914D01*
X131252022Y-116201915D01*
X131245152Y-116224561D01*
X131191953Y-116399936D01*
X131171671Y-116605869D01*
X125645274Y-116605869D01*
X125649919Y-116558709D01*
X125629636Y-116352775D01*
X125569568Y-116154755D01*
X125472021Y-115972259D01*
X125379449Y-115859459D01*
X125340746Y-115812298D01*
X125180788Y-115681026D01*
X125180789Y-115681026D01*
X125180786Y-115681024D01*
X125033068Y-115602066D01*
X124983225Y-115553104D01*
X124967765Y-115484966D01*
X124991597Y-115419287D01*
X125047155Y-115376918D01*
X125091523Y-115368709D01*
X125492164Y-115368709D01*
X125492180Y-115368708D01*
X125551708Y-115362307D01*
X125551715Y-115362305D01*
X125686422Y-115312063D01*
X125686429Y-115312059D01*
X125801523Y-115225899D01*
X125801526Y-115225896D01*
X125887686Y-115110802D01*
X125887690Y-115110795D01*
X125937932Y-114976088D01*
X125937934Y-114976081D01*
X125944335Y-114916553D01*
X125944336Y-114916536D01*
X125944336Y-114268709D01*
X125039908Y-114268709D01*
X125063018Y-114232749D01*
X125104336Y-114092036D01*
X125104336Y-113945382D01*
X125063018Y-113804669D01*
X125039908Y-113768709D01*
X125944336Y-113768709D01*
X125944336Y-113120881D01*
X125944335Y-113120864D01*
X125937934Y-113061336D01*
X125937932Y-113061329D01*
X125887690Y-112926622D01*
X125887686Y-112926615D01*
X125801526Y-112811521D01*
X125801523Y-112811518D01*
X125686429Y-112725358D01*
X125686422Y-112725354D01*
X125551715Y-112675112D01*
X125551708Y-112675110D01*
X125492180Y-112668709D01*
X125091523Y-112668709D01*
X125024484Y-112649024D01*
X124978729Y-112596220D01*
X124968785Y-112527062D01*
X124997810Y-112463506D01*
X125033069Y-112435351D01*
X125180786Y-112356394D01*
X125340746Y-112225119D01*
X125472021Y-112065159D01*
X125569568Y-111882663D01*
X125629636Y-111684643D01*
X125649919Y-111478709D01*
X125629941Y-111275868D01*
X130877253Y-111275868D01*
X130877254Y-111275869D01*
X131793568Y-111275869D01*
X131767761Y-111316025D01*
X131727254Y-111453980D01*
X131727254Y-111597758D01*
X131767761Y-111735713D01*
X131793568Y-111775869D01*
X130877254Y-111775869D01*
X130877254Y-112423713D01*
X130883655Y-112483241D01*
X130883657Y-112483248D01*
X130933899Y-112617955D01*
X130933903Y-112617962D01*
X131020063Y-112733056D01*
X131020066Y-112733059D01*
X131135160Y-112819219D01*
X131135167Y-112819223D01*
X131269874Y-112869465D01*
X131269881Y-112869467D01*
X131329409Y-112875868D01*
X131329426Y-112875869D01*
X131730067Y-112875869D01*
X131797106Y-112895554D01*
X131842861Y-112948358D01*
X131852805Y-113017516D01*
X131823780Y-113081072D01*
X131788521Y-113109226D01*
X131640804Y-113188184D01*
X131640802Y-113188185D01*
X131640801Y-113188186D01*
X131480843Y-113319458D01*
X131349571Y-113479416D01*
X131252023Y-113661912D01*
X131191953Y-113859936D01*
X131171671Y-114065869D01*
X131191953Y-114271801D01*
X131191954Y-114271803D01*
X131252022Y-114469823D01*
X131349569Y-114652319D01*
X131349571Y-114652321D01*
X131480843Y-114812279D01*
X131556872Y-114874673D01*
X131640804Y-114943554D01*
X131823300Y-115041101D01*
X132021320Y-115101169D01*
X132021319Y-115101169D01*
X132039783Y-115102987D01*
X132227254Y-115121452D01*
X132433188Y-115101169D01*
X132631208Y-115041101D01*
X132813704Y-114943554D01*
X132973664Y-114812279D01*
X133104939Y-114652319D01*
X133202486Y-114469823D01*
X133262554Y-114271803D01*
X133282837Y-114065869D01*
X133262554Y-113859935D01*
X133202486Y-113661915D01*
X133104939Y-113479419D01*
X133048410Y-113410538D01*
X132973664Y-113319458D01*
X132813706Y-113188186D01*
X132813707Y-113188186D01*
X132813704Y-113188184D01*
X132665986Y-113109226D01*
X132616143Y-113060264D01*
X132600683Y-112992126D01*
X132624515Y-112926447D01*
X132680073Y-112884078D01*
X132724441Y-112875869D01*
X133125082Y-112875869D01*
X133125098Y-112875868D01*
X133184626Y-112869467D01*
X133184633Y-112869465D01*
X133319340Y-112819223D01*
X133319347Y-112819219D01*
X133434441Y-112733059D01*
X133434444Y-112733056D01*
X133520604Y-112617962D01*
X133520608Y-112617955D01*
X133570850Y-112483248D01*
X133570852Y-112483241D01*
X133577253Y-112423713D01*
X133577254Y-112423696D01*
X133577254Y-111775869D01*
X132660940Y-111775869D01*
X132686747Y-111735713D01*
X132727254Y-111597758D01*
X132727254Y-111453980D01*
X132686747Y-111316025D01*
X132660940Y-111275869D01*
X133577254Y-111275869D01*
X133577254Y-110628041D01*
X133577253Y-110628024D01*
X133570852Y-110568496D01*
X133570850Y-110568489D01*
X133520608Y-110433782D01*
X133520604Y-110433775D01*
X133434444Y-110318681D01*
X133434441Y-110318678D01*
X133319347Y-110232518D01*
X133319340Y-110232514D01*
X133184633Y-110182272D01*
X133184626Y-110182270D01*
X133125098Y-110175869D01*
X132477254Y-110175869D01*
X132477253Y-111090367D01*
X132369569Y-111041189D01*
X132263017Y-111025869D01*
X132191491Y-111025869D01*
X132084939Y-111041189D01*
X131977254Y-111090367D01*
X131977254Y-110175869D01*
X131329409Y-110175869D01*
X131269881Y-110182270D01*
X131269874Y-110182272D01*
X131135167Y-110232514D01*
X131135160Y-110232518D01*
X131020066Y-110318678D01*
X131020063Y-110318681D01*
X130933903Y-110433775D01*
X130933899Y-110433782D01*
X130883657Y-110568489D01*
X130883655Y-110568496D01*
X130877254Y-110628024D01*
X130877254Y-110628041D01*
X130877253Y-111275868D01*
X125629941Y-111275868D01*
X125629636Y-111272775D01*
X125569568Y-111074755D01*
X125472021Y-110892259D01*
X125420038Y-110828918D01*
X125340746Y-110732298D01*
X125223013Y-110635678D01*
X125180786Y-110601024D01*
X124998290Y-110503477D01*
X124800270Y-110443409D01*
X124800268Y-110443408D01*
X124800270Y-110443408D01*
X124612799Y-110424944D01*
X124594336Y-110423126D01*
X124594335Y-110423126D01*
X124388403Y-110443408D01*
X124190379Y-110503478D01*
X124086202Y-110559163D01*
X124007886Y-110601024D01*
X124007884Y-110601025D01*
X124007883Y-110601026D01*
X123847925Y-110732298D01*
X123716653Y-110892256D01*
X123619104Y-111074754D01*
X123618315Y-111076660D01*
X123617634Y-111077505D01*
X123616232Y-111080128D01*
X123615734Y-111079862D01*
X123574474Y-111131064D01*
X123508180Y-111153130D01*
X123503753Y-111153209D01*
X121049294Y-111153209D01*
X120982255Y-111133524D01*
X120961613Y-111116890D01*
X111972319Y-102127595D01*
X111938834Y-102066272D01*
X111936000Y-102039914D01*
X111936000Y-84174230D01*
X111955685Y-84107191D01*
X112008489Y-84061436D01*
X112077647Y-84051492D01*
X112141203Y-84080517D01*
X112178660Y-84138233D01*
X112189104Y-84172663D01*
X112286651Y-84355159D01*
X112286653Y-84355161D01*
X112417925Y-84515119D01*
X112489684Y-84574009D01*
X112577886Y-84646394D01*
X112760382Y-84743941D01*
X112958402Y-84804009D01*
X112958401Y-84804009D01*
X112976865Y-84805827D01*
X113164336Y-84824292D01*
X113370270Y-84804009D01*
X113568290Y-84743941D01*
X113750786Y-84646394D01*
X113760452Y-84638461D01*
X114653836Y-84638461D01*
X114665467Y-84696938D01*
X114665468Y-84696939D01*
X114709783Y-84763261D01*
X114776105Y-84807576D01*
X114776106Y-84807577D01*
X114834583Y-84819208D01*
X114834586Y-84819209D01*
X114834588Y-84819209D01*
X116574086Y-84819209D01*
X116574087Y-84819208D01*
X116588904Y-84816261D01*
X116632565Y-84807577D01*
X116632565Y-84807576D01*
X116632567Y-84807576D01*
X116698888Y-84763261D01*
X116743203Y-84696940D01*
X116743203Y-84696938D01*
X116743204Y-84696938D01*
X116754835Y-84638461D01*
X116754836Y-84638459D01*
X116754836Y-83768708D01*
X117188753Y-83768708D01*
X117209035Y-83974641D01*
X117221882Y-84016991D01*
X117269104Y-84172663D01*
X117366651Y-84355159D01*
X117366653Y-84355161D01*
X117497925Y-84515119D01*
X117569684Y-84574009D01*
X117657886Y-84646394D01*
X117840382Y-84743941D01*
X118038402Y-84804009D01*
X118038401Y-84804009D01*
X118056865Y-84805827D01*
X118244336Y-84824292D01*
X118450270Y-84804009D01*
X118648290Y-84743941D01*
X118830786Y-84646394D01*
X118990746Y-84515119D01*
X119122021Y-84355159D01*
X119219568Y-84172663D01*
X119279636Y-83974643D01*
X119299919Y-83768709D01*
X119279636Y-83562775D01*
X119219568Y-83364755D01*
X119122021Y-83182259D01*
X118998963Y-83032311D01*
X118990746Y-83022298D01*
X118840457Y-82898961D01*
X118830786Y-82891024D01*
X118648290Y-82793477D01*
X118450270Y-82733409D01*
X118450268Y-82733408D01*
X118450270Y-82733408D01*
X118262799Y-82714944D01*
X118244336Y-82713126D01*
X118244335Y-82713126D01*
X118038403Y-82733408D01*
X117904072Y-82774157D01*
X117844266Y-82792299D01*
X117840379Y-82793478D01*
X117752450Y-82840478D01*
X117657886Y-82891024D01*
X117657884Y-82891025D01*
X117657883Y-82891026D01*
X117497925Y-83022298D01*
X117366653Y-83182256D01*
X117366651Y-83182259D01*
X117327979Y-83254606D01*
X117269105Y-83364752D01*
X117209035Y-83562776D01*
X117188753Y-83768708D01*
X116754836Y-83768708D01*
X116754836Y-82898958D01*
X116754835Y-82898956D01*
X116743204Y-82840479D01*
X116743203Y-82840478D01*
X116698888Y-82774156D01*
X116632566Y-82729841D01*
X116632565Y-82729840D01*
X116574088Y-82718209D01*
X116574084Y-82718209D01*
X114834588Y-82718209D01*
X114834583Y-82718209D01*
X114776106Y-82729840D01*
X114776105Y-82729841D01*
X114709783Y-82774156D01*
X114665468Y-82840478D01*
X114665467Y-82840479D01*
X114653836Y-82898956D01*
X114653836Y-84638461D01*
X113760452Y-84638461D01*
X113910746Y-84515119D01*
X114042021Y-84355159D01*
X114139568Y-84172663D01*
X114199636Y-83974643D01*
X114219919Y-83768709D01*
X114199636Y-83562775D01*
X114139568Y-83364755D01*
X114042021Y-83182259D01*
X113918963Y-83032311D01*
X113910746Y-83022298D01*
X113760457Y-82898961D01*
X113750786Y-82891024D01*
X113568290Y-82793477D01*
X113370270Y-82733409D01*
X113370268Y-82733408D01*
X113370270Y-82733408D01*
X113182799Y-82714944D01*
X113164336Y-82713126D01*
X113164335Y-82713126D01*
X112958403Y-82733408D01*
X112824072Y-82774157D01*
X112764266Y-82792299D01*
X112760379Y-82793478D01*
X112672450Y-82840478D01*
X112577886Y-82891024D01*
X112577884Y-82891025D01*
X112577883Y-82891026D01*
X112417925Y-83022298D01*
X112286653Y-83182256D01*
X112286651Y-83182259D01*
X112258958Y-83234067D01*
X112189103Y-83364755D01*
X112178660Y-83399183D01*
X112140363Y-83457621D01*
X112076550Y-83486078D01*
X112007483Y-83475517D01*
X111955090Y-83429292D01*
X111936000Y-83363187D01*
X111936000Y-82166991D01*
X111935999Y-77231294D01*
X111955684Y-77164259D01*
X111984507Y-77132928D01*
X112038782Y-77091282D01*
X112135036Y-76965841D01*
X112195544Y-76819762D01*
X112216182Y-76663000D01*
X112216116Y-76662501D01*
X112200036Y-76540360D01*
X112195544Y-76506238D01*
X112135036Y-76360159D01*
X112038782Y-76234718D01*
X111944372Y-76162275D01*
X111903171Y-76105848D01*
X111899016Y-76036102D01*
X111933229Y-75975181D01*
X111994946Y-75942429D01*
X112019860Y-75939900D01*
X114696311Y-75939900D01*
X114763350Y-75959585D01*
X114783992Y-75976219D01*
X115124833Y-76317060D01*
X115158318Y-76378383D01*
X115160092Y-76420922D01*
X115158318Y-76434400D01*
X115158318Y-76434401D01*
X115178955Y-76591160D01*
X115178956Y-76591162D01*
X115238652Y-76735282D01*
X115239464Y-76737241D01*
X115335718Y-76862682D01*
X115461159Y-76958936D01*
X115607238Y-77019444D01*
X115685619Y-77029763D01*
X115763999Y-77040082D01*
X115764000Y-77040082D01*
X115764001Y-77040082D01*
X115816254Y-77033202D01*
X115920762Y-77019444D01*
X116066841Y-76958936D01*
X116192282Y-76862682D01*
X116288536Y-76737241D01*
X116349044Y-76591162D01*
X116369682Y-76434400D01*
X116349044Y-76277638D01*
X116331058Y-76234216D01*
X116319517Y-76206352D01*
X116312048Y-76136883D01*
X116343324Y-76074404D01*
X116403413Y-76038752D01*
X116434078Y-76034900D01*
X118434212Y-76034900D01*
X118501251Y-76054585D01*
X118521893Y-76071219D01*
X118840388Y-76389714D01*
X118873873Y-76451037D01*
X118875646Y-76493579D01*
X118866718Y-76561397D01*
X118866718Y-76561401D01*
X118887355Y-76718160D01*
X118887356Y-76718162D01*
X118910013Y-76772862D01*
X118947864Y-76864241D01*
X119044118Y-76989682D01*
X119169559Y-77085936D01*
X119315638Y-77146444D01*
X119343948Y-77150171D01*
X119472399Y-77167082D01*
X119472400Y-77167082D01*
X119472401Y-77167082D01*
X119508108Y-77162380D01*
X119540218Y-77158153D01*
X119609253Y-77168918D01*
X119644085Y-77193411D01*
X120181435Y-77730761D01*
X120214920Y-77792084D01*
X120217754Y-77818442D01*
X120217754Y-104870705D01*
X120217518Y-104876112D01*
X120213989Y-104916435D01*
X120224466Y-104955537D01*
X120225637Y-104960817D01*
X120232665Y-105000670D01*
X120234489Y-105005682D01*
X120241451Y-105022488D01*
X120243699Y-105027308D01*
X120243700Y-105027311D01*
X120257706Y-105047314D01*
X120266909Y-105060458D01*
X120269815Y-105065019D01*
X120290060Y-105100082D01*
X120321069Y-105126102D01*
X120325059Y-105129758D01*
X123593014Y-108397713D01*
X123626499Y-108459036D01*
X123621515Y-108528728D01*
X123619899Y-108532835D01*
X123619107Y-108534747D01*
X123619105Y-108534752D01*
X123619104Y-108534755D01*
X123591989Y-108624139D01*
X123559035Y-108732776D01*
X123538753Y-108938709D01*
X123559035Y-109144641D01*
X123559036Y-109144643D01*
X123619104Y-109342663D01*
X123716651Y-109525159D01*
X123716653Y-109525161D01*
X123847925Y-109685119D01*
X123944545Y-109764411D01*
X124007886Y-109816394D01*
X124190382Y-109913941D01*
X124388402Y-109974009D01*
X124388401Y-109974009D01*
X124408683Y-109976006D01*
X124594336Y-109994292D01*
X124800270Y-109974009D01*
X124998290Y-109913941D01*
X125180786Y-109816394D01*
X125340746Y-109685119D01*
X125472021Y-109525159D01*
X125569568Y-109342663D01*
X125629636Y-109144643D01*
X125649919Y-108938709D01*
X125629636Y-108732775D01*
X125569568Y-108534755D01*
X125472021Y-108352259D01*
X125420038Y-108288918D01*
X125340746Y-108192298D01*
X125180788Y-108061026D01*
X125180789Y-108061026D01*
X125180786Y-108061024D01*
X124998290Y-107963477D01*
X124800270Y-107903409D01*
X124800268Y-107903408D01*
X124800270Y-107903408D01*
X124594336Y-107883126D01*
X124388403Y-107903408D01*
X124279766Y-107936362D01*
X124190382Y-107963477D01*
X124190379Y-107963478D01*
X124190374Y-107963480D01*
X124188462Y-107964272D01*
X124187381Y-107964388D01*
X124184553Y-107965246D01*
X124184390Y-107964709D01*
X124118992Y-107971733D01*
X124056516Y-107940452D01*
X124053340Y-107937387D01*
X120905072Y-104789119D01*
X120871587Y-104727796D01*
X120868754Y-104701447D01*
X120868754Y-103432815D01*
X120888439Y-103365775D01*
X120941243Y-103320021D01*
X121010401Y-103310077D01*
X121073957Y-103339102D01*
X121080435Y-103345134D01*
X123593014Y-105857714D01*
X123626499Y-105919037D01*
X123621515Y-105988729D01*
X123619897Y-105992841D01*
X123619106Y-105994750D01*
X123559035Y-106192776D01*
X123538753Y-106398708D01*
X123559035Y-106604641D01*
X123559036Y-106604643D01*
X123619104Y-106802663D01*
X123716651Y-106985159D01*
X123716653Y-106985161D01*
X123847925Y-107145119D01*
X123944545Y-107224411D01*
X124007886Y-107276394D01*
X124190382Y-107373941D01*
X124388402Y-107434009D01*
X124388401Y-107434009D01*
X124408683Y-107436006D01*
X124594336Y-107454292D01*
X124800270Y-107434009D01*
X124998290Y-107373941D01*
X125180786Y-107276394D01*
X125340746Y-107145119D01*
X125472021Y-106985159D01*
X125569568Y-106802663D01*
X125629636Y-106604643D01*
X125649919Y-106398709D01*
X125629636Y-106192775D01*
X125569568Y-105994755D01*
X125472021Y-105812259D01*
X125420038Y-105748918D01*
X125340746Y-105652298D01*
X125180788Y-105521026D01*
X125180789Y-105521026D01*
X125180786Y-105521024D01*
X124998290Y-105423477D01*
X124800270Y-105363409D01*
X124800268Y-105363408D01*
X124800270Y-105363408D01*
X124594336Y-105343126D01*
X124388403Y-105363408D01*
X124276390Y-105397387D01*
X124190382Y-105423477D01*
X124190379Y-105423478D01*
X124190377Y-105423479D01*
X124188468Y-105424270D01*
X124187387Y-105424386D01*
X124184553Y-105425246D01*
X124184389Y-105424708D01*
X124118998Y-105431735D01*
X124056521Y-105400456D01*
X124053341Y-105397387D01*
X121355072Y-102699119D01*
X121321587Y-102637796D01*
X121318753Y-102611438D01*
X121318753Y-101864993D01*
X121318753Y-101342811D01*
X121338438Y-101275775D01*
X121391242Y-101230020D01*
X121460400Y-101220076D01*
X121523956Y-101249101D01*
X121530434Y-101255133D01*
X123593014Y-103317713D01*
X123626499Y-103379036D01*
X123621515Y-103448728D01*
X123619899Y-103452835D01*
X123619107Y-103454747D01*
X123619105Y-103454752D01*
X123619104Y-103454755D01*
X123591989Y-103544139D01*
X123559035Y-103652776D01*
X123538753Y-103858709D01*
X123559035Y-104064641D01*
X123559036Y-104064643D01*
X123619104Y-104262663D01*
X123716651Y-104445159D01*
X123716653Y-104445161D01*
X123847925Y-104605119D01*
X123944545Y-104684411D01*
X124007886Y-104736394D01*
X124190382Y-104833941D01*
X124388402Y-104894009D01*
X124388401Y-104894009D01*
X124408683Y-104896006D01*
X124594336Y-104914292D01*
X124800270Y-104894009D01*
X124998290Y-104833941D01*
X125180786Y-104736394D01*
X125340746Y-104605119D01*
X125472021Y-104445159D01*
X125569568Y-104262663D01*
X125629636Y-104064643D01*
X125649919Y-103858709D01*
X125629636Y-103652775D01*
X125569568Y-103454755D01*
X125472021Y-103272259D01*
X125358107Y-103133453D01*
X125340746Y-103112298D01*
X125180788Y-102981026D01*
X125180789Y-102981026D01*
X125180786Y-102981024D01*
X124998290Y-102883477D01*
X124800270Y-102823409D01*
X124800268Y-102823408D01*
X124800270Y-102823408D01*
X124612799Y-102804944D01*
X124594336Y-102803126D01*
X124594335Y-102803126D01*
X124388403Y-102823408D01*
X124279766Y-102856362D01*
X124190382Y-102883477D01*
X124190379Y-102883478D01*
X124190374Y-102883480D01*
X124188462Y-102884272D01*
X124187381Y-102884388D01*
X124184553Y-102885246D01*
X124184390Y-102884709D01*
X124118992Y-102891733D01*
X124056516Y-102860452D01*
X124053340Y-102857387D01*
X123776843Y-102580890D01*
X123743358Y-102519567D01*
X123748342Y-102449875D01*
X123790214Y-102393942D01*
X123855678Y-102369525D01*
X123864524Y-102369209D01*
X125464086Y-102369209D01*
X125464087Y-102369208D01*
X125478904Y-102366261D01*
X125522565Y-102357577D01*
X125522565Y-102357576D01*
X125522567Y-102357576D01*
X125588888Y-102313261D01*
X125633203Y-102246940D01*
X125633203Y-102246938D01*
X125633204Y-102246938D01*
X125644835Y-102188461D01*
X125644836Y-102188459D01*
X125644836Y-100448958D01*
X125644835Y-100448956D01*
X125633204Y-100390479D01*
X125633203Y-100390478D01*
X125588888Y-100324156D01*
X125522566Y-100279841D01*
X125522565Y-100279840D01*
X125464088Y-100268209D01*
X125464084Y-100268209D01*
X123724588Y-100268209D01*
X123724583Y-100268209D01*
X123666106Y-100279840D01*
X123666105Y-100279841D01*
X123599783Y-100324156D01*
X123555468Y-100390478D01*
X123555467Y-100390479D01*
X123543836Y-100448956D01*
X123543836Y-102048521D01*
X123524151Y-102115560D01*
X123471347Y-102161315D01*
X123402189Y-102171259D01*
X123338633Y-102142234D01*
X123332155Y-102136202D01*
X121805073Y-100609120D01*
X121771588Y-100547797D01*
X121768754Y-100521439D01*
X121768754Y-98778709D01*
X123538753Y-98778709D01*
X123559035Y-98984641D01*
X123559036Y-98984643D01*
X123619104Y-99182663D01*
X123716651Y-99365159D01*
X123716653Y-99365161D01*
X123847925Y-99525119D01*
X123944545Y-99604411D01*
X124007886Y-99656394D01*
X124190382Y-99753941D01*
X124388402Y-99814009D01*
X124388401Y-99814009D01*
X124406865Y-99815827D01*
X124594336Y-99834292D01*
X124800270Y-99814009D01*
X124998290Y-99753941D01*
X125180786Y-99656394D01*
X125340746Y-99525119D01*
X125472021Y-99365159D01*
X125569568Y-99182663D01*
X125629636Y-98984643D01*
X125649919Y-98778709D01*
X125629636Y-98572775D01*
X125569568Y-98374755D01*
X125472021Y-98192259D01*
X125420038Y-98128918D01*
X125340746Y-98032298D01*
X125180788Y-97901026D01*
X125180789Y-97901026D01*
X125180786Y-97901024D01*
X124998290Y-97803477D01*
X124800270Y-97743409D01*
X124800268Y-97743408D01*
X124800270Y-97743408D01*
X124594336Y-97723126D01*
X124388403Y-97743408D01*
X124190379Y-97803478D01*
X124080233Y-97862352D01*
X124007886Y-97901024D01*
X124007884Y-97901025D01*
X124007883Y-97901026D01*
X123847925Y-98032298D01*
X123716653Y-98192256D01*
X123619105Y-98374752D01*
X123559035Y-98572776D01*
X123538753Y-98778709D01*
X121768754Y-98778709D01*
X121768754Y-96238709D01*
X123538753Y-96238709D01*
X123559035Y-96444641D01*
X123559036Y-96444643D01*
X123619104Y-96642663D01*
X123716651Y-96825159D01*
X123716653Y-96825161D01*
X123847925Y-96985119D01*
X123944545Y-97064411D01*
X124007886Y-97116394D01*
X124190382Y-97213941D01*
X124388402Y-97274009D01*
X124388401Y-97274009D01*
X124408683Y-97276006D01*
X124594336Y-97294292D01*
X124800270Y-97274009D01*
X124998290Y-97213941D01*
X125180786Y-97116394D01*
X125340746Y-96985119D01*
X125472021Y-96825159D01*
X125569568Y-96642663D01*
X125629636Y-96444643D01*
X125649919Y-96238709D01*
X125629636Y-96032775D01*
X125569568Y-95834755D01*
X125472021Y-95652259D01*
X125420038Y-95588918D01*
X125340746Y-95492298D01*
X125180788Y-95361026D01*
X125180789Y-95361026D01*
X125180786Y-95361024D01*
X124998290Y-95263477D01*
X124800270Y-95203409D01*
X124800268Y-95203408D01*
X124800270Y-95203408D01*
X124594336Y-95183126D01*
X124388403Y-95203408D01*
X124190379Y-95263478D01*
X124098130Y-95312787D01*
X124007886Y-95361024D01*
X124007884Y-95361025D01*
X124007883Y-95361026D01*
X123847925Y-95492298D01*
X123716653Y-95652256D01*
X123619105Y-95834752D01*
X123559035Y-96032776D01*
X123538753Y-96238709D01*
X121768754Y-96238709D01*
X121768754Y-93698708D01*
X123538753Y-93698708D01*
X123559035Y-93904641D01*
X123559036Y-93904643D01*
X123619104Y-94102663D01*
X123716651Y-94285159D01*
X123716653Y-94285161D01*
X123847925Y-94445119D01*
X123944545Y-94524411D01*
X124007886Y-94576394D01*
X124190382Y-94673941D01*
X124388402Y-94734009D01*
X124388401Y-94734009D01*
X124408683Y-94736006D01*
X124594336Y-94754292D01*
X124800270Y-94734009D01*
X124998290Y-94673941D01*
X125180786Y-94576394D01*
X125340746Y-94445119D01*
X125472021Y-94285159D01*
X125569568Y-94102663D01*
X125629636Y-93904643D01*
X125649919Y-93698709D01*
X125629636Y-93492775D01*
X125569568Y-93294755D01*
X125472021Y-93112259D01*
X125420038Y-93048918D01*
X125340746Y-92952298D01*
X125180788Y-92821026D01*
X125180789Y-92821026D01*
X125180786Y-92821024D01*
X124998290Y-92723477D01*
X124800270Y-92663409D01*
X124800268Y-92663408D01*
X124800270Y-92663408D01*
X124612799Y-92644944D01*
X124594336Y-92643126D01*
X124594335Y-92643126D01*
X124388403Y-92663408D01*
X124190379Y-92723478D01*
X124080233Y-92782352D01*
X124007886Y-92821024D01*
X124007884Y-92821025D01*
X124007883Y-92821026D01*
X123847925Y-92952298D01*
X123716653Y-93112256D01*
X123619105Y-93294752D01*
X123559035Y-93492776D01*
X123538753Y-93698708D01*
X121768754Y-93698708D01*
X121768754Y-89516553D01*
X123244336Y-89516553D01*
X123250737Y-89576081D01*
X123250739Y-89576088D01*
X123300981Y-89710795D01*
X123300985Y-89710802D01*
X123387145Y-89825896D01*
X123387148Y-89825899D01*
X123502242Y-89912059D01*
X123502249Y-89912063D01*
X123636956Y-89962305D01*
X123636963Y-89962307D01*
X123696491Y-89968708D01*
X123696508Y-89968709D01*
X124097149Y-89968709D01*
X124164188Y-89988394D01*
X124209943Y-90041198D01*
X124219887Y-90110356D01*
X124190862Y-90173912D01*
X124155603Y-90202066D01*
X124007886Y-90281024D01*
X124007884Y-90281025D01*
X124007883Y-90281026D01*
X123847925Y-90412298D01*
X123716653Y-90572256D01*
X123619105Y-90754752D01*
X123559035Y-90952776D01*
X123538753Y-91158709D01*
X123559035Y-91364641D01*
X123559036Y-91364643D01*
X123619104Y-91562663D01*
X123716651Y-91745159D01*
X123716653Y-91745161D01*
X123847925Y-91905119D01*
X123944545Y-91984411D01*
X124007886Y-92036394D01*
X124190382Y-92133941D01*
X124388402Y-92194009D01*
X124388401Y-92194009D01*
X124406865Y-92195827D01*
X124594336Y-92214292D01*
X124800270Y-92194009D01*
X124998290Y-92133941D01*
X125180786Y-92036394D01*
X125340746Y-91905119D01*
X125472021Y-91745159D01*
X125569568Y-91562663D01*
X125629636Y-91364643D01*
X125649919Y-91158709D01*
X125629636Y-90952775D01*
X125569568Y-90754755D01*
X125472021Y-90572259D01*
X125420038Y-90508918D01*
X125340746Y-90412298D01*
X125180788Y-90281026D01*
X125180789Y-90281026D01*
X125180786Y-90281024D01*
X125033068Y-90202066D01*
X124983225Y-90153104D01*
X124967765Y-90084966D01*
X124991597Y-90019287D01*
X125047155Y-89976918D01*
X125091523Y-89968709D01*
X125492164Y-89968709D01*
X125492180Y-89968708D01*
X125551708Y-89962307D01*
X125551715Y-89962305D01*
X125686422Y-89912063D01*
X125686429Y-89912059D01*
X125801523Y-89825899D01*
X125801526Y-89825896D01*
X125887686Y-89710802D01*
X125887690Y-89710795D01*
X125937932Y-89576088D01*
X125937934Y-89576081D01*
X125944335Y-89516553D01*
X125944336Y-89516536D01*
X125944336Y-88868709D01*
X125039908Y-88868709D01*
X125063018Y-88832749D01*
X125104336Y-88692036D01*
X125104336Y-88545382D01*
X125063018Y-88404669D01*
X125039908Y-88368709D01*
X125944336Y-88368709D01*
X125944336Y-87720881D01*
X125944335Y-87720864D01*
X125937934Y-87661336D01*
X125937932Y-87661329D01*
X125887690Y-87526622D01*
X125887686Y-87526615D01*
X125801526Y-87411521D01*
X125801523Y-87411518D01*
X125686429Y-87325358D01*
X125686422Y-87325354D01*
X125551715Y-87275112D01*
X125551708Y-87275110D01*
X125492180Y-87268709D01*
X125091523Y-87268709D01*
X125024484Y-87249024D01*
X124978729Y-87196220D01*
X124968785Y-87127062D01*
X124997810Y-87063506D01*
X125033069Y-87035351D01*
X125038925Y-87032221D01*
X125180786Y-86956394D01*
X125340746Y-86825119D01*
X125472021Y-86665159D01*
X125569568Y-86482663D01*
X125629636Y-86284643D01*
X125649919Y-86078709D01*
X125629636Y-85872775D01*
X125569568Y-85674755D01*
X125472021Y-85492259D01*
X125375551Y-85374709D01*
X125340746Y-85332298D01*
X125180788Y-85201026D01*
X125180789Y-85201026D01*
X125180786Y-85201024D01*
X124998290Y-85103477D01*
X124800270Y-85043409D01*
X124800268Y-85043408D01*
X124800270Y-85043408D01*
X124612799Y-85024944D01*
X124594336Y-85023126D01*
X124594335Y-85023126D01*
X124388403Y-85043408D01*
X124190379Y-85103478D01*
X124080233Y-85162352D01*
X124007886Y-85201024D01*
X124007884Y-85201025D01*
X124007883Y-85201026D01*
X123847925Y-85332298D01*
X123716653Y-85492256D01*
X123619105Y-85674752D01*
X123559035Y-85872776D01*
X123538753Y-86078709D01*
X123559035Y-86284641D01*
X123579239Y-86351245D01*
X123619104Y-86482663D01*
X123716651Y-86665159D01*
X123716653Y-86665161D01*
X123847925Y-86825119D01*
X123944545Y-86904411D01*
X124007886Y-86956394D01*
X124149747Y-87032221D01*
X124155603Y-87035351D01*
X124205447Y-87084314D01*
X124220907Y-87152452D01*
X124197075Y-87218131D01*
X124141517Y-87260500D01*
X124097149Y-87268709D01*
X123696491Y-87268709D01*
X123636963Y-87275110D01*
X123636956Y-87275112D01*
X123502249Y-87325354D01*
X123502242Y-87325358D01*
X123387148Y-87411518D01*
X123387145Y-87411521D01*
X123300985Y-87526615D01*
X123300981Y-87526622D01*
X123250739Y-87661329D01*
X123250737Y-87661336D01*
X123244336Y-87720864D01*
X123244336Y-88368709D01*
X124148764Y-88368709D01*
X124125654Y-88404669D01*
X124084336Y-88545382D01*
X124084336Y-88692036D01*
X124125654Y-88832749D01*
X124148764Y-88868709D01*
X123244336Y-88868709D01*
X123244336Y-89516553D01*
X121768754Y-89516553D01*
X121768754Y-83538708D01*
X123538753Y-83538708D01*
X123559035Y-83744641D01*
X123559036Y-83744643D01*
X123619104Y-83942663D01*
X123716651Y-84125159D01*
X123716653Y-84125161D01*
X123847925Y-84285119D01*
X123933270Y-84355159D01*
X124007886Y-84416394D01*
X124190382Y-84513941D01*
X124388402Y-84574009D01*
X124388401Y-84574009D01*
X124408683Y-84576006D01*
X124594336Y-84594292D01*
X124800270Y-84574009D01*
X124998290Y-84513941D01*
X125180786Y-84416394D01*
X125340746Y-84285119D01*
X125472021Y-84125159D01*
X125569568Y-83942663D01*
X125629636Y-83744643D01*
X125649919Y-83538709D01*
X125629636Y-83332775D01*
X125569568Y-83134755D01*
X125472021Y-82952259D01*
X125380286Y-82840479D01*
X125340746Y-82792298D01*
X125180788Y-82661026D01*
X125180789Y-82661026D01*
X125180786Y-82661024D01*
X124998290Y-82563477D01*
X124800270Y-82503409D01*
X124800268Y-82503408D01*
X124800270Y-82503408D01*
X124594336Y-82483126D01*
X124388403Y-82503408D01*
X124190379Y-82563478D01*
X124086202Y-82619163D01*
X124007886Y-82661024D01*
X124007884Y-82661025D01*
X124007883Y-82661026D01*
X123847925Y-82792298D01*
X123716653Y-82952256D01*
X123619105Y-83134752D01*
X123559035Y-83332776D01*
X123538753Y-83538708D01*
X121768754Y-83538708D01*
X121768754Y-77342133D01*
X121788439Y-77275094D01*
X121805069Y-77254456D01*
X122043914Y-77015610D01*
X122105237Y-76982126D01*
X122147781Y-76980353D01*
X122215599Y-76989282D01*
X122215600Y-76989282D01*
X122215601Y-76989282D01*
X122267853Y-76982402D01*
X122372362Y-76968644D01*
X122518441Y-76908136D01*
X122643882Y-76811882D01*
X122740136Y-76686441D01*
X122800644Y-76540362D01*
X122814852Y-76432439D01*
X122821282Y-76383601D01*
X122821282Y-76383598D01*
X122801681Y-76234718D01*
X122800644Y-76226838D01*
X122740136Y-76080759D01*
X122643882Y-75955318D01*
X122518441Y-75859064D01*
X122506500Y-75854118D01*
X122372362Y-75798556D01*
X122372360Y-75798555D01*
X122215601Y-75777918D01*
X122215599Y-75777918D01*
X122058839Y-75798555D01*
X122058837Y-75798556D01*
X121912760Y-75859063D01*
X121787318Y-75955318D01*
X121691063Y-76080760D01*
X121630556Y-76226837D01*
X121630556Y-76226838D01*
X121622071Y-76291287D01*
X121593804Y-76355183D01*
X121535480Y-76393654D01*
X121465615Y-76394485D01*
X121406392Y-76357413D01*
X121379357Y-76307192D01*
X121378244Y-76303040D01*
X121378244Y-76303038D01*
X121317736Y-76156959D01*
X121221482Y-76031518D01*
X121096041Y-75935264D01*
X121056397Y-75918843D01*
X120949962Y-75874756D01*
X120949960Y-75874755D01*
X120793201Y-75854118D01*
X120793199Y-75854118D01*
X120636439Y-75874755D01*
X120636437Y-75874756D01*
X120490360Y-75935263D01*
X120364918Y-76031518D01*
X120268664Y-76156959D01*
X120226318Y-76259190D01*
X120182476Y-76313593D01*
X120116182Y-76335657D01*
X120048483Y-76318377D01*
X120000873Y-76267240D01*
X119997192Y-76259178D01*
X119996936Y-76258559D01*
X119900682Y-76133118D01*
X119775241Y-76036864D01*
X119773401Y-76036102D01*
X119629162Y-75976356D01*
X119629160Y-75976355D01*
X119472401Y-75955718D01*
X119472397Y-75955718D01*
X119404579Y-75964646D01*
X119335544Y-75953880D01*
X119300714Y-75929388D01*
X119097340Y-75726014D01*
X118862519Y-75491193D01*
X118858874Y-75487214D01*
X118832856Y-75456207D01*
X118832855Y-75456206D01*
X118821458Y-75449626D01*
X118797792Y-75435961D01*
X118793231Y-75433055D01*
X118780087Y-75423852D01*
X118760084Y-75409846D01*
X118760081Y-75409845D01*
X118755261Y-75407597D01*
X118738455Y-75400635D01*
X118733443Y-75398811D01*
X118693590Y-75391783D01*
X118688310Y-75390612D01*
X118649208Y-75380135D01*
X118614292Y-75383190D01*
X118608881Y-75383664D01*
X118603478Y-75383900D01*
X116260781Y-75383900D01*
X116193742Y-75364215D01*
X116147987Y-75311411D01*
X116138043Y-75242253D01*
X116162403Y-75184416D01*
X116237736Y-75086241D01*
X116298244Y-74940162D01*
X116312293Y-74833452D01*
X116318882Y-74783401D01*
X116318882Y-74783398D01*
X116305123Y-74678892D01*
X116298244Y-74626638D01*
X116237736Y-74480559D01*
X116141482Y-74355118D01*
X116016041Y-74258864D01*
X115869962Y-74198356D01*
X115869960Y-74198355D01*
X115713201Y-74177718D01*
X115713197Y-74177718D01*
X115645379Y-74186646D01*
X115576344Y-74175880D01*
X115541514Y-74151388D01*
X115541513Y-74151387D01*
X115269519Y-73879393D01*
X115265874Y-73875414D01*
X115239856Y-73844407D01*
X115239855Y-73844406D01*
X115228458Y-73837826D01*
X115204792Y-73824161D01*
X115200231Y-73821255D01*
X115187087Y-73812052D01*
X115167084Y-73798046D01*
X115167081Y-73798045D01*
X115162261Y-73795797D01*
X115145455Y-73788835D01*
X115140443Y-73787011D01*
X115100590Y-73779983D01*
X115095310Y-73778812D01*
X115056208Y-73768335D01*
X115021292Y-73771390D01*
X115015881Y-73771864D01*
X115010478Y-73772100D01*
X107737709Y-73772100D01*
X107732305Y-73771864D01*
X107726974Y-73771397D01*
X107691990Y-73768336D01*
X107652903Y-73778810D01*
X107647623Y-73779981D01*
X107607755Y-73787011D01*
X107602781Y-73788821D01*
X107585916Y-73795807D01*
X107581111Y-73798047D01*
X107547960Y-73821259D01*
X107543401Y-73824163D01*
X107508343Y-73844405D01*
X107482321Y-73875415D01*
X107478667Y-73879403D01*
X106656283Y-74701787D01*
X106594960Y-74735272D01*
X106552417Y-74737045D01*
X106484600Y-74728117D01*
X106484598Y-74728117D01*
X106327838Y-74748754D01*
X106327836Y-74748755D01*
X106181759Y-74809262D01*
X106056317Y-74905517D01*
X105960062Y-75030959D01*
X105899555Y-75177036D01*
X105899554Y-75177038D01*
X105878917Y-75333797D01*
X105878917Y-75333800D01*
X105899554Y-75490559D01*
X105899555Y-75490561D01*
X105960063Y-75636640D01*
X106056317Y-75762081D01*
X106181758Y-75858335D01*
X106327837Y-75918843D01*
X106406217Y-75929161D01*
X106484598Y-75939481D01*
X106484599Y-75939481D01*
X106484600Y-75939481D01*
X106561263Y-75929388D01*
X106641361Y-75918843D01*
X106787440Y-75858335D01*
X106842913Y-75815768D01*
X106908079Y-75790575D01*
X106976524Y-75804613D01*
X107016772Y-75838656D01*
X107048793Y-75880387D01*
X107174234Y-75976641D01*
X107320313Y-76037149D01*
X107398694Y-76047468D01*
X107477074Y-76057787D01*
X107477075Y-76057787D01*
X107477076Y-76057787D01*
X107516265Y-76052627D01*
X107633837Y-76037149D01*
X107697068Y-76010957D01*
X107766533Y-76003489D01*
X107829013Y-76034763D01*
X107864666Y-76094852D01*
X107868518Y-76125519D01*
X107868518Y-76129601D01*
X107889155Y-76286360D01*
X107889156Y-76286362D01*
X107938147Y-76404638D01*
X107949664Y-76432441D01*
X108045918Y-76557882D01*
X108171359Y-76654136D01*
X108317438Y-76714644D01*
X108395818Y-76724963D01*
X108474199Y-76735282D01*
X108474200Y-76735282D01*
X108474201Y-76735282D01*
X108526454Y-76728402D01*
X108630962Y-76714644D01*
X108777041Y-76654136D01*
X108902482Y-76557882D01*
X108998736Y-76432441D01*
X109059244Y-76286362D01*
X109079882Y-76129600D01*
X109073363Y-76080085D01*
X109084128Y-76011051D01*
X109130508Y-75958795D01*
X109196302Y-75939900D01*
X109588189Y-75939900D01*
X109655228Y-75959585D01*
X109700983Y-76012389D01*
X109710927Y-76081547D01*
X109681902Y-76145103D01*
X109663675Y-76162276D01*
X109569919Y-76234216D01*
X109473663Y-76359660D01*
X109413156Y-76505737D01*
X109413155Y-76505739D01*
X109392518Y-76662498D01*
X109392518Y-76662501D01*
X109413155Y-76819260D01*
X109413156Y-76819262D01*
X109473664Y-76965341D01*
X109569918Y-77090782D01*
X109695359Y-77187036D01*
X109841438Y-77247544D01*
X109869748Y-77251271D01*
X109998199Y-77268182D01*
X109998200Y-77268182D01*
X109998201Y-77268182D01*
X110033908Y-77263480D01*
X110066018Y-77259253D01*
X110135053Y-77270018D01*
X110169885Y-77294511D01*
X110529435Y-77654061D01*
X110562920Y-77715384D01*
X110565754Y-77741742D01*
X110565754Y-85230660D01*
X110546069Y-85297699D01*
X110517241Y-85329035D01*
X110457720Y-85374707D01*
X110361463Y-85500151D01*
X110300956Y-85646228D01*
X110300955Y-85646230D01*
X110280318Y-85802989D01*
X110280318Y-85802992D01*
X110300955Y-85959751D01*
X110300956Y-85959753D01*
X110361464Y-86105832D01*
X110457718Y-86231273D01*
X110583159Y-86327527D01*
X110729238Y-86388035D01*
X110807619Y-86398353D01*
X110885999Y-86408673D01*
X110886000Y-86408673D01*
X110886001Y-86408673D01*
X110938253Y-86401793D01*
X111042762Y-86388035D01*
X111113549Y-86358713D01*
X111183016Y-86351245D01*
X111245495Y-86382520D01*
X111281148Y-86442608D01*
X111285000Y-86473275D01*
X111285000Y-101777312D01*
X111265315Y-101844351D01*
X111212511Y-101890106D01*
X111143353Y-101900050D01*
X111079797Y-101871025D01*
X111073319Y-101864993D01*
X109221073Y-100012747D01*
X109187588Y-99951424D01*
X109184754Y-99925066D01*
X109184754Y-94245289D01*
X109204439Y-94178250D01*
X109233264Y-94146916D01*
X109287536Y-94105273D01*
X109383790Y-93979832D01*
X109444298Y-93833753D01*
X109464936Y-93676991D01*
X109444298Y-93520229D01*
X109383790Y-93374150D01*
X109287536Y-93248709D01*
X109162095Y-93152455D01*
X109065053Y-93112259D01*
X109016016Y-93091947D01*
X109016014Y-93091946D01*
X108859255Y-93071309D01*
X108859253Y-93071309D01*
X108702493Y-93091946D01*
X108702491Y-93091947D01*
X108556414Y-93152454D01*
X108430972Y-93248709D01*
X108334717Y-93374151D01*
X108274210Y-93520228D01*
X108274209Y-93520230D01*
X108253572Y-93676989D01*
X108253572Y-93676992D01*
X108274209Y-93833751D01*
X108274210Y-93833753D01*
X108334718Y-93979832D01*
X108430972Y-94105273D01*
X108485241Y-94146915D01*
X108526443Y-94203340D01*
X108533754Y-94245289D01*
X108533754Y-94316025D01*
X108514069Y-94383064D01*
X108461265Y-94428819D01*
X108392107Y-94438763D01*
X108362301Y-94430586D01*
X108248925Y-94383624D01*
X108248923Y-94383623D01*
X108092164Y-94362986D01*
X108092162Y-94362986D01*
X107935402Y-94383623D01*
X107935397Y-94383625D01*
X107875392Y-94408480D01*
X107805923Y-94415949D01*
X107743444Y-94384673D01*
X107707792Y-94324584D01*
X107710286Y-94254759D01*
X107718576Y-94235476D01*
X107789568Y-94102663D01*
X107849636Y-93904643D01*
X107869919Y-93698709D01*
X107849636Y-93492775D01*
X107789568Y-93294755D01*
X107692021Y-93112259D01*
X107640038Y-93048918D01*
X107560746Y-92952298D01*
X107400788Y-92821026D01*
X107400789Y-92821026D01*
X107400786Y-92821024D01*
X107218290Y-92723477D01*
X107020270Y-92663409D01*
X107020268Y-92663408D01*
X107020270Y-92663408D01*
X106814336Y-92643126D01*
X106608403Y-92663408D01*
X106410379Y-92723478D01*
X106300233Y-92782352D01*
X106227886Y-92821024D01*
X106227884Y-92821025D01*
X106227883Y-92821026D01*
X106067925Y-92952298D01*
X105936653Y-93112256D01*
X105839105Y-93294752D01*
X105779035Y-93492776D01*
X105758753Y-93698709D01*
X105779035Y-93904641D01*
X105779036Y-93904643D01*
X105839104Y-94102663D01*
X105936651Y-94285159D01*
X105936653Y-94285161D01*
X106067925Y-94445119D01*
X106164545Y-94524411D01*
X106227886Y-94576394D01*
X106410382Y-94673941D01*
X106608402Y-94734009D01*
X106608401Y-94734009D01*
X106626865Y-94735827D01*
X106814336Y-94754292D01*
X107020270Y-94734009D01*
X107218290Y-94673941D01*
X107357015Y-94599790D01*
X107425413Y-94585549D01*
X107490657Y-94610548D01*
X107532028Y-94666853D01*
X107536391Y-94736586D01*
X107530027Y-94756600D01*
X107507119Y-94811906D01*
X107507118Y-94811907D01*
X107486481Y-94968666D01*
X107486481Y-94968669D01*
X107507118Y-95125428D01*
X107507119Y-95125430D01*
X107530070Y-95180838D01*
X107537539Y-95250308D01*
X107506264Y-95312787D01*
X107446175Y-95348439D01*
X107376350Y-95345945D01*
X107357055Y-95337649D01*
X107218292Y-95263478D01*
X107218291Y-95263477D01*
X107218290Y-95263477D01*
X107020270Y-95203409D01*
X107020268Y-95203408D01*
X107020270Y-95203408D01*
X106832799Y-95184944D01*
X106814336Y-95183126D01*
X106814335Y-95183126D01*
X106608403Y-95203408D01*
X106410379Y-95263478D01*
X106318130Y-95312787D01*
X106227886Y-95361024D01*
X106227884Y-95361025D01*
X106227883Y-95361026D01*
X106067925Y-95492298D01*
X105936653Y-95652256D01*
X105839105Y-95834752D01*
X105779035Y-96032776D01*
X105758753Y-96238709D01*
X105779035Y-96444641D01*
X105779036Y-96444643D01*
X105839104Y-96642663D01*
X105936651Y-96825159D01*
X105936653Y-96825161D01*
X106067925Y-96985119D01*
X106164545Y-97064411D01*
X106227886Y-97116394D01*
X106410382Y-97213941D01*
X106608402Y-97274009D01*
X106608401Y-97274009D01*
X106626865Y-97275827D01*
X106814336Y-97294292D01*
X107020270Y-97274009D01*
X107218290Y-97213941D01*
X107400786Y-97116394D01*
X107560746Y-96985119D01*
X107560745Y-96985119D01*
X107565456Y-96981254D01*
X107566362Y-96982358D01*
X107621396Y-96952308D01*
X107691088Y-96957292D01*
X107747021Y-96999164D01*
X107771438Y-97064628D01*
X107771754Y-97073474D01*
X107771754Y-97943944D01*
X107752069Y-98010983D01*
X107699265Y-98056738D01*
X107630107Y-98066682D01*
X107566551Y-98037657D01*
X107561171Y-98032647D01*
X107400788Y-97901026D01*
X107400789Y-97901026D01*
X107400786Y-97901024D01*
X107218290Y-97803477D01*
X107020270Y-97743409D01*
X107020268Y-97743408D01*
X107020270Y-97743408D01*
X106832799Y-97724944D01*
X106814336Y-97723126D01*
X106814335Y-97723126D01*
X106608403Y-97743408D01*
X106410379Y-97803478D01*
X106300233Y-97862352D01*
X106227886Y-97901024D01*
X106227884Y-97901025D01*
X106227883Y-97901026D01*
X106067925Y-98032298D01*
X105936653Y-98192256D01*
X105839105Y-98374752D01*
X105779035Y-98572776D01*
X105758753Y-98778709D01*
X105779035Y-98984641D01*
X105779036Y-98984643D01*
X105839104Y-99182663D01*
X105936651Y-99365159D01*
X105936653Y-99365161D01*
X106067925Y-99525119D01*
X106164545Y-99604411D01*
X106227886Y-99656394D01*
X106375603Y-99735351D01*
X106425447Y-99784314D01*
X106440907Y-99852452D01*
X106417075Y-99918131D01*
X106361517Y-99960500D01*
X106317149Y-99968709D01*
X105916491Y-99968709D01*
X105856963Y-99975110D01*
X105856956Y-99975112D01*
X105722249Y-100025354D01*
X105722242Y-100025358D01*
X105607148Y-100111518D01*
X105607145Y-100111521D01*
X105520985Y-100226615D01*
X105520981Y-100226622D01*
X105470739Y-100361329D01*
X105470737Y-100361336D01*
X105464336Y-100420864D01*
X105464336Y-101068709D01*
X106368764Y-101068709D01*
X106345654Y-101104669D01*
X106304336Y-101245382D01*
X106304336Y-101392036D01*
X106345654Y-101532749D01*
X106368764Y-101568709D01*
X105464336Y-101568709D01*
X105464336Y-102216553D01*
X95000500Y-102216553D01*
X95000500Y-96216991D01*
X98151671Y-96216991D01*
X98171953Y-96422923D01*
X98171954Y-96422925D01*
X98232022Y-96620945D01*
X98329569Y-96803441D01*
X98347394Y-96825161D01*
X98460843Y-96963401D01*
X98557463Y-97042693D01*
X98620804Y-97094676D01*
X98803300Y-97192223D01*
X99001320Y-97252291D01*
X99001319Y-97252291D01*
X99019783Y-97254109D01*
X99207254Y-97272574D01*
X99413188Y-97252291D01*
X99611208Y-97192223D01*
X99793704Y-97094676D01*
X99953664Y-96963401D01*
X100084939Y-96803441D01*
X100182486Y-96620945D01*
X100242554Y-96422925D01*
X100262837Y-96216991D01*
X100242554Y-96011057D01*
X100182486Y-95813037D01*
X100084939Y-95630541D01*
X100032956Y-95567200D01*
X99953664Y-95470580D01*
X99820170Y-95361026D01*
X99793704Y-95339306D01*
X99611208Y-95241759D01*
X99413188Y-95181691D01*
X99413186Y-95181690D01*
X99413188Y-95181690D01*
X99225717Y-95163226D01*
X99207254Y-95161408D01*
X99207253Y-95161408D01*
X99001321Y-95181690D01*
X98803297Y-95241760D01*
X98747642Y-95271509D01*
X98620804Y-95339306D01*
X98620802Y-95339307D01*
X98620801Y-95339308D01*
X98460843Y-95470580D01*
X98329571Y-95630538D01*
X98329569Y-95630541D01*
X98290897Y-95702889D01*
X98232023Y-95813034D01*
X98171953Y-96011058D01*
X98151671Y-96216991D01*
X95000500Y-96216991D01*
X95000500Y-93676991D01*
X98151671Y-93676991D01*
X98171953Y-93882923D01*
X98171954Y-93882925D01*
X98232022Y-94080945D01*
X98329569Y-94263441D01*
X98347394Y-94285161D01*
X98460843Y-94423401D01*
X98557463Y-94502693D01*
X98620804Y-94554676D01*
X98803300Y-94652223D01*
X99001320Y-94712291D01*
X99001319Y-94712291D01*
X99019783Y-94714109D01*
X99207254Y-94732574D01*
X99413188Y-94712291D01*
X99611208Y-94652223D01*
X99793704Y-94554676D01*
X99953664Y-94423401D01*
X100084939Y-94263441D01*
X100182486Y-94080945D01*
X100242554Y-93882925D01*
X100262837Y-93676991D01*
X100242554Y-93471057D01*
X100182486Y-93273037D01*
X100084939Y-93090541D01*
X100032956Y-93027200D01*
X99953664Y-92930580D01*
X99820170Y-92821026D01*
X99793704Y-92799306D01*
X99611208Y-92701759D01*
X99413188Y-92641691D01*
X99413186Y-92641690D01*
X99413188Y-92641690D01*
X99207254Y-92621408D01*
X99001321Y-92641690D01*
X98803297Y-92701760D01*
X98693152Y-92760634D01*
X98620804Y-92799306D01*
X98620802Y-92799307D01*
X98620801Y-92799308D01*
X98460843Y-92930580D01*
X98345352Y-93071309D01*
X98329569Y-93090541D01*
X98296476Y-93152454D01*
X98232023Y-93273034D01*
X98171953Y-93471058D01*
X98151671Y-93676991D01*
X95000500Y-93676991D01*
X95000500Y-91136990D01*
X98151671Y-91136990D01*
X98171953Y-91342923D01*
X98171954Y-91342925D01*
X98232022Y-91540945D01*
X98329569Y-91723441D01*
X98347394Y-91745161D01*
X98460843Y-91883401D01*
X98557463Y-91962693D01*
X98620804Y-92014676D01*
X98803300Y-92112223D01*
X99001320Y-92172291D01*
X99001319Y-92172291D01*
X99021601Y-92174288D01*
X99207254Y-92192574D01*
X99413188Y-92172291D01*
X99611208Y-92112223D01*
X99793704Y-92014676D01*
X99953664Y-91883401D01*
X100084939Y-91723441D01*
X100182486Y-91540945D01*
X100242554Y-91342925D01*
X100262837Y-91136991D01*
X100242554Y-90931057D01*
X100182486Y-90733037D01*
X100084939Y-90550541D01*
X100032956Y-90487200D01*
X99953664Y-90390580D01*
X99820170Y-90281026D01*
X99793704Y-90259306D01*
X99611208Y-90161759D01*
X99413188Y-90101691D01*
X99413186Y-90101690D01*
X99413188Y-90101690D01*
X99207254Y-90081408D01*
X99001321Y-90101690D01*
X98803297Y-90161760D01*
X98693152Y-90220634D01*
X98620804Y-90259306D01*
X98620802Y-90259307D01*
X98620801Y-90259308D01*
X98460843Y-90390580D01*
X98329571Y-90550538D01*
X98329569Y-90550541D01*
X98290897Y-90622889D01*
X98232023Y-90733034D01*
X98171953Y-90931058D01*
X98151671Y-91136990D01*
X95000500Y-91136990D01*
X95000500Y-88596990D01*
X98151671Y-88596990D01*
X98171953Y-88802923D01*
X98171954Y-88802925D01*
X98232022Y-89000945D01*
X98329569Y-89183441D01*
X98329571Y-89183443D01*
X98460843Y-89343401D01*
X98557463Y-89422693D01*
X98620804Y-89474676D01*
X98803300Y-89572223D01*
X99001320Y-89632291D01*
X99001319Y-89632291D01*
X99019783Y-89634109D01*
X99207254Y-89652574D01*
X99413188Y-89632291D01*
X99611208Y-89572223D01*
X99715358Y-89516553D01*
X105464336Y-89516553D01*
X105470737Y-89576081D01*
X105470739Y-89576088D01*
X105520981Y-89710795D01*
X105520985Y-89710802D01*
X105607145Y-89825896D01*
X105607148Y-89825899D01*
X105722242Y-89912059D01*
X105722249Y-89912063D01*
X105856956Y-89962305D01*
X105856963Y-89962307D01*
X105916491Y-89968708D01*
X105916508Y-89968709D01*
X106317149Y-89968709D01*
X106384188Y-89988394D01*
X106429943Y-90041198D01*
X106439887Y-90110356D01*
X106410862Y-90173912D01*
X106375603Y-90202066D01*
X106227886Y-90281024D01*
X106227884Y-90281025D01*
X106227883Y-90281026D01*
X106067925Y-90412298D01*
X105936653Y-90572256D01*
X105839105Y-90754752D01*
X105779035Y-90952776D01*
X105758753Y-91158708D01*
X105779035Y-91364641D01*
X105779036Y-91364643D01*
X105839104Y-91562663D01*
X105936651Y-91745159D01*
X105936653Y-91745161D01*
X106067925Y-91905119D01*
X106164545Y-91984411D01*
X106227886Y-92036394D01*
X106410382Y-92133941D01*
X106608402Y-92194009D01*
X106608401Y-92194009D01*
X106628683Y-92196006D01*
X106814336Y-92214292D01*
X107020270Y-92194009D01*
X107218290Y-92133941D01*
X107400786Y-92036394D01*
X107560746Y-91905119D01*
X107692021Y-91745159D01*
X107789568Y-91562663D01*
X107849636Y-91364643D01*
X107869919Y-91158709D01*
X107849636Y-90952775D01*
X107789568Y-90754755D01*
X107692021Y-90572259D01*
X107640038Y-90508918D01*
X107560746Y-90412298D01*
X107400788Y-90281026D01*
X107400789Y-90281026D01*
X107400786Y-90281024D01*
X107253068Y-90202066D01*
X107203225Y-90153104D01*
X107187765Y-90084966D01*
X107211597Y-90019287D01*
X107267155Y-89976918D01*
X107311523Y-89968709D01*
X107712164Y-89968709D01*
X107712180Y-89968708D01*
X107771708Y-89962307D01*
X107771715Y-89962305D01*
X107906422Y-89912063D01*
X107906429Y-89912059D01*
X108021523Y-89825899D01*
X108021526Y-89825896D01*
X108107686Y-89710802D01*
X108107690Y-89710795D01*
X108157932Y-89576088D01*
X108157934Y-89576081D01*
X108164335Y-89516553D01*
X108164336Y-89516536D01*
X108164336Y-88868709D01*
X107259908Y-88868709D01*
X107283018Y-88832749D01*
X107324336Y-88692036D01*
X107324336Y-88545382D01*
X107283018Y-88404669D01*
X107259908Y-88368709D01*
X108164336Y-88368709D01*
X108164336Y-87720881D01*
X108164335Y-87720864D01*
X108157934Y-87661336D01*
X108157932Y-87661329D01*
X108107690Y-87526622D01*
X108107686Y-87526615D01*
X108021526Y-87411521D01*
X108021523Y-87411518D01*
X107906429Y-87325358D01*
X107906422Y-87325354D01*
X107771715Y-87275112D01*
X107771708Y-87275110D01*
X107712180Y-87268709D01*
X107311523Y-87268709D01*
X107244484Y-87249024D01*
X107198729Y-87196220D01*
X107188785Y-87127062D01*
X107217810Y-87063506D01*
X107253069Y-87035351D01*
X107258925Y-87032221D01*
X107400786Y-86956394D01*
X107560746Y-86825119D01*
X107692021Y-86665159D01*
X107789568Y-86482663D01*
X107849636Y-86284643D01*
X107869919Y-86078709D01*
X107849636Y-85872775D01*
X107789568Y-85674755D01*
X107692021Y-85492259D01*
X107595551Y-85374709D01*
X107560746Y-85332298D01*
X107400788Y-85201026D01*
X107400789Y-85201026D01*
X107400786Y-85201024D01*
X107218290Y-85103477D01*
X107020270Y-85043409D01*
X107020268Y-85043408D01*
X107020270Y-85043408D01*
X106832799Y-85024944D01*
X106814336Y-85023126D01*
X106814335Y-85023126D01*
X106608403Y-85043408D01*
X106410379Y-85103478D01*
X106300233Y-85162352D01*
X106227886Y-85201024D01*
X106227884Y-85201025D01*
X106227883Y-85201026D01*
X106067925Y-85332298D01*
X105936653Y-85492256D01*
X105839105Y-85674752D01*
X105779035Y-85872776D01*
X105758753Y-86078709D01*
X105779035Y-86284641D01*
X105799239Y-86351245D01*
X105839104Y-86482663D01*
X105936651Y-86665159D01*
X105936653Y-86665161D01*
X106067925Y-86825119D01*
X106164545Y-86904411D01*
X106227886Y-86956394D01*
X106369747Y-87032221D01*
X106375603Y-87035351D01*
X106425447Y-87084314D01*
X106440907Y-87152452D01*
X106417075Y-87218131D01*
X106361517Y-87260500D01*
X106317149Y-87268709D01*
X105916491Y-87268709D01*
X105856963Y-87275110D01*
X105856956Y-87275112D01*
X105722249Y-87325354D01*
X105722242Y-87325358D01*
X105607148Y-87411518D01*
X105607145Y-87411521D01*
X105520985Y-87526615D01*
X105520981Y-87526622D01*
X105470739Y-87661329D01*
X105470737Y-87661336D01*
X105464336Y-87720864D01*
X105464336Y-88368709D01*
X106368764Y-88368709D01*
X106345654Y-88404669D01*
X106304336Y-88545382D01*
X106304336Y-88692036D01*
X106345654Y-88832749D01*
X106368764Y-88868709D01*
X105464336Y-88868709D01*
X105464336Y-89516553D01*
X99715358Y-89516553D01*
X99793704Y-89474676D01*
X99953664Y-89343401D01*
X100084939Y-89183441D01*
X100182486Y-89000945D01*
X100242554Y-88802925D01*
X100262837Y-88596991D01*
X100242554Y-88391057D01*
X100182486Y-88193037D01*
X100084939Y-88010541D01*
X100032956Y-87947200D01*
X99953664Y-87850580D01*
X99793706Y-87719308D01*
X99793707Y-87719308D01*
X99793704Y-87719306D01*
X99611208Y-87621759D01*
X99413188Y-87561691D01*
X99413186Y-87561690D01*
X99413188Y-87561690D01*
X99225717Y-87543226D01*
X99207254Y-87541408D01*
X99207253Y-87541408D01*
X99001321Y-87561690D01*
X98803297Y-87621760D01*
X98729270Y-87661329D01*
X98620804Y-87719306D01*
X98620802Y-87719307D01*
X98620801Y-87719308D01*
X98460843Y-87850580D01*
X98329571Y-88010538D01*
X98232023Y-88193034D01*
X98171953Y-88391058D01*
X98151671Y-88596990D01*
X95000500Y-88596990D01*
X95000500Y-84414835D01*
X97857254Y-84414835D01*
X97863655Y-84474363D01*
X97863657Y-84474370D01*
X97913899Y-84609077D01*
X97913903Y-84609084D01*
X98000063Y-84724178D01*
X98000066Y-84724181D01*
X98115160Y-84810341D01*
X98115167Y-84810345D01*
X98249874Y-84860587D01*
X98249881Y-84860589D01*
X98309409Y-84866990D01*
X98309426Y-84866991D01*
X98710067Y-84866991D01*
X98777106Y-84886676D01*
X98822861Y-84939480D01*
X98832805Y-85008638D01*
X98803780Y-85072194D01*
X98768521Y-85100348D01*
X98620804Y-85179306D01*
X98620802Y-85179307D01*
X98620801Y-85179308D01*
X98460843Y-85310580D01*
X98329571Y-85470538D01*
X98329569Y-85470541D01*
X98313743Y-85500150D01*
X98232023Y-85653034D01*
X98171953Y-85851058D01*
X98151671Y-86056991D01*
X98171953Y-86262923D01*
X98198745Y-86351245D01*
X98232022Y-86460945D01*
X98329569Y-86643441D01*
X98347394Y-86665161D01*
X98460843Y-86803401D01*
X98557463Y-86882693D01*
X98620804Y-86934676D01*
X98803300Y-87032223D01*
X99001320Y-87092291D01*
X99001319Y-87092291D01*
X99019783Y-87094109D01*
X99207254Y-87112574D01*
X99413188Y-87092291D01*
X99611208Y-87032223D01*
X99793704Y-86934676D01*
X99953664Y-86803401D01*
X100084939Y-86643441D01*
X100182486Y-86460945D01*
X100242554Y-86262925D01*
X100262837Y-86056991D01*
X100242554Y-85851057D01*
X100182486Y-85653037D01*
X100084939Y-85470541D01*
X100006291Y-85374707D01*
X99953664Y-85310580D01*
X99820170Y-85201026D01*
X99793704Y-85179306D01*
X99645986Y-85100348D01*
X99596143Y-85051386D01*
X99580683Y-84983248D01*
X99604515Y-84917569D01*
X99660073Y-84875200D01*
X99704441Y-84866991D01*
X100105082Y-84866991D01*
X100105098Y-84866990D01*
X100164626Y-84860589D01*
X100164633Y-84860587D01*
X100299340Y-84810345D01*
X100299347Y-84810341D01*
X100414441Y-84724181D01*
X100414444Y-84724178D01*
X100500604Y-84609084D01*
X100500608Y-84609077D01*
X100550850Y-84474370D01*
X100550852Y-84474363D01*
X100557253Y-84414835D01*
X100557254Y-84414818D01*
X100557254Y-83766991D01*
X99640940Y-83766991D01*
X99666747Y-83726835D01*
X99707254Y-83588880D01*
X99707254Y-83538708D01*
X105758753Y-83538708D01*
X105779035Y-83744641D01*
X105779036Y-83744643D01*
X105839104Y-83942663D01*
X105936651Y-84125159D01*
X105936653Y-84125161D01*
X106067925Y-84285119D01*
X106153270Y-84355159D01*
X106227886Y-84416394D01*
X106410382Y-84513941D01*
X106608402Y-84574009D01*
X106608401Y-84574009D01*
X106628683Y-84576006D01*
X106814336Y-84594292D01*
X107020270Y-84574009D01*
X107218290Y-84513941D01*
X107400786Y-84416394D01*
X107560746Y-84285119D01*
X107692021Y-84125159D01*
X107789568Y-83942663D01*
X107849636Y-83744643D01*
X107869919Y-83538709D01*
X107849636Y-83332775D01*
X107789568Y-83134755D01*
X107692021Y-82952259D01*
X107600286Y-82840479D01*
X107560746Y-82792298D01*
X107400788Y-82661026D01*
X107400789Y-82661026D01*
X107400786Y-82661024D01*
X107218290Y-82563477D01*
X107020270Y-82503409D01*
X107020268Y-82503408D01*
X107020270Y-82503408D01*
X106814336Y-82483126D01*
X106608403Y-82503408D01*
X106410379Y-82563478D01*
X106306202Y-82619163D01*
X106227886Y-82661024D01*
X106227884Y-82661025D01*
X106227883Y-82661026D01*
X106067925Y-82792298D01*
X105936653Y-82952256D01*
X105839105Y-83134752D01*
X105779035Y-83332776D01*
X105758753Y-83538708D01*
X99707254Y-83538708D01*
X99707254Y-83445102D01*
X99666747Y-83307147D01*
X99640940Y-83266991D01*
X100557254Y-83266991D01*
X100557254Y-82619163D01*
X100557253Y-82619146D01*
X100550852Y-82559618D01*
X100550850Y-82559611D01*
X100500608Y-82424904D01*
X100500604Y-82424897D01*
X100414444Y-82309803D01*
X100414441Y-82309800D01*
X100299347Y-82223640D01*
X100299340Y-82223636D01*
X100164633Y-82173394D01*
X100164626Y-82173392D01*
X100105098Y-82166991D01*
X99457254Y-82166991D01*
X99457254Y-83081489D01*
X99349569Y-83032311D01*
X99243017Y-83016991D01*
X99171491Y-83016991D01*
X99064939Y-83032311D01*
X98957254Y-83081489D01*
X98957254Y-82166991D01*
X98309409Y-82166991D01*
X98249881Y-82173392D01*
X98249874Y-82173394D01*
X98115167Y-82223636D01*
X98115160Y-82223640D01*
X98000066Y-82309800D01*
X98000063Y-82309803D01*
X97913903Y-82424897D01*
X97913899Y-82424904D01*
X97863657Y-82559611D01*
X97863655Y-82559618D01*
X97857254Y-82619146D01*
X97857254Y-83266991D01*
X98773568Y-83266991D01*
X98747761Y-83307147D01*
X98707254Y-83445102D01*
X98707254Y-83588880D01*
X98747761Y-83726835D01*
X98773568Y-83766991D01*
X97857254Y-83766991D01*
X97857254Y-84414835D01*
X95000500Y-84414835D01*
X95000500Y-54647301D01*
X97662715Y-54647301D01*
X97683352Y-54804060D01*
X97683353Y-54804062D01*
X97743861Y-54950141D01*
X97840115Y-55075582D01*
X97894384Y-55117224D01*
X97935586Y-55173649D01*
X97942897Y-55215598D01*
X97942897Y-67313921D01*
X97923212Y-67380960D01*
X97894385Y-67412295D01*
X97866961Y-67433339D01*
X97852192Y-67452586D01*
X97770706Y-67558781D01*
X97710199Y-67704858D01*
X97710198Y-67704860D01*
X97689561Y-67861619D01*
X97689561Y-67861622D01*
X97710198Y-68018381D01*
X97710199Y-68018383D01*
X97770707Y-68164462D01*
X97866961Y-68289903D01*
X97992402Y-68386157D01*
X98138481Y-68446665D01*
X98200402Y-68454817D01*
X98295242Y-68467303D01*
X98303370Y-68467303D01*
X98303370Y-68469360D01*
X98361526Y-68478426D01*
X98413785Y-68524802D01*
X98432675Y-68592069D01*
X98431623Y-68606788D01*
X98418876Y-68703613D01*
X98418876Y-68703616D01*
X98439513Y-68860375D01*
X98439514Y-68860377D01*
X98500022Y-69006456D01*
X98596276Y-69131897D01*
X98721717Y-69228151D01*
X98867796Y-69288659D01*
X99024558Y-69309297D01*
X99035842Y-69307811D01*
X99104875Y-69318575D01*
X99157132Y-69364954D01*
X99174967Y-69414565D01*
X99189055Y-69521580D01*
X99189056Y-69521582D01*
X99249564Y-69667661D01*
X99345818Y-69793102D01*
X99471259Y-69889356D01*
X99617338Y-69949864D01*
X99774100Y-69970502D01*
X99774100Y-69970501D01*
X99776578Y-69970828D01*
X99840475Y-69999094D01*
X99878946Y-70057419D01*
X99883333Y-70109949D01*
X99879618Y-70138171D01*
X99900255Y-70294930D01*
X99900256Y-70294932D01*
X99960764Y-70441011D01*
X100057018Y-70566452D01*
X100182459Y-70662706D01*
X100328538Y-70723214D01*
X100406919Y-70733532D01*
X100485299Y-70743852D01*
X100485300Y-70743852D01*
X100485301Y-70743852D01*
X100524490Y-70738692D01*
X100642062Y-70723214D01*
X100671668Y-70710950D01*
X100741135Y-70703482D01*
X100803614Y-70734757D01*
X100839267Y-70794845D01*
X100842058Y-70809326D01*
X100856264Y-70917223D01*
X100856264Y-70917225D01*
X100911095Y-71049600D01*
X100916772Y-71063304D01*
X101013026Y-71188745D01*
X101138467Y-71284999D01*
X101284546Y-71345507D01*
X101362926Y-71355826D01*
X101441307Y-71366145D01*
X101441308Y-71366145D01*
X101492365Y-71359423D01*
X101561399Y-71370188D01*
X101613655Y-71416568D01*
X101631489Y-71466176D01*
X101640756Y-71536560D01*
X101640756Y-71536562D01*
X101689931Y-71655282D01*
X101701264Y-71682641D01*
X101797518Y-71808082D01*
X101922959Y-71904336D01*
X102069038Y-71964844D01*
X102147418Y-71975163D01*
X102225799Y-71985482D01*
X102225800Y-71985482D01*
X102225801Y-71985482D01*
X102278053Y-71978602D01*
X102382562Y-71964844D01*
X102528641Y-71904336D01*
X102654082Y-71808082D01*
X102750336Y-71682641D01*
X102810844Y-71536562D01*
X102831482Y-71379800D01*
X102829684Y-71366145D01*
X102810844Y-71223039D01*
X102810844Y-71223038D01*
X102750336Y-71076959D01*
X102654082Y-70951518D01*
X102654077Y-70951514D01*
X102588213Y-70900973D01*
X102547010Y-70844545D01*
X102539700Y-70802598D01*
X102539700Y-69674004D01*
X102539936Y-69668597D01*
X102543463Y-69628286D01*
X102532986Y-69589187D01*
X102531817Y-69583919D01*
X102524788Y-69544050D01*
X102524787Y-69544049D01*
X102524787Y-69544046D01*
X102522965Y-69539042D01*
X102516015Y-69522263D01*
X102513754Y-69517414D01*
X102513753Y-69517413D01*
X102513753Y-69517411D01*
X102490533Y-69484249D01*
X102487634Y-69479698D01*
X102467394Y-69444639D01*
X102467393Y-69444638D01*
X102436393Y-69418627D01*
X102432402Y-69414971D01*
X102308218Y-69290786D01*
X102274734Y-69229463D01*
X102271900Y-69203105D01*
X102271900Y-68052401D01*
X127731318Y-68052401D01*
X127751955Y-68209160D01*
X127751956Y-68209162D01*
X127812464Y-68355241D01*
X127908718Y-68480682D01*
X128034159Y-68576936D01*
X128180238Y-68637444D01*
X128258618Y-68647763D01*
X128336999Y-68658082D01*
X128337000Y-68658082D01*
X128337001Y-68658082D01*
X128389253Y-68651202D01*
X128493762Y-68637444D01*
X128639841Y-68576936D01*
X128743017Y-68497765D01*
X128808184Y-68472572D01*
X128876629Y-68486610D01*
X128906183Y-68508461D01*
X128907783Y-68510061D01*
X128907785Y-68510063D01*
X128907788Y-68510066D01*
X129033229Y-68606320D01*
X129179308Y-68666828D01*
X129257689Y-68677147D01*
X129336069Y-68687466D01*
X129336070Y-68687466D01*
X129336071Y-68687466D01*
X129388324Y-68680586D01*
X129492832Y-68666828D01*
X129638911Y-68606320D01*
X129764352Y-68510066D01*
X129771941Y-68500174D01*
X129828367Y-68458972D01*
X129898113Y-68454817D01*
X129945800Y-68477283D01*
X130030686Y-68542418D01*
X130176765Y-68602926D01*
X130255146Y-68613245D01*
X130333526Y-68623564D01*
X130333527Y-68623564D01*
X130333528Y-68623564D01*
X130385781Y-68616684D01*
X130490289Y-68602926D01*
X130561576Y-68573397D01*
X130631043Y-68565929D01*
X130693522Y-68597204D01*
X130729175Y-68657292D01*
X130733027Y-68687959D01*
X130733027Y-68853083D01*
X130713342Y-68920122D01*
X130696708Y-68940764D01*
X129219884Y-70417588D01*
X129158561Y-70451073D01*
X129116018Y-70452846D01*
X129048201Y-70443918D01*
X129048199Y-70443918D01*
X128891439Y-70464555D01*
X128891437Y-70464556D01*
X128745360Y-70525063D01*
X128619918Y-70621318D01*
X128523663Y-70746760D01*
X128463156Y-70892837D01*
X128463155Y-70892839D01*
X128442518Y-71049598D01*
X128442518Y-71049601D01*
X128463155Y-71206360D01*
X128463156Y-71206362D01*
X128495728Y-71284999D01*
X128523664Y-71352441D01*
X128619918Y-71477882D01*
X128745359Y-71574136D01*
X128891438Y-71634644D01*
X128969818Y-71644963D01*
X129048199Y-71655282D01*
X129048200Y-71655282D01*
X129048201Y-71655282D01*
X129100454Y-71648402D01*
X129204962Y-71634644D01*
X129351041Y-71574136D01*
X129415540Y-71524644D01*
X129480708Y-71499451D01*
X129549152Y-71513489D01*
X129589400Y-71547534D01*
X129614205Y-71579860D01*
X129739646Y-71676114D01*
X129885725Y-71736622D01*
X129964105Y-71746941D01*
X130042486Y-71757260D01*
X130042487Y-71757260D01*
X130042488Y-71757260D01*
X130094741Y-71750380D01*
X130199249Y-71736622D01*
X130345328Y-71676114D01*
X130470769Y-71579860D01*
X130567023Y-71454419D01*
X130627531Y-71308340D01*
X130648169Y-71151578D01*
X130639239Y-71083758D01*
X130650005Y-71014723D01*
X130674495Y-70979894D01*
X131695846Y-69958543D01*
X131757169Y-69925059D01*
X131826861Y-69930043D01*
X131882794Y-69971915D01*
X131907211Y-70037379D01*
X131907527Y-70046225D01*
X131907527Y-70626160D01*
X131887842Y-70693199D01*
X131859015Y-70724533D01*
X131812192Y-70760463D01*
X131794918Y-70773718D01*
X131698663Y-70899160D01*
X131638156Y-71045237D01*
X131638155Y-71045239D01*
X131617518Y-71201998D01*
X131617518Y-71202001D01*
X131638155Y-71358760D01*
X131638156Y-71358762D01*
X131698664Y-71504841D01*
X131794918Y-71630282D01*
X131920359Y-71726536D01*
X132066438Y-71787044D01*
X132144819Y-71797363D01*
X132223199Y-71807682D01*
X132223200Y-71807682D01*
X132223201Y-71807682D01*
X132275454Y-71800802D01*
X132379962Y-71787044D01*
X132526041Y-71726536D01*
X132651482Y-71630282D01*
X132747736Y-71504841D01*
X132808244Y-71358762D01*
X132826112Y-71223038D01*
X132828882Y-71202001D01*
X132828882Y-71201998D01*
X132808244Y-71045239D01*
X132808244Y-71045238D01*
X132747736Y-70899159D01*
X132651482Y-70773718D01*
X132616350Y-70746760D01*
X132607040Y-70739616D01*
X132565838Y-70683188D01*
X132558527Y-70641241D01*
X132558527Y-66055298D01*
X132578212Y-65988259D01*
X132607037Y-65956925D01*
X132661309Y-65915282D01*
X132757563Y-65789841D01*
X132818071Y-65643762D01*
X132838709Y-65487000D01*
X132836657Y-65471416D01*
X132818071Y-65330239D01*
X132818071Y-65330238D01*
X132757563Y-65184159D01*
X132661309Y-65058718D01*
X132535868Y-64962464D01*
X132506202Y-64950176D01*
X132389789Y-64901956D01*
X132389787Y-64901955D01*
X132233028Y-64881318D01*
X132233026Y-64881318D01*
X132076266Y-64901955D01*
X132076261Y-64901957D01*
X132005479Y-64931276D01*
X131936010Y-64938745D01*
X131873531Y-64907470D01*
X131837879Y-64847380D01*
X131834027Y-64816715D01*
X131834027Y-63525057D01*
X131834263Y-63519650D01*
X131834788Y-63513656D01*
X131837791Y-63479330D01*
X131827309Y-63440213D01*
X131826143Y-63434955D01*
X131819115Y-63395092D01*
X131819113Y-63395089D01*
X131819113Y-63395087D01*
X131817287Y-63390070D01*
X131810347Y-63373313D01*
X131808081Y-63368456D01*
X131808081Y-63368453D01*
X131784866Y-63335299D01*
X131781960Y-63330736D01*
X131761723Y-63295685D01*
X131761722Y-63295684D01*
X131761721Y-63295682D01*
X131730704Y-63269655D01*
X131726720Y-63266004D01*
X131598511Y-63137795D01*
X131565026Y-63076472D01*
X131563253Y-63033928D01*
X131572182Y-62966110D01*
X131572182Y-62966108D01*
X131551544Y-62809349D01*
X131551544Y-62809348D01*
X131491036Y-62663269D01*
X131394782Y-62537828D01*
X131269341Y-62441574D01*
X131123262Y-62381066D01*
X131123260Y-62381065D01*
X130966501Y-62360428D01*
X130966500Y-62360428D01*
X130959695Y-62361323D01*
X130935027Y-62364571D01*
X130865992Y-62353803D01*
X130813738Y-62307422D01*
X130794854Y-62240152D01*
X130795906Y-62225449D01*
X130796882Y-62218038D01*
X130776244Y-62061276D01*
X130715736Y-61915197D01*
X130619482Y-61789756D01*
X130494041Y-61693502D01*
X130347962Y-61632994D01*
X130347960Y-61632993D01*
X130191201Y-61612356D01*
X130191199Y-61612356D01*
X130034439Y-61632993D01*
X130034437Y-61632994D01*
X129888360Y-61693501D01*
X129762918Y-61789756D01*
X129666663Y-61915198D01*
X129606156Y-62061275D01*
X129606155Y-62061277D01*
X129585518Y-62218036D01*
X129585518Y-62218039D01*
X129606155Y-62374798D01*
X129606156Y-62374800D01*
X129666664Y-62520879D01*
X129762918Y-62646320D01*
X129762919Y-62646321D01*
X129867986Y-62726941D01*
X129909189Y-62783369D01*
X129916500Y-62825317D01*
X129916500Y-65313073D01*
X129896815Y-65380112D01*
X129844011Y-65425867D01*
X129774853Y-65435811D01*
X129711297Y-65406786D01*
X129705201Y-65401110D01*
X129705083Y-65401019D01*
X129705082Y-65401018D01*
X129579641Y-65304764D01*
X129573895Y-65302384D01*
X129433562Y-65244256D01*
X129433560Y-65244255D01*
X129276801Y-65223618D01*
X129276799Y-65223618D01*
X129167377Y-65238023D01*
X129098341Y-65227257D01*
X129046086Y-65180877D01*
X129028253Y-65131269D01*
X129023644Y-65096254D01*
X128963136Y-64950175D01*
X128866882Y-64824734D01*
X128741441Y-64728480D01*
X128595362Y-64667972D01*
X128595360Y-64667971D01*
X128438601Y-64647334D01*
X128438599Y-64647334D01*
X128281839Y-64667971D01*
X128281837Y-64667972D01*
X128135760Y-64728479D01*
X128010318Y-64824734D01*
X127914063Y-64950176D01*
X127853556Y-65096253D01*
X127853555Y-65096255D01*
X127832918Y-65253014D01*
X127832918Y-65253017D01*
X127853555Y-65409776D01*
X127853556Y-65409778D01*
X127901915Y-65526528D01*
X127914064Y-65555857D01*
X128010318Y-65681298D01*
X128010320Y-65681300D01*
X128011276Y-65682545D01*
X128036470Y-65747715D01*
X128036900Y-65758032D01*
X128036900Y-67464610D01*
X128017215Y-67531649D01*
X127988387Y-67562985D01*
X127908720Y-67624116D01*
X127908719Y-67624117D01*
X127908718Y-67624118D01*
X127886171Y-67653502D01*
X127812463Y-67749560D01*
X127751956Y-67895637D01*
X127751955Y-67895639D01*
X127731318Y-68052398D01*
X127731318Y-68052401D01*
X102271900Y-68052401D01*
X102271900Y-60074389D01*
X102291585Y-60007350D01*
X102320414Y-59976013D01*
X102362582Y-59943657D01*
X102458836Y-59818216D01*
X102519344Y-59672137D01*
X102539982Y-59515375D01*
X102519344Y-59358613D01*
X102458836Y-59212534D01*
X102362582Y-59087093D01*
X102237141Y-58990839D01*
X102091062Y-58930331D01*
X102040749Y-58923707D01*
X101936596Y-58909995D01*
X101872700Y-58881728D01*
X101834229Y-58823404D01*
X101828782Y-58787056D01*
X101828782Y-58780826D01*
X101808144Y-58624067D01*
X101808144Y-58624066D01*
X101747636Y-58477987D01*
X101651382Y-58352546D01*
X101525941Y-58256292D01*
X101379862Y-58195784D01*
X101379860Y-58195783D01*
X101215043Y-58174085D01*
X101215282Y-58172265D01*
X101158053Y-58155461D01*
X101112298Y-58102657D01*
X101102153Y-58067331D01*
X101083644Y-57926739D01*
X101083644Y-57926738D01*
X101023136Y-57780659D01*
X100926882Y-57655218D01*
X100801441Y-57558964D01*
X100655362Y-57498456D01*
X100655360Y-57498455D01*
X100498601Y-57477818D01*
X100498600Y-57477818D01*
X100489683Y-57478991D01*
X100481387Y-57480084D01*
X100412352Y-57469316D01*
X100360098Y-57422935D01*
X100342266Y-57373329D01*
X100328863Y-57271520D01*
X100328863Y-57271519D01*
X100268355Y-57125440D01*
X100172101Y-56999999D01*
X100046660Y-56903745D01*
X99900581Y-56843237D01*
X99900579Y-56843236D01*
X99743820Y-56822599D01*
X99743818Y-56822599D01*
X99587058Y-56843236D01*
X99587056Y-56843237D01*
X99440973Y-56903747D01*
X99435293Y-56907026D01*
X99367391Y-56923494D01*
X99301366Y-56900637D01*
X99258179Y-56845713D01*
X99249300Y-56799635D01*
X99249300Y-56799634D01*
X99249300Y-55944195D01*
X99268983Y-55877160D01*
X99316223Y-55836225D01*
X99315547Y-55835053D01*
X99321629Y-55831541D01*
X99321787Y-55831405D01*
X99322106Y-55831265D01*
X99322579Y-55830993D01*
X99322581Y-55830990D01*
X99322584Y-55830990D01*
X99448025Y-55734736D01*
X99544279Y-55609295D01*
X99604787Y-55463216D01*
X99625425Y-55306454D01*
X99604787Y-55149692D01*
X99544279Y-55003613D01*
X99448025Y-54878172D01*
X99322584Y-54781918D01*
X99176505Y-54721410D01*
X99176503Y-54721409D01*
X99019744Y-54700772D01*
X99019742Y-54700772D01*
X99006414Y-54702526D01*
X98937379Y-54691757D01*
X98885125Y-54645375D01*
X98867295Y-54595771D01*
X98853441Y-54490539D01*
X98853441Y-54490538D01*
X98792933Y-54344459D01*
X98696679Y-54219018D01*
X98571238Y-54122764D01*
X98425159Y-54062256D01*
X98425157Y-54062255D01*
X98268398Y-54041618D01*
X98268396Y-54041618D01*
X98111636Y-54062255D01*
X98111634Y-54062256D01*
X97965557Y-54122763D01*
X97840115Y-54219018D01*
X97743860Y-54344460D01*
X97683353Y-54490537D01*
X97683352Y-54490539D01*
X97662715Y-54647298D01*
X97662715Y-54647301D01*
X95000500Y-54647301D01*
X95000500Y-50124500D01*
X95020185Y-50057461D01*
X95072989Y-50011706D01*
X95124500Y-50000500D01*
X134875500Y-50000500D01*
X134942539Y-50020185D01*
G37*
%TD.AperFunction*%
%TD*%
M02*
