%TF.GenerationSoftware,KiCad,Pcbnew,7.0.5*%
%TF.CreationDate,2023-07-10T21:20:45-07:00*%
%TF.ProjectId,roshambo-pcb-smt,726f7368-616d-4626-9f2d-7063622d736d,rev?*%
%TF.SameCoordinates,Original*%
%TF.FileFunction,Legend,Bot*%
%TF.FilePolarity,Positive*%
%FSLAX46Y46*%
G04 Gerber Fmt 4.6, Leading zero omitted, Abs format (unit mm)*
G04 Created by KiCad (PCBNEW 7.0.5) date 2023-07-10 21:20:45*
%MOMM*%
%LPD*%
G01*
G04 APERTURE LIST*
%ADD10R,1.700000X1.700000*%
%ADD11O,1.700000X1.700000*%
%ADD12O,1.800000X1.800000*%
%ADD13O,1.500000X1.500000*%
G04 APERTURE END LIST*
%LPC*%
D10*
%TO.C,J2*%
X100680000Y-98082000D03*
D11*
X100680000Y-100622000D03*
X100680000Y-103162000D03*
%TD*%
D12*
%TO.C,U1*%
X115735000Y-56302000D03*
D13*
X116035000Y-59332000D03*
X120885000Y-59332000D03*
D12*
X121185000Y-56302000D03*
D11*
X109570000Y-56172000D03*
X109570000Y-58712000D03*
D10*
X109570000Y-61252000D03*
D11*
X109570000Y-63792000D03*
X109570000Y-66332000D03*
X109570000Y-68872000D03*
X109570000Y-71412000D03*
D10*
X109570000Y-73952000D03*
D11*
X109570000Y-76492000D03*
X109570000Y-79032000D03*
X109570000Y-81572000D03*
X109570000Y-84112000D03*
D10*
X109570000Y-86652000D03*
D11*
X109570000Y-89192000D03*
X109570000Y-91732000D03*
X109570000Y-94272000D03*
X109570000Y-96812000D03*
D10*
X109570000Y-99352000D03*
D11*
X109570000Y-101892000D03*
X109570000Y-104432000D03*
X127350000Y-104432000D03*
X127350000Y-101892000D03*
D10*
X127350000Y-99352000D03*
D11*
X127350000Y-96812000D03*
X127350000Y-94272000D03*
X127350000Y-91732000D03*
X127350000Y-89192000D03*
D10*
X127350000Y-86652000D03*
D11*
X127350000Y-84112000D03*
X127350000Y-81572000D03*
X127350000Y-79032000D03*
X127350000Y-76492000D03*
D10*
X127350000Y-73952000D03*
D11*
X127350000Y-71412000D03*
X127350000Y-68872000D03*
X127350000Y-66332000D03*
X127350000Y-63792000D03*
D10*
X127350000Y-61252000D03*
D11*
X127350000Y-58712000D03*
X127350000Y-56172000D03*
X115920000Y-104202000D03*
D10*
X118460000Y-104202000D03*
D11*
X121000000Y-104202000D03*
%TD*%
D10*
%TO.C,J3*%
X136240000Y-98082000D03*
D11*
X136240000Y-100622000D03*
X136240000Y-103162000D03*
%TD*%
D10*
%TO.C,J1*%
X100680000Y-61252000D03*
D11*
X100680000Y-63792000D03*
X100680000Y-66332000D03*
X100680000Y-68872000D03*
X100680000Y-71412000D03*
X100680000Y-73952000D03*
%TD*%
%LPD*%
M02*
