M48
; DRILL file {KiCad 7.0.5} date Fri Jul 28 19:51:42 2023
; FORMAT={-:-/ absolute / inch / decimal}
; #@! TF.CreationDate,2023-07-28T19:51:42-07:00
; #@! TF.GenerationSoftware,Kicad,Pcbnew,7.0.5
; #@! TF.FileFunction,Plated,1,2,PTH
FMAT,2
INCH
; #@! TA.AperFunction,Plated,PTH,ViaDrill
T1C0.0157
; #@! TA.AperFunction,Plated,PTH,ComponentDrill
T2C0.0394
; #@! TA.AperFunction,Plated,PTH,ComponentDrill
T3C0.0402
%
G90
G05
T1
X3.8506Y-4.7932
X3.8688Y-2.1515
X3.8699Y-2.6717
X3.8858Y-3.8981
X3.8984Y-2.1774
X3.8986Y-2.7049
X3.9269Y-2.261
X3.9281Y-2.7309
X3.9556Y-2.0042
X3.9561Y-2.7613
X3.9566Y-2.2868
X3.9852Y-2.3142
X3.9938Y-2.7858
X3.9956Y-2.8722
X4.0058Y-3.1481
X4.0058Y-3.6781
X4.0132Y-2.3431
X4.0246Y-2.8102
X4.0326Y-3.8432
X4.0326Y-4.2342
X4.0558Y-4.6181
X4.0746Y-2.4602
X4.0786Y-2.3812
X4.0786Y-2.5342
X4.0826Y-2.0522
X4.0866Y-2.2052
X4.1923Y-2.9659
X4.2314Y-2.9706
X4.2556Y-3.7389
X4.2586Y-2.0702
X4.2706Y-2.9972
X4.2758Y-4.1381
X4.2858Y-3.6881
X4.3306Y-3.0182
X4.3456Y-2.0532
X4.3476Y-2.5342
X4.3486Y-2.3842
X4.3516Y-2.2032
X4.3656Y-3.3781
X4.3941Y-3.0182
X4.4186Y-4.3881
X4.4296Y-2.7192
X4.4886Y-4.0492
X4.5296Y-3.0712
X4.5406Y-2.8492
X4.5556Y-2.9442
X4.5576Y-3.0092
X4.5786Y-3.4762
X4.5816Y-2.5352
X4.5846Y-2.0542
X4.5856Y-2.3762
X4.5866Y-2.2102
X4.6326Y-3.0142
X4.6786Y-2.7082
X4.7036Y-3.0142
X4.7426Y-4.8822
X4.7556Y-3.0102
X4.8058Y-4.4581
X4.8116Y-3.0072
X4.8126Y-2.1212
X4.8296Y-2.0532
X4.8366Y-2.3732
X4.8386Y-2.5402
X4.8406Y-2.2112
X5.0526Y-2.6792
X5.0526Y-2.8752
X5.0566Y-2.569
X5.0658Y-4.6381
X5.0806Y-2.7972
X5.0896Y-2.5917
X5.0916Y-2.5362
X5.092Y-2.6804
X5.0966Y-2.2822
X5.1096Y-3.7702
X5.1198Y-2.8012
X5.1238Y-2.6113
X5.1256Y-2.4495
X5.1258Y-3.9881
X5.1312Y-2.6779
X5.1562Y-2.479
X5.1876Y-5.2212
X5.2056Y-2.8032
X5.206Y-2.5782
X5.2246Y-4.9172
X5.2276Y-2.0122
X5.2658Y-2.8581
T2
X3.8976Y-4.3881
X3.8976Y-4.4881
X3.8976Y-4.5881
X3.9058Y-3.2881
X3.9058Y-3.3881
X3.9058Y-3.4881
X3.9058Y-3.5881
X3.9058Y-3.6881
X3.9058Y-3.7881
X5.2058Y-4.3908
X5.2058Y-4.4908
X5.2058Y-4.5908
T3
X4.2053Y-3.2889
X4.2053Y-3.3889
X4.2053Y-3.4889
X4.2053Y-3.5889
X4.2053Y-3.6889
X4.2053Y-3.7889
X4.2053Y-3.8889
X4.2053Y-3.9889
X4.2053Y-4.0889
X4.2053Y-4.1889
X4.2053Y-4.2889
X4.2053Y-4.3889
X4.2053Y-4.4889
X4.2053Y-4.5889
X4.2053Y-4.6889
X4.2053Y-4.7889
X4.2053Y-4.8889
X4.2053Y-4.9889
X4.2053Y-5.0889
X4.2053Y-5.1889
X4.4553Y-3.298
X4.5553Y-3.298
X4.6553Y-3.298
X4.9053Y-3.2889
X4.9053Y-3.3889
X4.9053Y-3.4889
X4.9053Y-3.5889
X4.9053Y-3.6889
X4.9053Y-3.7889
X4.9053Y-3.8889
X4.9053Y-3.9889
X4.9053Y-4.0889
X4.9053Y-4.1889
X4.9053Y-4.2889
X4.9053Y-4.3889
X4.9053Y-4.4889
X4.9053Y-4.5889
X4.9053Y-4.6889
X4.9053Y-4.7889
X4.9053Y-4.8889
X4.9053Y-4.9889
X4.9053Y-5.0889
X4.9053Y-5.1889
T0
M30
