%TF.GenerationSoftware,KiCad,Pcbnew,7.0.5*%
%TF.CreationDate,2023-07-28T19:51:42-07:00*%
%TF.ProjectId,roshambo-pcb-smt,726f7368-616d-4626-9f2d-7063622d736d,rev?*%
%TF.SameCoordinates,Original*%
%TF.FileFunction,Soldermask,Top*%
%TF.FilePolarity,Negative*%
%FSLAX46Y46*%
G04 Gerber Fmt 4.6, Leading zero omitted, Abs format (unit mm)*
G04 Created by KiCad (PCBNEW 7.0.5) date 2023-07-28 19:51:42*
%MOMM*%
%LPD*%
G01*
G04 APERTURE LIST*
G04 Aperture macros list*
%AMRoundRect*
0 Rectangle with rounded corners*
0 $1 Rounding radius*
0 $2 $3 $4 $5 $6 $7 $8 $9 X,Y pos of 4 corners*
0 Add a 4 corners polygon primitive as box body*
4,1,4,$2,$3,$4,$5,$6,$7,$8,$9,$2,$3,0*
0 Add four circle primitives for the rounded corners*
1,1,$1+$1,$2,$3*
1,1,$1+$1,$4,$5*
1,1,$1+$1,$6,$7*
1,1,$1+$1,$8,$9*
0 Add four rect primitives between the rounded corners*
20,1,$1+$1,$2,$3,$4,$5,0*
20,1,$1+$1,$4,$5,$6,$7,0*
20,1,$1+$1,$6,$7,$8,$9,0*
20,1,$1+$1,$8,$9,$2,$3,0*%
G04 Aperture macros list end*
%ADD10R,0.750000X1.000000*%
%ADD11RoundRect,0.135000X-0.135000X-0.185000X0.135000X-0.185000X0.135000X0.185000X-0.135000X0.185000X0*%
%ADD12RoundRect,0.225000X-0.225000X-0.250000X0.225000X-0.250000X0.225000X0.250000X-0.225000X0.250000X0*%
%ADD13RoundRect,0.218750X-0.218750X-0.256250X0.218750X-0.256250X0.218750X0.256250X-0.218750X0.256250X0*%
%ADD14RoundRect,0.150000X-0.150000X0.725000X-0.150000X-0.725000X0.150000X-0.725000X0.150000X0.725000X0*%
%ADD15RoundRect,0.135000X0.185000X-0.135000X0.185000X0.135000X-0.185000X0.135000X-0.185000X-0.135000X0*%
%ADD16R,1.700000X1.700000*%
%ADD17O,1.700000X1.700000*%
%ADD18O,1.800000X1.800000*%
%ADD19O,1.500000X1.500000*%
%ADD20R,3.500000X1.700000*%
%ADD21R,1.700000X3.500000*%
G04 APERTURE END LIST*
D10*
%TO.C,S1*%
X130098254Y-81944991D03*
X130098254Y-75944991D03*
X133848254Y-81944991D03*
X133848254Y-75944991D03*
%TD*%
D11*
%TO.C,R17*%
X132223254Y-88596991D03*
X133243254Y-88596991D03*
%TD*%
D12*
%TO.C,C1*%
X131960254Y-85040991D03*
X133510254Y-85040991D03*
%TD*%
D13*
%TO.C,D4*%
X124095000Y-52152000D03*
X125670000Y-52152000D03*
%TD*%
D14*
%TO.C,U2*%
X113605000Y-72945000D03*
X112335000Y-72945000D03*
X111065000Y-72945000D03*
X109795000Y-72945000D03*
X108525000Y-72945000D03*
X107255000Y-72945000D03*
X105985000Y-72945000D03*
X104715000Y-72945000D03*
X104715000Y-78095000D03*
X105985000Y-78095000D03*
X107255000Y-78095000D03*
X108525000Y-78095000D03*
X109795000Y-78095000D03*
X111065000Y-78095000D03*
X112335000Y-78095000D03*
X113605000Y-78095000D03*
%TD*%
D15*
%TO.C,R3*%
X121350000Y-52662000D03*
X121350000Y-51642000D03*
%TD*%
%TO.C,R12*%
X127647554Y-61002167D03*
X127647554Y-59982167D03*
%TD*%
%TO.C,R16*%
X127441841Y-65253016D03*
X127441841Y-64233016D03*
%TD*%
D16*
%TO.C,J1*%
X99207254Y-83516991D03*
D17*
X99207254Y-86056991D03*
X99207254Y-88596991D03*
X99207254Y-91136991D03*
X99207254Y-93676991D03*
X99207254Y-96216991D03*
%TD*%
D13*
%TO.C,D9*%
X105235579Y-60452739D03*
X106810579Y-60452739D03*
%TD*%
D15*
%TO.C,R14*%
X115147795Y-65358045D03*
X115147795Y-64338045D03*
%TD*%
D14*
%TO.C,U3*%
X125873200Y-72945000D03*
X124603200Y-72945000D03*
X123333200Y-72945000D03*
X122063200Y-72945000D03*
X120793200Y-72945000D03*
X119523200Y-72945000D03*
X118253200Y-72945000D03*
X116983200Y-72945000D03*
X116983200Y-78095000D03*
X118253200Y-78095000D03*
X119523200Y-78095000D03*
X120793200Y-78095000D03*
X122063200Y-78095000D03*
X123333200Y-78095000D03*
X124603200Y-78095000D03*
X125873200Y-78095000D03*
%TD*%
D15*
%TO.C,R4*%
X127658364Y-52899366D03*
X127658364Y-51879366D03*
%TD*%
D13*
%TO.C,D5*%
X105413431Y-56038200D03*
X106988431Y-56038200D03*
%TD*%
D15*
%TO.C,R6*%
X115173066Y-57030800D03*
X115173066Y-56010800D03*
%TD*%
D13*
%TO.C,D1*%
X105368919Y-52152000D03*
X106943919Y-52152000D03*
%TD*%
D15*
%TO.C,R10*%
X115103600Y-61272600D03*
X115103600Y-60252600D03*
%TD*%
D16*
%TO.C,J2*%
X99000000Y-111456991D03*
D17*
X99000000Y-113996991D03*
X99000000Y-116536991D03*
%TD*%
D15*
%TO.C,R11*%
X121148800Y-61501200D03*
X121148800Y-60481200D03*
%TD*%
D13*
%TO.C,D6*%
X111826900Y-56038200D03*
X113401900Y-56038200D03*
%TD*%
%TO.C,D16*%
X124222100Y-64547200D03*
X125797100Y-64547200D03*
%TD*%
%TO.C,D10*%
X111675046Y-60537606D03*
X113250046Y-60537606D03*
%TD*%
D15*
%TO.C,R5*%
X109204512Y-57058200D03*
X109204512Y-56038200D03*
%TD*%
%TO.C,R2*%
X114950754Y-53091800D03*
X114950754Y-52071800D03*
%TD*%
%TO.C,R13*%
X109179241Y-65385445D03*
X109179241Y-64365445D03*
%TD*%
D13*
%TO.C,D3*%
X117763919Y-52152000D03*
X119338919Y-52152000D03*
%TD*%
D16*
%TO.C,J3*%
X132227254Y-111525869D03*
D17*
X132227254Y-114065869D03*
X132227254Y-116605869D03*
%TD*%
D13*
%TO.C,D14*%
X111801629Y-64365445D03*
X113376629Y-64365445D03*
%TD*%
D15*
%TO.C,R1*%
X109160000Y-52662000D03*
X109160000Y-51642000D03*
%TD*%
D13*
%TO.C,D11*%
X117795900Y-60280000D03*
X119370900Y-60280000D03*
%TD*%
%TO.C,D13*%
X105083160Y-64365445D03*
X106658160Y-64365445D03*
%TD*%
%TO.C,D15*%
X117764241Y-64365445D03*
X119339241Y-64365445D03*
%TD*%
D18*
%TO.C,U1*%
X118429336Y-131668709D03*
D19*
X118129336Y-128638709D03*
X113279336Y-128638709D03*
D18*
X112979336Y-131668709D03*
D17*
X124594336Y-131798709D03*
D20*
X125494336Y-131798709D03*
D17*
X124594336Y-129258709D03*
D20*
X125494336Y-129258709D03*
D16*
X124594336Y-126718709D03*
D20*
X125494336Y-126718709D03*
D17*
X124594336Y-124178709D03*
D20*
X125494336Y-124178709D03*
D17*
X124594336Y-121638709D03*
D20*
X125494336Y-121638709D03*
D17*
X124594336Y-119098709D03*
D20*
X125494336Y-119098709D03*
D17*
X124594336Y-116558709D03*
D20*
X125494336Y-116558709D03*
D16*
X124594336Y-114018709D03*
D20*
X125494336Y-114018709D03*
D17*
X124594336Y-111478709D03*
D20*
X125494336Y-111478709D03*
D17*
X124594336Y-108938709D03*
D20*
X125494336Y-108938709D03*
D17*
X124594336Y-106398709D03*
D20*
X125494336Y-106398709D03*
D17*
X124594336Y-103858709D03*
D20*
X125494336Y-103858709D03*
D16*
X124594336Y-101318709D03*
D20*
X125494336Y-101318709D03*
D17*
X124594336Y-98778709D03*
D20*
X125494336Y-98778709D03*
D17*
X124594336Y-96238709D03*
D20*
X125494336Y-96238709D03*
D17*
X124594336Y-93698709D03*
D20*
X125494336Y-93698709D03*
D17*
X124594336Y-91158709D03*
D20*
X125494336Y-91158709D03*
D16*
X124594336Y-88618709D03*
D20*
X125494336Y-88618709D03*
D17*
X124594336Y-86078709D03*
D20*
X125494336Y-86078709D03*
D17*
X124594336Y-83538709D03*
D20*
X125494336Y-83538709D03*
D17*
X106814336Y-83538709D03*
D20*
X105914336Y-83538709D03*
D17*
X106814336Y-86078709D03*
D20*
X105914336Y-86078709D03*
D16*
X106814336Y-88618709D03*
D20*
X105914336Y-88618709D03*
D17*
X106814336Y-91158709D03*
D20*
X105914336Y-91158709D03*
D17*
X106814336Y-93698709D03*
D20*
X105914336Y-93698709D03*
D17*
X106814336Y-96238709D03*
D20*
X105914336Y-96238709D03*
D17*
X106814336Y-98778709D03*
D20*
X105914336Y-98778709D03*
D16*
X106814336Y-101318709D03*
D20*
X105914336Y-101318709D03*
D17*
X106814336Y-103858709D03*
D20*
X105914336Y-103858709D03*
D17*
X106814336Y-106398709D03*
D20*
X105914336Y-106398709D03*
D17*
X106814336Y-108938709D03*
D20*
X105914336Y-108938709D03*
D17*
X106814336Y-111478709D03*
D20*
X105914336Y-111478709D03*
D16*
X106814336Y-114018709D03*
D20*
X105914336Y-114018709D03*
D17*
X106814336Y-116558709D03*
D20*
X105914336Y-116558709D03*
D17*
X106814336Y-119098709D03*
D20*
X105914336Y-119098709D03*
D17*
X106814336Y-121638709D03*
D20*
X105914336Y-121638709D03*
D17*
X106814336Y-124178709D03*
D20*
X105914336Y-124178709D03*
D16*
X106814336Y-126718709D03*
D20*
X105914336Y-126718709D03*
D17*
X106814336Y-129258709D03*
D20*
X105914336Y-129258709D03*
D17*
X106814336Y-131798709D03*
D20*
X105914336Y-131798709D03*
D17*
X118244336Y-83768709D03*
D21*
X118244336Y-82868709D03*
D16*
X115704336Y-83768709D03*
D21*
X115704336Y-82868709D03*
D17*
X113164336Y-83768709D03*
D21*
X113164336Y-82868709D03*
%TD*%
D15*
%TO.C,R8*%
X127702876Y-57058200D03*
X127702876Y-56038200D03*
%TD*%
%TO.C,R7*%
X121631400Y-57081600D03*
X121631400Y-56061600D03*
%TD*%
D13*
%TO.C,D2*%
X111782388Y-52152000D03*
X113357388Y-52152000D03*
%TD*%
D15*
%TO.C,R9*%
X109135046Y-61550000D03*
X109135046Y-60530000D03*
%TD*%
D13*
%TO.C,D8*%
X124250902Y-56095839D03*
X125825902Y-56095839D03*
%TD*%
%TO.C,D12*%
X124160219Y-60198138D03*
X125735219Y-60198138D03*
%TD*%
%TO.C,D7*%
X117789512Y-56159489D03*
X119364512Y-56159489D03*
%TD*%
D15*
%TO.C,R15*%
X121174200Y-64879400D03*
X121174200Y-63859400D03*
%TD*%
M02*
