%TF.GenerationSoftware,KiCad,Pcbnew,7.0.5*%
%TF.CreationDate,2023-07-15T11:17:08-07:00*%
%TF.ProjectId,roshambo-pcb-smt,726f7368-616d-4626-9f2d-7063622d736d,rev?*%
%TF.SameCoordinates,Original*%
%TF.FileFunction,Legend,Top*%
%TF.FilePolarity,Positive*%
%FSLAX46Y46*%
G04 Gerber Fmt 4.6, Leading zero omitted, Abs format (unit mm)*
G04 Created by KiCad (PCBNEW 7.0.5) date 2023-07-15 11:17:08*
%MOMM*%
%LPD*%
G01*
G04 APERTURE LIST*
G04 Aperture macros list*
%AMRoundRect*
0 Rectangle with rounded corners*
0 $1 Rounding radius*
0 $2 $3 $4 $5 $6 $7 $8 $9 X,Y pos of 4 corners*
0 Add a 4 corners polygon primitive as box body*
4,1,4,$2,$3,$4,$5,$6,$7,$8,$9,$2,$3,0*
0 Add four circle primitives for the rounded corners*
1,1,$1+$1,$2,$3*
1,1,$1+$1,$4,$5*
1,1,$1+$1,$6,$7*
1,1,$1+$1,$8,$9*
0 Add four rect primitives between the rounded corners*
20,1,$1+$1,$2,$3,$4,$5,0*
20,1,$1+$1,$4,$5,$6,$7,0*
20,1,$1+$1,$6,$7,$8,$9,0*
20,1,$1+$1,$8,$9,$2,$3,0*%
G04 Aperture macros list end*
%ADD10C,0.150000*%
%ADD11C,0.120000*%
%ADD12RoundRect,0.218750X-0.218750X-0.256250X0.218750X-0.256250X0.218750X0.256250X-0.218750X0.256250X0*%
%ADD13RoundRect,0.150000X-0.150000X0.725000X-0.150000X-0.725000X0.150000X-0.725000X0.150000X0.725000X0*%
%ADD14RoundRect,0.135000X0.185000X-0.135000X0.185000X0.135000X-0.185000X0.135000X-0.185000X-0.135000X0*%
%ADD15R,1.700000X1.700000*%
%ADD16O,1.700000X1.700000*%
%ADD17O,1.800000X1.800000*%
%ADD18O,1.500000X1.500000*%
%ADD19R,3.500000X1.700000*%
%ADD20R,1.700000X3.500000*%
G04 APERTURE END LIST*
D10*
%TO.C,U2*%
X114514819Y-76281904D02*
X115324342Y-76281904D01*
X115324342Y-76281904D02*
X115419580Y-76234285D01*
X115419580Y-76234285D02*
X115467200Y-76186666D01*
X115467200Y-76186666D02*
X115514819Y-76091428D01*
X115514819Y-76091428D02*
X115514819Y-75900952D01*
X115514819Y-75900952D02*
X115467200Y-75805714D01*
X115467200Y-75805714D02*
X115419580Y-75758095D01*
X115419580Y-75758095D02*
X115324342Y-75710476D01*
X115324342Y-75710476D02*
X114514819Y-75710476D01*
X114610057Y-75281904D02*
X114562438Y-75234285D01*
X114562438Y-75234285D02*
X114514819Y-75139047D01*
X114514819Y-75139047D02*
X114514819Y-74900952D01*
X114514819Y-74900952D02*
X114562438Y-74805714D01*
X114562438Y-74805714D02*
X114610057Y-74758095D01*
X114610057Y-74758095D02*
X114705295Y-74710476D01*
X114705295Y-74710476D02*
X114800533Y-74710476D01*
X114800533Y-74710476D02*
X114943390Y-74758095D01*
X114943390Y-74758095D02*
X115514819Y-75329523D01*
X115514819Y-75329523D02*
X115514819Y-74710476D01*
%TO.C,J1*%
X98685585Y-79194130D02*
X98685585Y-79908415D01*
X98685585Y-79908415D02*
X98637966Y-80051272D01*
X98637966Y-80051272D02*
X98542728Y-80146511D01*
X98542728Y-80146511D02*
X98399871Y-80194130D01*
X98399871Y-80194130D02*
X98304633Y-80194130D01*
X99685585Y-80194130D02*
X99114157Y-80194130D01*
X99399871Y-80194130D02*
X99399871Y-79194130D01*
X99399871Y-79194130D02*
X99304633Y-79336987D01*
X99304633Y-79336987D02*
X99209395Y-79432225D01*
X99209395Y-79432225D02*
X99114157Y-79479844D01*
%TO.C,U3*%
X126783019Y-76281904D02*
X127592542Y-76281904D01*
X127592542Y-76281904D02*
X127687780Y-76234285D01*
X127687780Y-76234285D02*
X127735400Y-76186666D01*
X127735400Y-76186666D02*
X127783019Y-76091428D01*
X127783019Y-76091428D02*
X127783019Y-75900952D01*
X127783019Y-75900952D02*
X127735400Y-75805714D01*
X127735400Y-75805714D02*
X127687780Y-75758095D01*
X127687780Y-75758095D02*
X127592542Y-75710476D01*
X127592542Y-75710476D02*
X126783019Y-75710476D01*
X126783019Y-75329523D02*
X126783019Y-74710476D01*
X126783019Y-74710476D02*
X127163971Y-75043809D01*
X127163971Y-75043809D02*
X127163971Y-74900952D01*
X127163971Y-74900952D02*
X127211590Y-74805714D01*
X127211590Y-74805714D02*
X127259209Y-74758095D01*
X127259209Y-74758095D02*
X127354447Y-74710476D01*
X127354447Y-74710476D02*
X127592542Y-74710476D01*
X127592542Y-74710476D02*
X127687780Y-74758095D01*
X127687780Y-74758095D02*
X127735400Y-74805714D01*
X127735400Y-74805714D02*
X127783019Y-74900952D01*
X127783019Y-74900952D02*
X127783019Y-75186666D01*
X127783019Y-75186666D02*
X127735400Y-75281904D01*
X127735400Y-75281904D02*
X127687780Y-75329523D01*
%TO.C,J2*%
X98685585Y-108650688D02*
X98685585Y-109364973D01*
X98685585Y-109364973D02*
X98637966Y-109507830D01*
X98637966Y-109507830D02*
X98542728Y-109603069D01*
X98542728Y-109603069D02*
X98399871Y-109650688D01*
X98399871Y-109650688D02*
X98304633Y-109650688D01*
X99114157Y-108745926D02*
X99161776Y-108698307D01*
X99161776Y-108698307D02*
X99257014Y-108650688D01*
X99257014Y-108650688D02*
X99495109Y-108650688D01*
X99495109Y-108650688D02*
X99590347Y-108698307D01*
X99590347Y-108698307D02*
X99637966Y-108745926D01*
X99637966Y-108745926D02*
X99685585Y-108841164D01*
X99685585Y-108841164D02*
X99685585Y-108936402D01*
X99685585Y-108936402D02*
X99637966Y-109079259D01*
X99637966Y-109079259D02*
X99066538Y-109650688D01*
X99066538Y-109650688D02*
X99685585Y-109650688D01*
%TO.C,J3*%
X131705585Y-108650688D02*
X131705585Y-109364973D01*
X131705585Y-109364973D02*
X131657966Y-109507830D01*
X131657966Y-109507830D02*
X131562728Y-109603069D01*
X131562728Y-109603069D02*
X131419871Y-109650688D01*
X131419871Y-109650688D02*
X131324633Y-109650688D01*
X132086538Y-108650688D02*
X132705585Y-108650688D01*
X132705585Y-108650688D02*
X132372252Y-109031640D01*
X132372252Y-109031640D02*
X132515109Y-109031640D01*
X132515109Y-109031640D02*
X132610347Y-109079259D01*
X132610347Y-109079259D02*
X132657966Y-109126878D01*
X132657966Y-109126878D02*
X132705585Y-109222116D01*
X132705585Y-109222116D02*
X132705585Y-109460211D01*
X132705585Y-109460211D02*
X132657966Y-109555449D01*
X132657966Y-109555449D02*
X132610347Y-109603069D01*
X132610347Y-109603069D02*
X132515109Y-109650688D01*
X132515109Y-109650688D02*
X132229395Y-109650688D01*
X132229395Y-109650688D02*
X132134157Y-109603069D01*
X132134157Y-109603069D02*
X132086538Y-109555449D01*
%TO.C,U1*%
X114748095Y-106216819D02*
X114748095Y-107026342D01*
X114748095Y-107026342D02*
X114795714Y-107121580D01*
X114795714Y-107121580D02*
X114843333Y-107169200D01*
X114843333Y-107169200D02*
X114938571Y-107216819D01*
X114938571Y-107216819D02*
X115129047Y-107216819D01*
X115129047Y-107216819D02*
X115224285Y-107169200D01*
X115224285Y-107169200D02*
X115271904Y-107121580D01*
X115271904Y-107121580D02*
X115319523Y-107026342D01*
X115319523Y-107026342D02*
X115319523Y-106216819D01*
X116319523Y-107216819D02*
X115748095Y-107216819D01*
X116033809Y-107216819D02*
X116033809Y-106216819D01*
X116033809Y-106216819D02*
X115938571Y-106359676D01*
X115938571Y-106359676D02*
X115843333Y-106454914D01*
X115843333Y-106454914D02*
X115748095Y-106502533D01*
X101996435Y-113260431D02*
X101915623Y-113287368D01*
X101915623Y-113287368D02*
X101834811Y-113368180D01*
X101834811Y-113368180D02*
X101780936Y-113475930D01*
X101780936Y-113475930D02*
X101780936Y-113583680D01*
X101780936Y-113583680D02*
X101807873Y-113664492D01*
X101807873Y-113664492D02*
X101888685Y-113799179D01*
X101888685Y-113799179D02*
X101969498Y-113879991D01*
X101969498Y-113879991D02*
X102104185Y-113960803D01*
X102104185Y-113960803D02*
X102184997Y-113987741D01*
X102184997Y-113987741D02*
X102292746Y-113987741D01*
X102292746Y-113987741D02*
X102400496Y-113933866D01*
X102400496Y-113933866D02*
X102454371Y-113879991D01*
X102454371Y-113879991D02*
X102508246Y-113772241D01*
X102508246Y-113772241D02*
X102508246Y-113718367D01*
X102508246Y-113718367D02*
X102319684Y-113529805D01*
X102319684Y-113529805D02*
X102211934Y-113637554D01*
X102804557Y-113529805D02*
X102238872Y-112964119D01*
X102238872Y-112964119D02*
X103127806Y-113206556D01*
X103127806Y-113206556D02*
X102562120Y-112640871D01*
X103397180Y-112937182D02*
X102831494Y-112371497D01*
X102831494Y-112371497D02*
X102966181Y-112236810D01*
X102966181Y-112236810D02*
X103073931Y-112182935D01*
X103073931Y-112182935D02*
X103181680Y-112182935D01*
X103181680Y-112182935D02*
X103262493Y-112209872D01*
X103262493Y-112209872D02*
X103397180Y-112290685D01*
X103397180Y-112290685D02*
X103477992Y-112371497D01*
X103477992Y-112371497D02*
X103558804Y-112506184D01*
X103558804Y-112506184D02*
X103585741Y-112586996D01*
X103585741Y-112586996D02*
X103585741Y-112694746D01*
X103585741Y-112694746D02*
X103531867Y-112802495D01*
X103531867Y-112802495D02*
X103397180Y-112937182D01*
X127665064Y-96296049D02*
X127934438Y-96026675D01*
X127772813Y-96511549D02*
X127395690Y-95757301D01*
X127395690Y-95757301D02*
X128149937Y-96134425D01*
X128338499Y-95945863D02*
X127772813Y-95380178D01*
X127772813Y-95380178D02*
X127907500Y-95245491D01*
X127907500Y-95245491D02*
X128015250Y-95191616D01*
X128015250Y-95191616D02*
X128122999Y-95191616D01*
X128122999Y-95191616D02*
X128203812Y-95218553D01*
X128203812Y-95218553D02*
X128338499Y-95299366D01*
X128338499Y-95299366D02*
X128419311Y-95380178D01*
X128419311Y-95380178D02*
X128500123Y-95514865D01*
X128500123Y-95514865D02*
X128527060Y-95595677D01*
X128527060Y-95595677D02*
X128527060Y-95703427D01*
X128527060Y-95703427D02*
X128473186Y-95811176D01*
X128473186Y-95811176D02*
X128338499Y-95945863D01*
X129173558Y-95003054D02*
X129173558Y-95056929D01*
X129173558Y-95056929D02*
X129119683Y-95164679D01*
X129119683Y-95164679D02*
X129065808Y-95218553D01*
X129065808Y-95218553D02*
X128958059Y-95272428D01*
X128958059Y-95272428D02*
X128850309Y-95272428D01*
X128850309Y-95272428D02*
X128769497Y-95245491D01*
X128769497Y-95245491D02*
X128634810Y-95164679D01*
X128634810Y-95164679D02*
X128553998Y-95083866D01*
X128553998Y-95083866D02*
X128473186Y-94949179D01*
X128473186Y-94949179D02*
X128446248Y-94868367D01*
X128446248Y-94868367D02*
X128446248Y-94760618D01*
X128446248Y-94760618D02*
X128500123Y-94652868D01*
X128500123Y-94652868D02*
X128553998Y-94598993D01*
X128553998Y-94598993D02*
X128661747Y-94545118D01*
X128661747Y-94545118D02*
X128715622Y-94545118D01*
X129389057Y-95003054D02*
X129820056Y-94572056D01*
X129254370Y-93898621D02*
X130008618Y-94275744D01*
X130008618Y-94275744D02*
X129631494Y-93521497D01*
X130708990Y-93575372D02*
X130251054Y-93494560D01*
X130385741Y-93898621D02*
X129820056Y-93332935D01*
X129820056Y-93332935D02*
X130035555Y-93117436D01*
X130035555Y-93117436D02*
X130116367Y-93090499D01*
X130116367Y-93090499D02*
X130170242Y-93090499D01*
X130170242Y-93090499D02*
X130251054Y-93117436D01*
X130251054Y-93117436D02*
X130331866Y-93198248D01*
X130331866Y-93198248D02*
X130358804Y-93279061D01*
X130358804Y-93279061D02*
X130358804Y-93332935D01*
X130358804Y-93332935D02*
X130331866Y-93413748D01*
X130331866Y-93413748D02*
X130116367Y-93629247D01*
X130655115Y-93036624D02*
X130843677Y-92848062D01*
X131220800Y-93063561D02*
X130951426Y-93332935D01*
X130951426Y-93332935D02*
X130385741Y-92767250D01*
X130385741Y-92767250D02*
X130655115Y-92497876D01*
X131355488Y-92336251D02*
X131166926Y-92524813D01*
X131463237Y-92821125D02*
X130897552Y-92255439D01*
X130897552Y-92255439D02*
X131166926Y-91986065D01*
X127607998Y-98008868D02*
X127527185Y-98035805D01*
X127527185Y-98035805D02*
X127446373Y-98116618D01*
X127446373Y-98116618D02*
X127392498Y-98224367D01*
X127392498Y-98224367D02*
X127392498Y-98332117D01*
X127392498Y-98332117D02*
X127419436Y-98412929D01*
X127419436Y-98412929D02*
X127500248Y-98547616D01*
X127500248Y-98547616D02*
X127581060Y-98628428D01*
X127581060Y-98628428D02*
X127715747Y-98709241D01*
X127715747Y-98709241D02*
X127796560Y-98736178D01*
X127796560Y-98736178D02*
X127904309Y-98736178D01*
X127904309Y-98736178D02*
X128012059Y-98682303D01*
X128012059Y-98682303D02*
X128065934Y-98628428D01*
X128065934Y-98628428D02*
X128119808Y-98520679D01*
X128119808Y-98520679D02*
X128119808Y-98466804D01*
X128119808Y-98466804D02*
X127931247Y-98278242D01*
X127931247Y-98278242D02*
X127823497Y-98385992D01*
X128416120Y-98278242D02*
X127850434Y-97712557D01*
X127850434Y-97712557D02*
X128065934Y-97497057D01*
X128065934Y-97497057D02*
X128146746Y-97470120D01*
X128146746Y-97470120D02*
X128200621Y-97470120D01*
X128200621Y-97470120D02*
X128281433Y-97497057D01*
X128281433Y-97497057D02*
X128362245Y-97577870D01*
X128362245Y-97577870D02*
X128389182Y-97658682D01*
X128389182Y-97658682D02*
X128389182Y-97712557D01*
X128389182Y-97712557D02*
X128362245Y-97793369D01*
X128362245Y-97793369D02*
X128146746Y-98008868D01*
X128443057Y-97227683D02*
X128443057Y-97173809D01*
X128443057Y-97173809D02*
X128469995Y-97092996D01*
X128469995Y-97092996D02*
X128604682Y-96958309D01*
X128604682Y-96958309D02*
X128685494Y-96931372D01*
X128685494Y-96931372D02*
X128739369Y-96931372D01*
X128739369Y-96931372D02*
X128820181Y-96958309D01*
X128820181Y-96958309D02*
X128874056Y-97012184D01*
X128874056Y-97012184D02*
X128927930Y-97119934D01*
X128927930Y-97119934D02*
X128927930Y-97766431D01*
X128927930Y-97766431D02*
X129278117Y-97416245D01*
X129278117Y-96769747D02*
X129197305Y-96796685D01*
X129197305Y-96796685D02*
X129143430Y-96796685D01*
X129143430Y-96796685D02*
X129062618Y-96769747D01*
X129062618Y-96769747D02*
X129035680Y-96742810D01*
X129035680Y-96742810D02*
X129008743Y-96661998D01*
X129008743Y-96661998D02*
X129008743Y-96608123D01*
X129008743Y-96608123D02*
X129035680Y-96527311D01*
X129035680Y-96527311D02*
X129143430Y-96419561D01*
X129143430Y-96419561D02*
X129224242Y-96392624D01*
X129224242Y-96392624D02*
X129278117Y-96392624D01*
X129278117Y-96392624D02*
X129358929Y-96419561D01*
X129358929Y-96419561D02*
X129385866Y-96446499D01*
X129385866Y-96446499D02*
X129412804Y-96527311D01*
X129412804Y-96527311D02*
X129412804Y-96581186D01*
X129412804Y-96581186D02*
X129385866Y-96661998D01*
X129385866Y-96661998D02*
X129278117Y-96769747D01*
X129278117Y-96769747D02*
X129251179Y-96850560D01*
X129251179Y-96850560D02*
X129251179Y-96904434D01*
X129251179Y-96904434D02*
X129278117Y-96985247D01*
X129278117Y-96985247D02*
X129385866Y-97092996D01*
X129385866Y-97092996D02*
X129466679Y-97119934D01*
X129466679Y-97119934D02*
X129520553Y-97119934D01*
X129520553Y-97119934D02*
X129601366Y-97092996D01*
X129601366Y-97092996D02*
X129709115Y-96985247D01*
X129709115Y-96985247D02*
X129736053Y-96904434D01*
X129736053Y-96904434D02*
X129736053Y-96850560D01*
X129736053Y-96850560D02*
X129709115Y-96769747D01*
X129709115Y-96769747D02*
X129601366Y-96661998D01*
X129601366Y-96661998D02*
X129520553Y-96635060D01*
X129520553Y-96635060D02*
X129466679Y-96635060D01*
X129466679Y-96635060D02*
X129385866Y-96661998D01*
X102023372Y-82753494D02*
X101942560Y-82780431D01*
X101942560Y-82780431D02*
X101861748Y-82861243D01*
X101861748Y-82861243D02*
X101807873Y-82968993D01*
X101807873Y-82968993D02*
X101807873Y-83076742D01*
X101807873Y-83076742D02*
X101834810Y-83157555D01*
X101834810Y-83157555D02*
X101915623Y-83292242D01*
X101915623Y-83292242D02*
X101996435Y-83373054D01*
X101996435Y-83373054D02*
X102131122Y-83453866D01*
X102131122Y-83453866D02*
X102211934Y-83480803D01*
X102211934Y-83480803D02*
X102319684Y-83480803D01*
X102319684Y-83480803D02*
X102427433Y-83426929D01*
X102427433Y-83426929D02*
X102481308Y-83373054D01*
X102481308Y-83373054D02*
X102535183Y-83265304D01*
X102535183Y-83265304D02*
X102535183Y-83211429D01*
X102535183Y-83211429D02*
X102346621Y-83022868D01*
X102346621Y-83022868D02*
X102238871Y-83130617D01*
X102831494Y-83022868D02*
X102265809Y-82457182D01*
X102265809Y-82457182D02*
X102481308Y-82241683D01*
X102481308Y-82241683D02*
X102562120Y-82214746D01*
X102562120Y-82214746D02*
X102615995Y-82214746D01*
X102615995Y-82214746D02*
X102696807Y-82241683D01*
X102696807Y-82241683D02*
X102777619Y-82322495D01*
X102777619Y-82322495D02*
X102804557Y-82403307D01*
X102804557Y-82403307D02*
X102804557Y-82457182D01*
X102804557Y-82457182D02*
X102777619Y-82537994D01*
X102777619Y-82537994D02*
X102562120Y-82753494D01*
X102939244Y-81783747D02*
X102993119Y-81729872D01*
X102993119Y-81729872D02*
X103073931Y-81702935D01*
X103073931Y-81702935D02*
X103127806Y-81702935D01*
X103127806Y-81702935D02*
X103208618Y-81729872D01*
X103208618Y-81729872D02*
X103343305Y-81810685D01*
X103343305Y-81810685D02*
X103477992Y-81945372D01*
X103477992Y-81945372D02*
X103558804Y-82080059D01*
X103558804Y-82080059D02*
X103585741Y-82160871D01*
X103585741Y-82160871D02*
X103585741Y-82214746D01*
X103585741Y-82214746D02*
X103558804Y-82295558D01*
X103558804Y-82295558D02*
X103504929Y-82349433D01*
X103504929Y-82349433D02*
X103424117Y-82376370D01*
X103424117Y-82376370D02*
X103370242Y-82376370D01*
X103370242Y-82376370D02*
X103289430Y-82349433D01*
X103289430Y-82349433D02*
X103154743Y-82268620D01*
X103154743Y-82268620D02*
X103020056Y-82133933D01*
X103020056Y-82133933D02*
X102939244Y-81999246D01*
X102939244Y-81999246D02*
X102912306Y-81918434D01*
X102912306Y-81918434D02*
X102912306Y-81864559D01*
X102912306Y-81864559D02*
X102939244Y-81783747D01*
X127607998Y-131282868D02*
X127527185Y-131309805D01*
X127527185Y-131309805D02*
X127446373Y-131390618D01*
X127446373Y-131390618D02*
X127392498Y-131498367D01*
X127392498Y-131498367D02*
X127392498Y-131606117D01*
X127392498Y-131606117D02*
X127419436Y-131686929D01*
X127419436Y-131686929D02*
X127500248Y-131821616D01*
X127500248Y-131821616D02*
X127581060Y-131902428D01*
X127581060Y-131902428D02*
X127715747Y-131983241D01*
X127715747Y-131983241D02*
X127796560Y-132010178D01*
X127796560Y-132010178D02*
X127904309Y-132010178D01*
X127904309Y-132010178D02*
X128012059Y-131956303D01*
X128012059Y-131956303D02*
X128065934Y-131902428D01*
X128065934Y-131902428D02*
X128119808Y-131794679D01*
X128119808Y-131794679D02*
X128119808Y-131740804D01*
X128119808Y-131740804D02*
X127931247Y-131552242D01*
X127931247Y-131552242D02*
X127823497Y-131659992D01*
X128416120Y-131552242D02*
X127850434Y-130986557D01*
X127850434Y-130986557D02*
X128065934Y-130771057D01*
X128065934Y-130771057D02*
X128146746Y-130744120D01*
X128146746Y-130744120D02*
X128200621Y-130744120D01*
X128200621Y-130744120D02*
X128281433Y-130771057D01*
X128281433Y-130771057D02*
X128362245Y-130851870D01*
X128362245Y-130851870D02*
X128389182Y-130932682D01*
X128389182Y-130932682D02*
X128389182Y-130986557D01*
X128389182Y-130986557D02*
X128362245Y-131067369D01*
X128362245Y-131067369D02*
X128146746Y-131282868D01*
X129278117Y-130690245D02*
X128954868Y-131013494D01*
X129116492Y-130851870D02*
X128550807Y-130286184D01*
X128550807Y-130286184D02*
X128577744Y-130420871D01*
X128577744Y-130420871D02*
X128577744Y-130528621D01*
X128577744Y-130528621D02*
X128550807Y-130609433D01*
X129197305Y-129639686D02*
X129089555Y-129747436D01*
X129089555Y-129747436D02*
X129062618Y-129828248D01*
X129062618Y-129828248D02*
X129062618Y-129882123D01*
X129062618Y-129882123D02*
X129089555Y-130016810D01*
X129089555Y-130016810D02*
X129170367Y-130151497D01*
X129170367Y-130151497D02*
X129385866Y-130366996D01*
X129385866Y-130366996D02*
X129466679Y-130393934D01*
X129466679Y-130393934D02*
X129520553Y-130393934D01*
X129520553Y-130393934D02*
X129601366Y-130366996D01*
X129601366Y-130366996D02*
X129709115Y-130259247D01*
X129709115Y-130259247D02*
X129736053Y-130178434D01*
X129736053Y-130178434D02*
X129736053Y-130124560D01*
X129736053Y-130124560D02*
X129709115Y-130043747D01*
X129709115Y-130043747D02*
X129574428Y-129909060D01*
X129574428Y-129909060D02*
X129493616Y-129882123D01*
X129493616Y-129882123D02*
X129439741Y-129882123D01*
X129439741Y-129882123D02*
X129358929Y-129909060D01*
X129358929Y-129909060D02*
X129251179Y-130016810D01*
X129251179Y-130016810D02*
X129224242Y-130097622D01*
X129224242Y-130097622D02*
X129224242Y-130151497D01*
X129224242Y-130151497D02*
X129251179Y-130232309D01*
X101353998Y-121122868D02*
X101273185Y-121149805D01*
X101273185Y-121149805D02*
X101192373Y-121230618D01*
X101192373Y-121230618D02*
X101138498Y-121338367D01*
X101138498Y-121338367D02*
X101138498Y-121446117D01*
X101138498Y-121446117D02*
X101165436Y-121526929D01*
X101165436Y-121526929D02*
X101246248Y-121661616D01*
X101246248Y-121661616D02*
X101327060Y-121742428D01*
X101327060Y-121742428D02*
X101461747Y-121823241D01*
X101461747Y-121823241D02*
X101542560Y-121850178D01*
X101542560Y-121850178D02*
X101650309Y-121850178D01*
X101650309Y-121850178D02*
X101758059Y-121796303D01*
X101758059Y-121796303D02*
X101811934Y-121742428D01*
X101811934Y-121742428D02*
X101865808Y-121634679D01*
X101865808Y-121634679D02*
X101865808Y-121580804D01*
X101865808Y-121580804D02*
X101677247Y-121392242D01*
X101677247Y-121392242D02*
X101569497Y-121499992D01*
X102162120Y-121392242D02*
X101596434Y-120826557D01*
X101596434Y-120826557D02*
X101811934Y-120611057D01*
X101811934Y-120611057D02*
X101892746Y-120584120D01*
X101892746Y-120584120D02*
X101946621Y-120584120D01*
X101946621Y-120584120D02*
X102027433Y-120611057D01*
X102027433Y-120611057D02*
X102108245Y-120691870D01*
X102108245Y-120691870D02*
X102135182Y-120772682D01*
X102135182Y-120772682D02*
X102135182Y-120826557D01*
X102135182Y-120826557D02*
X102108245Y-120907369D01*
X102108245Y-120907369D02*
X101892746Y-121122868D01*
X103024117Y-120530245D02*
X102700868Y-120853494D01*
X102862492Y-120691870D02*
X102296807Y-120126184D01*
X102296807Y-120126184D02*
X102323744Y-120260871D01*
X102323744Y-120260871D02*
X102323744Y-120368621D01*
X102323744Y-120368621D02*
X102296807Y-120449433D01*
X102727805Y-119802935D02*
X102727805Y-119749060D01*
X102727805Y-119749060D02*
X102754743Y-119668248D01*
X102754743Y-119668248D02*
X102889430Y-119533561D01*
X102889430Y-119533561D02*
X102970242Y-119506624D01*
X102970242Y-119506624D02*
X103024117Y-119506624D01*
X103024117Y-119506624D02*
X103104929Y-119533561D01*
X103104929Y-119533561D02*
X103158804Y-119587436D01*
X103158804Y-119587436D02*
X103212679Y-119695186D01*
X103212679Y-119695186D02*
X103212679Y-120341683D01*
X103212679Y-120341683D02*
X103562865Y-119991497D01*
X101996435Y-87860431D02*
X101915623Y-87887368D01*
X101915623Y-87887368D02*
X101834811Y-87968180D01*
X101834811Y-87968180D02*
X101780936Y-88075930D01*
X101780936Y-88075930D02*
X101780936Y-88183680D01*
X101780936Y-88183680D02*
X101807873Y-88264492D01*
X101807873Y-88264492D02*
X101888685Y-88399179D01*
X101888685Y-88399179D02*
X101969498Y-88479991D01*
X101969498Y-88479991D02*
X102104185Y-88560803D01*
X102104185Y-88560803D02*
X102184997Y-88587741D01*
X102184997Y-88587741D02*
X102292746Y-88587741D01*
X102292746Y-88587741D02*
X102400496Y-88533866D01*
X102400496Y-88533866D02*
X102454371Y-88479991D01*
X102454371Y-88479991D02*
X102508246Y-88372241D01*
X102508246Y-88372241D02*
X102508246Y-88318367D01*
X102508246Y-88318367D02*
X102319684Y-88129805D01*
X102319684Y-88129805D02*
X102211934Y-88237554D01*
X102804557Y-88129805D02*
X102238872Y-87564119D01*
X102238872Y-87564119D02*
X103127806Y-87806556D01*
X103127806Y-87806556D02*
X102562120Y-87240871D01*
X103397180Y-87537182D02*
X102831494Y-86971497D01*
X102831494Y-86971497D02*
X102966181Y-86836810D01*
X102966181Y-86836810D02*
X103073931Y-86782935D01*
X103073931Y-86782935D02*
X103181680Y-86782935D01*
X103181680Y-86782935D02*
X103262493Y-86809872D01*
X103262493Y-86809872D02*
X103397180Y-86890685D01*
X103397180Y-86890685D02*
X103477992Y-86971497D01*
X103477992Y-86971497D02*
X103558804Y-87106184D01*
X103558804Y-87106184D02*
X103585741Y-87186996D01*
X103585741Y-87186996D02*
X103585741Y-87294746D01*
X103585741Y-87294746D02*
X103531867Y-87402495D01*
X103531867Y-87402495D02*
X103397180Y-87537182D01*
X127607998Y-105882868D02*
X127527185Y-105909805D01*
X127527185Y-105909805D02*
X127446373Y-105990618D01*
X127446373Y-105990618D02*
X127392498Y-106098367D01*
X127392498Y-106098367D02*
X127392498Y-106206117D01*
X127392498Y-106206117D02*
X127419436Y-106286929D01*
X127419436Y-106286929D02*
X127500248Y-106421616D01*
X127500248Y-106421616D02*
X127581060Y-106502428D01*
X127581060Y-106502428D02*
X127715747Y-106583241D01*
X127715747Y-106583241D02*
X127796560Y-106610178D01*
X127796560Y-106610178D02*
X127904309Y-106610178D01*
X127904309Y-106610178D02*
X128012059Y-106556303D01*
X128012059Y-106556303D02*
X128065934Y-106502428D01*
X128065934Y-106502428D02*
X128119808Y-106394679D01*
X128119808Y-106394679D02*
X128119808Y-106340804D01*
X128119808Y-106340804D02*
X127931247Y-106152242D01*
X127931247Y-106152242D02*
X127823497Y-106259992D01*
X128416120Y-106152242D02*
X127850434Y-105586557D01*
X127850434Y-105586557D02*
X128065934Y-105371057D01*
X128065934Y-105371057D02*
X128146746Y-105344120D01*
X128146746Y-105344120D02*
X128200621Y-105344120D01*
X128200621Y-105344120D02*
X128281433Y-105371057D01*
X128281433Y-105371057D02*
X128362245Y-105451870D01*
X128362245Y-105451870D02*
X128389182Y-105532682D01*
X128389182Y-105532682D02*
X128389182Y-105586557D01*
X128389182Y-105586557D02*
X128362245Y-105667369D01*
X128362245Y-105667369D02*
X128146746Y-105882868D01*
X128443057Y-105101683D02*
X128443057Y-105047809D01*
X128443057Y-105047809D02*
X128469995Y-104966996D01*
X128469995Y-104966996D02*
X128604682Y-104832309D01*
X128604682Y-104832309D02*
X128685494Y-104805372D01*
X128685494Y-104805372D02*
X128739369Y-104805372D01*
X128739369Y-104805372D02*
X128820181Y-104832309D01*
X128820181Y-104832309D02*
X128874056Y-104886184D01*
X128874056Y-104886184D02*
X128927930Y-104993934D01*
X128927930Y-104993934D02*
X128927930Y-105640431D01*
X128927930Y-105640431D02*
X129278117Y-105290245D01*
X129197305Y-104239686D02*
X129089555Y-104347436D01*
X129089555Y-104347436D02*
X129062618Y-104428248D01*
X129062618Y-104428248D02*
X129062618Y-104482123D01*
X129062618Y-104482123D02*
X129089555Y-104616810D01*
X129089555Y-104616810D02*
X129170367Y-104751497D01*
X129170367Y-104751497D02*
X129385866Y-104966996D01*
X129385866Y-104966996D02*
X129466679Y-104993934D01*
X129466679Y-104993934D02*
X129520553Y-104993934D01*
X129520553Y-104993934D02*
X129601366Y-104966996D01*
X129601366Y-104966996D02*
X129709115Y-104859247D01*
X129709115Y-104859247D02*
X129736053Y-104778434D01*
X129736053Y-104778434D02*
X129736053Y-104724560D01*
X129736053Y-104724560D02*
X129709115Y-104643747D01*
X129709115Y-104643747D02*
X129574428Y-104509060D01*
X129574428Y-104509060D02*
X129493616Y-104482123D01*
X129493616Y-104482123D02*
X129439741Y-104482123D01*
X129439741Y-104482123D02*
X129358929Y-104509060D01*
X129358929Y-104509060D02*
X129251179Y-104616810D01*
X129251179Y-104616810D02*
X129224242Y-104697622D01*
X129224242Y-104697622D02*
X129224242Y-104751497D01*
X129224242Y-104751497D02*
X129251179Y-104832309D01*
X127607998Y-110962868D02*
X127527185Y-110989805D01*
X127527185Y-110989805D02*
X127446373Y-111070618D01*
X127446373Y-111070618D02*
X127392498Y-111178367D01*
X127392498Y-111178367D02*
X127392498Y-111286117D01*
X127392498Y-111286117D02*
X127419436Y-111366929D01*
X127419436Y-111366929D02*
X127500248Y-111501616D01*
X127500248Y-111501616D02*
X127581060Y-111582428D01*
X127581060Y-111582428D02*
X127715747Y-111663241D01*
X127715747Y-111663241D02*
X127796560Y-111690178D01*
X127796560Y-111690178D02*
X127904309Y-111690178D01*
X127904309Y-111690178D02*
X128012059Y-111636303D01*
X128012059Y-111636303D02*
X128065934Y-111582428D01*
X128065934Y-111582428D02*
X128119808Y-111474679D01*
X128119808Y-111474679D02*
X128119808Y-111420804D01*
X128119808Y-111420804D02*
X127931247Y-111232242D01*
X127931247Y-111232242D02*
X127823497Y-111339992D01*
X128416120Y-111232242D02*
X127850434Y-110666557D01*
X127850434Y-110666557D02*
X128065934Y-110451057D01*
X128065934Y-110451057D02*
X128146746Y-110424120D01*
X128146746Y-110424120D02*
X128200621Y-110424120D01*
X128200621Y-110424120D02*
X128281433Y-110451057D01*
X128281433Y-110451057D02*
X128362245Y-110531870D01*
X128362245Y-110531870D02*
X128389182Y-110612682D01*
X128389182Y-110612682D02*
X128389182Y-110666557D01*
X128389182Y-110666557D02*
X128362245Y-110747369D01*
X128362245Y-110747369D02*
X128146746Y-110962868D01*
X128443057Y-110181683D02*
X128443057Y-110127809D01*
X128443057Y-110127809D02*
X128469995Y-110046996D01*
X128469995Y-110046996D02*
X128604682Y-109912309D01*
X128604682Y-109912309D02*
X128685494Y-109885372D01*
X128685494Y-109885372D02*
X128739369Y-109885372D01*
X128739369Y-109885372D02*
X128820181Y-109912309D01*
X128820181Y-109912309D02*
X128874056Y-109966184D01*
X128874056Y-109966184D02*
X128927930Y-110073934D01*
X128927930Y-110073934D02*
X128927930Y-110720431D01*
X128927930Y-110720431D02*
X129278117Y-110370245D01*
X128981805Y-109642935D02*
X128981805Y-109589060D01*
X128981805Y-109589060D02*
X129008743Y-109508248D01*
X129008743Y-109508248D02*
X129143430Y-109373561D01*
X129143430Y-109373561D02*
X129224242Y-109346624D01*
X129224242Y-109346624D02*
X129278117Y-109346624D01*
X129278117Y-109346624D02*
X129358929Y-109373561D01*
X129358929Y-109373561D02*
X129412804Y-109427436D01*
X129412804Y-109427436D02*
X129466679Y-109535186D01*
X129466679Y-109535186D02*
X129466679Y-110181683D01*
X129466679Y-110181683D02*
X129816865Y-109831497D01*
X101923372Y-85283494D02*
X101842560Y-85310431D01*
X101842560Y-85310431D02*
X101761748Y-85391243D01*
X101761748Y-85391243D02*
X101707873Y-85498993D01*
X101707873Y-85498993D02*
X101707873Y-85606742D01*
X101707873Y-85606742D02*
X101734810Y-85687555D01*
X101734810Y-85687555D02*
X101815623Y-85822242D01*
X101815623Y-85822242D02*
X101896435Y-85903054D01*
X101896435Y-85903054D02*
X102031122Y-85983866D01*
X102031122Y-85983866D02*
X102111934Y-86010803D01*
X102111934Y-86010803D02*
X102219684Y-86010803D01*
X102219684Y-86010803D02*
X102327433Y-85956929D01*
X102327433Y-85956929D02*
X102381308Y-85903054D01*
X102381308Y-85903054D02*
X102435183Y-85795304D01*
X102435183Y-85795304D02*
X102435183Y-85741429D01*
X102435183Y-85741429D02*
X102246621Y-85552868D01*
X102246621Y-85552868D02*
X102138871Y-85660617D01*
X102731494Y-85552868D02*
X102165809Y-84987182D01*
X102165809Y-84987182D02*
X102381308Y-84771683D01*
X102381308Y-84771683D02*
X102462120Y-84744746D01*
X102462120Y-84744746D02*
X102515995Y-84744746D01*
X102515995Y-84744746D02*
X102596807Y-84771683D01*
X102596807Y-84771683D02*
X102677619Y-84852495D01*
X102677619Y-84852495D02*
X102704557Y-84933307D01*
X102704557Y-84933307D02*
X102704557Y-84987182D01*
X102704557Y-84987182D02*
X102677619Y-85067994D01*
X102677619Y-85067994D02*
X102462120Y-85283494D01*
X103593491Y-84690871D02*
X103270242Y-85014120D01*
X103431867Y-84852495D02*
X102866181Y-84286810D01*
X102866181Y-84286810D02*
X102893119Y-84421497D01*
X102893119Y-84421497D02*
X102893119Y-84529246D01*
X102893119Y-84529246D02*
X102866181Y-84610059D01*
X128348651Y-108705710D02*
X127890716Y-108624898D01*
X128025403Y-109028959D02*
X127459717Y-108463274D01*
X127459717Y-108463274D02*
X127675216Y-108247775D01*
X127675216Y-108247775D02*
X127756029Y-108220837D01*
X127756029Y-108220837D02*
X127809903Y-108220837D01*
X127809903Y-108220837D02*
X127890716Y-108247775D01*
X127890716Y-108247775D02*
X127971528Y-108328587D01*
X127971528Y-108328587D02*
X127998465Y-108409399D01*
X127998465Y-108409399D02*
X127998465Y-108463274D01*
X127998465Y-108463274D02*
X127971528Y-108544086D01*
X127971528Y-108544086D02*
X127756029Y-108759585D01*
X128025403Y-107897588D02*
X128483338Y-108355524D01*
X128483338Y-108355524D02*
X128564151Y-108382462D01*
X128564151Y-108382462D02*
X128618025Y-108382462D01*
X128618025Y-108382462D02*
X128698838Y-108355524D01*
X128698838Y-108355524D02*
X128806587Y-108247775D01*
X128806587Y-108247775D02*
X128833525Y-108166962D01*
X128833525Y-108166962D02*
X128833525Y-108113088D01*
X128833525Y-108113088D02*
X128806587Y-108032275D01*
X128806587Y-108032275D02*
X128348651Y-107574340D01*
X129183711Y-107870651D02*
X128618025Y-107304966D01*
X128618025Y-107304966D02*
X129506959Y-107547402D01*
X129506959Y-107547402D02*
X128941274Y-106981717D01*
X102023372Y-92913494D02*
X101942560Y-92940431D01*
X101942560Y-92940431D02*
X101861748Y-93021243D01*
X101861748Y-93021243D02*
X101807873Y-93128993D01*
X101807873Y-93128993D02*
X101807873Y-93236742D01*
X101807873Y-93236742D02*
X101834810Y-93317555D01*
X101834810Y-93317555D02*
X101915623Y-93452242D01*
X101915623Y-93452242D02*
X101996435Y-93533054D01*
X101996435Y-93533054D02*
X102131122Y-93613866D01*
X102131122Y-93613866D02*
X102211934Y-93640803D01*
X102211934Y-93640803D02*
X102319684Y-93640803D01*
X102319684Y-93640803D02*
X102427433Y-93586929D01*
X102427433Y-93586929D02*
X102481308Y-93533054D01*
X102481308Y-93533054D02*
X102535183Y-93425304D01*
X102535183Y-93425304D02*
X102535183Y-93371429D01*
X102535183Y-93371429D02*
X102346621Y-93182868D01*
X102346621Y-93182868D02*
X102238871Y-93290617D01*
X102831494Y-93182868D02*
X102265809Y-92617182D01*
X102265809Y-92617182D02*
X102481308Y-92401683D01*
X102481308Y-92401683D02*
X102562120Y-92374746D01*
X102562120Y-92374746D02*
X102615995Y-92374746D01*
X102615995Y-92374746D02*
X102696807Y-92401683D01*
X102696807Y-92401683D02*
X102777619Y-92482495D01*
X102777619Y-92482495D02*
X102804557Y-92563307D01*
X102804557Y-92563307D02*
X102804557Y-92617182D01*
X102804557Y-92617182D02*
X102777619Y-92697994D01*
X102777619Y-92697994D02*
X102562120Y-92913494D01*
X102777619Y-92105372D02*
X103127806Y-91755185D01*
X103127806Y-91755185D02*
X103154743Y-92159246D01*
X103154743Y-92159246D02*
X103235555Y-92078434D01*
X103235555Y-92078434D02*
X103316367Y-92051497D01*
X103316367Y-92051497D02*
X103370242Y-92051497D01*
X103370242Y-92051497D02*
X103451054Y-92078434D01*
X103451054Y-92078434D02*
X103585741Y-92213121D01*
X103585741Y-92213121D02*
X103612679Y-92293933D01*
X103612679Y-92293933D02*
X103612679Y-92347808D01*
X103612679Y-92347808D02*
X103585741Y-92428620D01*
X103585741Y-92428620D02*
X103424117Y-92590245D01*
X103424117Y-92590245D02*
X103343305Y-92617182D01*
X103343305Y-92617182D02*
X103289430Y-92617182D01*
X127607998Y-121122868D02*
X127527185Y-121149805D01*
X127527185Y-121149805D02*
X127446373Y-121230618D01*
X127446373Y-121230618D02*
X127392498Y-121338367D01*
X127392498Y-121338367D02*
X127392498Y-121446117D01*
X127392498Y-121446117D02*
X127419436Y-121526929D01*
X127419436Y-121526929D02*
X127500248Y-121661616D01*
X127500248Y-121661616D02*
X127581060Y-121742428D01*
X127581060Y-121742428D02*
X127715747Y-121823241D01*
X127715747Y-121823241D02*
X127796560Y-121850178D01*
X127796560Y-121850178D02*
X127904309Y-121850178D01*
X127904309Y-121850178D02*
X128012059Y-121796303D01*
X128012059Y-121796303D02*
X128065934Y-121742428D01*
X128065934Y-121742428D02*
X128119808Y-121634679D01*
X128119808Y-121634679D02*
X128119808Y-121580804D01*
X128119808Y-121580804D02*
X127931247Y-121392242D01*
X127931247Y-121392242D02*
X127823497Y-121499992D01*
X128416120Y-121392242D02*
X127850434Y-120826557D01*
X127850434Y-120826557D02*
X128065934Y-120611057D01*
X128065934Y-120611057D02*
X128146746Y-120584120D01*
X128146746Y-120584120D02*
X128200621Y-120584120D01*
X128200621Y-120584120D02*
X128281433Y-120611057D01*
X128281433Y-120611057D02*
X128362245Y-120691870D01*
X128362245Y-120691870D02*
X128389182Y-120772682D01*
X128389182Y-120772682D02*
X128389182Y-120826557D01*
X128389182Y-120826557D02*
X128362245Y-120907369D01*
X128362245Y-120907369D02*
X128146746Y-121122868D01*
X129278117Y-120530245D02*
X128954868Y-120853494D01*
X129116492Y-120691870D02*
X128550807Y-120126184D01*
X128550807Y-120126184D02*
X128577744Y-120260871D01*
X128577744Y-120260871D02*
X128577744Y-120368621D01*
X128577744Y-120368621D02*
X128550807Y-120449433D01*
X129547491Y-120260871D02*
X129655240Y-120153121D01*
X129655240Y-120153121D02*
X129682178Y-120072309D01*
X129682178Y-120072309D02*
X129682178Y-120018434D01*
X129682178Y-120018434D02*
X129655240Y-119883747D01*
X129655240Y-119883747D02*
X129574428Y-119749060D01*
X129574428Y-119749060D02*
X129358929Y-119533561D01*
X129358929Y-119533561D02*
X129278117Y-119506624D01*
X129278117Y-119506624D02*
X129224242Y-119506624D01*
X129224242Y-119506624D02*
X129143430Y-119533561D01*
X129143430Y-119533561D02*
X129035680Y-119641311D01*
X129035680Y-119641311D02*
X129008743Y-119722123D01*
X129008743Y-119722123D02*
X129008743Y-119775998D01*
X129008743Y-119775998D02*
X129035680Y-119856810D01*
X129035680Y-119856810D02*
X129170367Y-119991497D01*
X129170367Y-119991497D02*
X129251179Y-120018434D01*
X129251179Y-120018434D02*
X129305054Y-120018434D01*
X129305054Y-120018434D02*
X129385866Y-119991497D01*
X129385866Y-119991497D02*
X129493616Y-119883747D01*
X129493616Y-119883747D02*
X129520553Y-119802935D01*
X129520553Y-119802935D02*
X129520553Y-119749060D01*
X129520553Y-119749060D02*
X129493616Y-119668248D01*
X101453998Y-128742868D02*
X101373185Y-128769805D01*
X101373185Y-128769805D02*
X101292373Y-128850618D01*
X101292373Y-128850618D02*
X101238498Y-128958367D01*
X101238498Y-128958367D02*
X101238498Y-129066117D01*
X101238498Y-129066117D02*
X101265436Y-129146929D01*
X101265436Y-129146929D02*
X101346248Y-129281616D01*
X101346248Y-129281616D02*
X101427060Y-129362428D01*
X101427060Y-129362428D02*
X101561747Y-129443241D01*
X101561747Y-129443241D02*
X101642560Y-129470178D01*
X101642560Y-129470178D02*
X101750309Y-129470178D01*
X101750309Y-129470178D02*
X101858059Y-129416303D01*
X101858059Y-129416303D02*
X101911934Y-129362428D01*
X101911934Y-129362428D02*
X101965808Y-129254679D01*
X101965808Y-129254679D02*
X101965808Y-129200804D01*
X101965808Y-129200804D02*
X101777247Y-129012242D01*
X101777247Y-129012242D02*
X101669497Y-129119992D01*
X102262120Y-129012242D02*
X101696434Y-128446557D01*
X101696434Y-128446557D02*
X101911934Y-128231057D01*
X101911934Y-128231057D02*
X101992746Y-128204120D01*
X101992746Y-128204120D02*
X102046621Y-128204120D01*
X102046621Y-128204120D02*
X102127433Y-128231057D01*
X102127433Y-128231057D02*
X102208245Y-128311870D01*
X102208245Y-128311870D02*
X102235182Y-128392682D01*
X102235182Y-128392682D02*
X102235182Y-128446557D01*
X102235182Y-128446557D02*
X102208245Y-128527369D01*
X102208245Y-128527369D02*
X101992746Y-128742868D01*
X103124117Y-128150245D02*
X102800868Y-128473494D01*
X102962492Y-128311870D02*
X102396807Y-127746184D01*
X102396807Y-127746184D02*
X102423744Y-127880871D01*
X102423744Y-127880871D02*
X102423744Y-127988621D01*
X102423744Y-127988621D02*
X102396807Y-128069433D01*
X103231866Y-127288248D02*
X103608990Y-127665372D01*
X102881680Y-127207436D02*
X103151054Y-127746184D01*
X103151054Y-127746184D02*
X103501240Y-127395998D01*
X127430749Y-85832242D02*
X128184996Y-86209366D01*
X128184996Y-86209366D02*
X127807873Y-85455118D01*
X128508245Y-85832242D02*
X128615995Y-85778367D01*
X128615995Y-85778367D02*
X128750682Y-85643680D01*
X128750682Y-85643680D02*
X128777619Y-85562868D01*
X128777619Y-85562868D02*
X128777619Y-85508993D01*
X128777619Y-85508993D02*
X128750682Y-85428181D01*
X128750682Y-85428181D02*
X128696807Y-85374306D01*
X128696807Y-85374306D02*
X128615995Y-85347369D01*
X128615995Y-85347369D02*
X128562120Y-85347369D01*
X128562120Y-85347369D02*
X128481308Y-85374306D01*
X128481308Y-85374306D02*
X128346621Y-85455118D01*
X128346621Y-85455118D02*
X128265808Y-85482056D01*
X128265808Y-85482056D02*
X128211934Y-85482056D01*
X128211934Y-85482056D02*
X128131121Y-85455118D01*
X128131121Y-85455118D02*
X128077247Y-85401244D01*
X128077247Y-85401244D02*
X128050309Y-85320431D01*
X128050309Y-85320431D02*
X128050309Y-85266557D01*
X128050309Y-85266557D02*
X128077247Y-85185744D01*
X128077247Y-85185744D02*
X128211934Y-85051057D01*
X128211934Y-85051057D02*
X128319683Y-84997183D01*
X128939244Y-84916370D02*
X129208618Y-85185744D01*
X128454370Y-84808621D02*
X128939244Y-84916370D01*
X128939244Y-84916370D02*
X128831494Y-84431497D01*
X129531866Y-84808621D02*
X129639616Y-84754746D01*
X129639616Y-84754746D02*
X129774303Y-84620059D01*
X129774303Y-84620059D02*
X129801240Y-84539247D01*
X129801240Y-84539247D02*
X129801240Y-84485372D01*
X129801240Y-84485372D02*
X129774303Y-84404560D01*
X129774303Y-84404560D02*
X129720428Y-84350685D01*
X129720428Y-84350685D02*
X129639616Y-84323748D01*
X129639616Y-84323748D02*
X129585741Y-84323748D01*
X129585741Y-84323748D02*
X129504929Y-84350685D01*
X129504929Y-84350685D02*
X129370242Y-84431497D01*
X129370242Y-84431497D02*
X129289430Y-84458435D01*
X129289430Y-84458435D02*
X129235555Y-84458435D01*
X129235555Y-84458435D02*
X129154743Y-84431497D01*
X129154743Y-84431497D02*
X129100868Y-84377622D01*
X129100868Y-84377622D02*
X129073930Y-84296810D01*
X129073930Y-84296810D02*
X129073930Y-84242935D01*
X129073930Y-84242935D02*
X129100868Y-84162123D01*
X129100868Y-84162123D02*
X129235555Y-84027436D01*
X129235555Y-84027436D02*
X129343304Y-83973561D01*
X127607998Y-118582868D02*
X127527185Y-118609805D01*
X127527185Y-118609805D02*
X127446373Y-118690618D01*
X127446373Y-118690618D02*
X127392498Y-118798367D01*
X127392498Y-118798367D02*
X127392498Y-118906117D01*
X127392498Y-118906117D02*
X127419436Y-118986929D01*
X127419436Y-118986929D02*
X127500248Y-119121616D01*
X127500248Y-119121616D02*
X127581060Y-119202428D01*
X127581060Y-119202428D02*
X127715747Y-119283241D01*
X127715747Y-119283241D02*
X127796560Y-119310178D01*
X127796560Y-119310178D02*
X127904309Y-119310178D01*
X127904309Y-119310178D02*
X128012059Y-119256303D01*
X128012059Y-119256303D02*
X128065934Y-119202428D01*
X128065934Y-119202428D02*
X128119808Y-119094679D01*
X128119808Y-119094679D02*
X128119808Y-119040804D01*
X128119808Y-119040804D02*
X127931247Y-118852242D01*
X127931247Y-118852242D02*
X127823497Y-118959992D01*
X128416120Y-118852242D02*
X127850434Y-118286557D01*
X127850434Y-118286557D02*
X128065934Y-118071057D01*
X128065934Y-118071057D02*
X128146746Y-118044120D01*
X128146746Y-118044120D02*
X128200621Y-118044120D01*
X128200621Y-118044120D02*
X128281433Y-118071057D01*
X128281433Y-118071057D02*
X128362245Y-118151870D01*
X128362245Y-118151870D02*
X128389182Y-118232682D01*
X128389182Y-118232682D02*
X128389182Y-118286557D01*
X128389182Y-118286557D02*
X128362245Y-118367369D01*
X128362245Y-118367369D02*
X128146746Y-118582868D01*
X128443057Y-117801683D02*
X128443057Y-117747809D01*
X128443057Y-117747809D02*
X128469995Y-117666996D01*
X128469995Y-117666996D02*
X128604682Y-117532309D01*
X128604682Y-117532309D02*
X128685494Y-117505372D01*
X128685494Y-117505372D02*
X128739369Y-117505372D01*
X128739369Y-117505372D02*
X128820181Y-117532309D01*
X128820181Y-117532309D02*
X128874056Y-117586184D01*
X128874056Y-117586184D02*
X128927930Y-117693934D01*
X128927930Y-117693934D02*
X128927930Y-118340431D01*
X128927930Y-118340431D02*
X129278117Y-117990245D01*
X129062618Y-117074373D02*
X129116492Y-117020499D01*
X129116492Y-117020499D02*
X129197305Y-116993561D01*
X129197305Y-116993561D02*
X129251179Y-116993561D01*
X129251179Y-116993561D02*
X129331992Y-117020499D01*
X129331992Y-117020499D02*
X129466679Y-117101311D01*
X129466679Y-117101311D02*
X129601366Y-117235998D01*
X129601366Y-117235998D02*
X129682178Y-117370685D01*
X129682178Y-117370685D02*
X129709115Y-117451497D01*
X129709115Y-117451497D02*
X129709115Y-117505372D01*
X129709115Y-117505372D02*
X129682178Y-117586184D01*
X129682178Y-117586184D02*
X129628303Y-117640059D01*
X129628303Y-117640059D02*
X129547491Y-117666996D01*
X129547491Y-117666996D02*
X129493616Y-117666996D01*
X129493616Y-117666996D02*
X129412804Y-117640059D01*
X129412804Y-117640059D02*
X129278117Y-117559247D01*
X129278117Y-117559247D02*
X129143430Y-117424560D01*
X129143430Y-117424560D02*
X129062618Y-117289873D01*
X129062618Y-117289873D02*
X129035680Y-117209060D01*
X129035680Y-117209060D02*
X129035680Y-117155186D01*
X129035680Y-117155186D02*
X129062618Y-117074373D01*
X127596435Y-113260431D02*
X127515623Y-113287368D01*
X127515623Y-113287368D02*
X127434811Y-113368180D01*
X127434811Y-113368180D02*
X127380936Y-113475930D01*
X127380936Y-113475930D02*
X127380936Y-113583680D01*
X127380936Y-113583680D02*
X127407873Y-113664492D01*
X127407873Y-113664492D02*
X127488685Y-113799179D01*
X127488685Y-113799179D02*
X127569498Y-113879991D01*
X127569498Y-113879991D02*
X127704185Y-113960803D01*
X127704185Y-113960803D02*
X127784997Y-113987741D01*
X127784997Y-113987741D02*
X127892746Y-113987741D01*
X127892746Y-113987741D02*
X128000496Y-113933866D01*
X128000496Y-113933866D02*
X128054371Y-113879991D01*
X128054371Y-113879991D02*
X128108246Y-113772241D01*
X128108246Y-113772241D02*
X128108246Y-113718367D01*
X128108246Y-113718367D02*
X127919684Y-113529805D01*
X127919684Y-113529805D02*
X127811934Y-113637554D01*
X128404557Y-113529805D02*
X127838872Y-112964119D01*
X127838872Y-112964119D02*
X128727806Y-113206556D01*
X128727806Y-113206556D02*
X128162120Y-112640871D01*
X128997180Y-112937182D02*
X128431494Y-112371497D01*
X128431494Y-112371497D02*
X128566181Y-112236810D01*
X128566181Y-112236810D02*
X128673931Y-112182935D01*
X128673931Y-112182935D02*
X128781680Y-112182935D01*
X128781680Y-112182935D02*
X128862493Y-112209872D01*
X128862493Y-112209872D02*
X128997180Y-112290685D01*
X128997180Y-112290685D02*
X129077992Y-112371497D01*
X129077992Y-112371497D02*
X129158804Y-112506184D01*
X129158804Y-112506184D02*
X129185741Y-112586996D01*
X129185741Y-112586996D02*
X129185741Y-112694746D01*
X129185741Y-112694746D02*
X129131867Y-112802495D01*
X129131867Y-112802495D02*
X128997180Y-112937182D01*
X101996435Y-125960431D02*
X101915623Y-125987368D01*
X101915623Y-125987368D02*
X101834811Y-126068180D01*
X101834811Y-126068180D02*
X101780936Y-126175930D01*
X101780936Y-126175930D02*
X101780936Y-126283680D01*
X101780936Y-126283680D02*
X101807873Y-126364492D01*
X101807873Y-126364492D02*
X101888685Y-126499179D01*
X101888685Y-126499179D02*
X101969498Y-126579991D01*
X101969498Y-126579991D02*
X102104185Y-126660803D01*
X102104185Y-126660803D02*
X102184997Y-126687741D01*
X102184997Y-126687741D02*
X102292746Y-126687741D01*
X102292746Y-126687741D02*
X102400496Y-126633866D01*
X102400496Y-126633866D02*
X102454371Y-126579991D01*
X102454371Y-126579991D02*
X102508246Y-126472241D01*
X102508246Y-126472241D02*
X102508246Y-126418367D01*
X102508246Y-126418367D02*
X102319684Y-126229805D01*
X102319684Y-126229805D02*
X102211934Y-126337554D01*
X102804557Y-126229805D02*
X102238872Y-125664119D01*
X102238872Y-125664119D02*
X103127806Y-125906556D01*
X103127806Y-125906556D02*
X102562120Y-125340871D01*
X103397180Y-125637182D02*
X102831494Y-125071497D01*
X102831494Y-125071497D02*
X102966181Y-124936810D01*
X102966181Y-124936810D02*
X103073931Y-124882935D01*
X103073931Y-124882935D02*
X103181680Y-124882935D01*
X103181680Y-124882935D02*
X103262493Y-124909872D01*
X103262493Y-124909872D02*
X103397180Y-124990685D01*
X103397180Y-124990685D02*
X103477992Y-125071497D01*
X103477992Y-125071497D02*
X103558804Y-125206184D01*
X103558804Y-125206184D02*
X103585741Y-125286996D01*
X103585741Y-125286996D02*
X103585741Y-125394746D01*
X103585741Y-125394746D02*
X103531867Y-125502495D01*
X103531867Y-125502495D02*
X103397180Y-125637182D01*
X102023372Y-97993494D02*
X101942560Y-98020431D01*
X101942560Y-98020431D02*
X101861748Y-98101243D01*
X101861748Y-98101243D02*
X101807873Y-98208993D01*
X101807873Y-98208993D02*
X101807873Y-98316742D01*
X101807873Y-98316742D02*
X101834810Y-98397555D01*
X101834810Y-98397555D02*
X101915623Y-98532242D01*
X101915623Y-98532242D02*
X101996435Y-98613054D01*
X101996435Y-98613054D02*
X102131122Y-98693866D01*
X102131122Y-98693866D02*
X102211934Y-98720803D01*
X102211934Y-98720803D02*
X102319684Y-98720803D01*
X102319684Y-98720803D02*
X102427433Y-98666929D01*
X102427433Y-98666929D02*
X102481308Y-98613054D01*
X102481308Y-98613054D02*
X102535183Y-98505304D01*
X102535183Y-98505304D02*
X102535183Y-98451429D01*
X102535183Y-98451429D02*
X102346621Y-98262868D01*
X102346621Y-98262868D02*
X102238871Y-98370617D01*
X102831494Y-98262868D02*
X102265809Y-97697182D01*
X102265809Y-97697182D02*
X102481308Y-97481683D01*
X102481308Y-97481683D02*
X102562120Y-97454746D01*
X102562120Y-97454746D02*
X102615995Y-97454746D01*
X102615995Y-97454746D02*
X102696807Y-97481683D01*
X102696807Y-97481683D02*
X102777619Y-97562495D01*
X102777619Y-97562495D02*
X102804557Y-97643307D01*
X102804557Y-97643307D02*
X102804557Y-97697182D01*
X102804557Y-97697182D02*
X102777619Y-97777994D01*
X102777619Y-97777994D02*
X102562120Y-97993494D01*
X103100868Y-96862123D02*
X102831494Y-97131497D01*
X102831494Y-97131497D02*
X103073931Y-97427808D01*
X103073931Y-97427808D02*
X103073931Y-97373933D01*
X103073931Y-97373933D02*
X103100868Y-97293121D01*
X103100868Y-97293121D02*
X103235555Y-97158434D01*
X103235555Y-97158434D02*
X103316367Y-97131497D01*
X103316367Y-97131497D02*
X103370242Y-97131497D01*
X103370242Y-97131497D02*
X103451054Y-97158434D01*
X103451054Y-97158434D02*
X103585741Y-97293121D01*
X103585741Y-97293121D02*
X103612679Y-97373933D01*
X103612679Y-97373933D02*
X103612679Y-97427808D01*
X103612679Y-97427808D02*
X103585741Y-97508620D01*
X103585741Y-97508620D02*
X103451054Y-97643307D01*
X103451054Y-97643307D02*
X103370242Y-97670245D01*
X103370242Y-97670245D02*
X103316367Y-97670245D01*
X101996435Y-100560431D02*
X101915623Y-100587368D01*
X101915623Y-100587368D02*
X101834811Y-100668180D01*
X101834811Y-100668180D02*
X101780936Y-100775930D01*
X101780936Y-100775930D02*
X101780936Y-100883680D01*
X101780936Y-100883680D02*
X101807873Y-100964492D01*
X101807873Y-100964492D02*
X101888685Y-101099179D01*
X101888685Y-101099179D02*
X101969498Y-101179991D01*
X101969498Y-101179991D02*
X102104185Y-101260803D01*
X102104185Y-101260803D02*
X102184997Y-101287741D01*
X102184997Y-101287741D02*
X102292746Y-101287741D01*
X102292746Y-101287741D02*
X102400496Y-101233866D01*
X102400496Y-101233866D02*
X102454371Y-101179991D01*
X102454371Y-101179991D02*
X102508246Y-101072241D01*
X102508246Y-101072241D02*
X102508246Y-101018367D01*
X102508246Y-101018367D02*
X102319684Y-100829805D01*
X102319684Y-100829805D02*
X102211934Y-100937554D01*
X102804557Y-100829805D02*
X102238872Y-100264119D01*
X102238872Y-100264119D02*
X103127806Y-100506556D01*
X103127806Y-100506556D02*
X102562120Y-99940871D01*
X103397180Y-100237182D02*
X102831494Y-99671497D01*
X102831494Y-99671497D02*
X102966181Y-99536810D01*
X102966181Y-99536810D02*
X103073931Y-99482935D01*
X103073931Y-99482935D02*
X103181680Y-99482935D01*
X103181680Y-99482935D02*
X103262493Y-99509872D01*
X103262493Y-99509872D02*
X103397180Y-99590685D01*
X103397180Y-99590685D02*
X103477992Y-99671497D01*
X103477992Y-99671497D02*
X103558804Y-99806184D01*
X103558804Y-99806184D02*
X103585741Y-99886996D01*
X103585741Y-99886996D02*
X103585741Y-99994746D01*
X103585741Y-99994746D02*
X103531867Y-100102495D01*
X103531867Y-100102495D02*
X103397180Y-100237182D01*
X102023372Y-95453494D02*
X101942560Y-95480431D01*
X101942560Y-95480431D02*
X101861748Y-95561243D01*
X101861748Y-95561243D02*
X101807873Y-95668993D01*
X101807873Y-95668993D02*
X101807873Y-95776742D01*
X101807873Y-95776742D02*
X101834810Y-95857555D01*
X101834810Y-95857555D02*
X101915623Y-95992242D01*
X101915623Y-95992242D02*
X101996435Y-96073054D01*
X101996435Y-96073054D02*
X102131122Y-96153866D01*
X102131122Y-96153866D02*
X102211934Y-96180803D01*
X102211934Y-96180803D02*
X102319684Y-96180803D01*
X102319684Y-96180803D02*
X102427433Y-96126929D01*
X102427433Y-96126929D02*
X102481308Y-96073054D01*
X102481308Y-96073054D02*
X102535183Y-95965304D01*
X102535183Y-95965304D02*
X102535183Y-95911429D01*
X102535183Y-95911429D02*
X102346621Y-95722868D01*
X102346621Y-95722868D02*
X102238871Y-95830617D01*
X102831494Y-95722868D02*
X102265809Y-95157182D01*
X102265809Y-95157182D02*
X102481308Y-94941683D01*
X102481308Y-94941683D02*
X102562120Y-94914746D01*
X102562120Y-94914746D02*
X102615995Y-94914746D01*
X102615995Y-94914746D02*
X102696807Y-94941683D01*
X102696807Y-94941683D02*
X102777619Y-95022495D01*
X102777619Y-95022495D02*
X102804557Y-95103307D01*
X102804557Y-95103307D02*
X102804557Y-95157182D01*
X102804557Y-95157182D02*
X102777619Y-95237994D01*
X102777619Y-95237994D02*
X102562120Y-95453494D01*
X103262493Y-94537622D02*
X103639616Y-94914746D01*
X102912306Y-94456810D02*
X103181680Y-94995558D01*
X103181680Y-94995558D02*
X103531867Y-94645372D01*
X127607998Y-128742868D02*
X127527185Y-128769805D01*
X127527185Y-128769805D02*
X127446373Y-128850618D01*
X127446373Y-128850618D02*
X127392498Y-128958367D01*
X127392498Y-128958367D02*
X127392498Y-129066117D01*
X127392498Y-129066117D02*
X127419436Y-129146929D01*
X127419436Y-129146929D02*
X127500248Y-129281616D01*
X127500248Y-129281616D02*
X127581060Y-129362428D01*
X127581060Y-129362428D02*
X127715747Y-129443241D01*
X127715747Y-129443241D02*
X127796560Y-129470178D01*
X127796560Y-129470178D02*
X127904309Y-129470178D01*
X127904309Y-129470178D02*
X128012059Y-129416303D01*
X128012059Y-129416303D02*
X128065934Y-129362428D01*
X128065934Y-129362428D02*
X128119808Y-129254679D01*
X128119808Y-129254679D02*
X128119808Y-129200804D01*
X128119808Y-129200804D02*
X127931247Y-129012242D01*
X127931247Y-129012242D02*
X127823497Y-129119992D01*
X128416120Y-129012242D02*
X127850434Y-128446557D01*
X127850434Y-128446557D02*
X128065934Y-128231057D01*
X128065934Y-128231057D02*
X128146746Y-128204120D01*
X128146746Y-128204120D02*
X128200621Y-128204120D01*
X128200621Y-128204120D02*
X128281433Y-128231057D01*
X128281433Y-128231057D02*
X128362245Y-128311870D01*
X128362245Y-128311870D02*
X128389182Y-128392682D01*
X128389182Y-128392682D02*
X128389182Y-128446557D01*
X128389182Y-128446557D02*
X128362245Y-128527369D01*
X128362245Y-128527369D02*
X128146746Y-128742868D01*
X129278117Y-128150245D02*
X128954868Y-128473494D01*
X129116492Y-128311870D02*
X128550807Y-127746184D01*
X128550807Y-127746184D02*
X128577744Y-127880871D01*
X128577744Y-127880871D02*
X128577744Y-127988621D01*
X128577744Y-127988621D02*
X128550807Y-128069433D01*
X128900993Y-127395998D02*
X129278117Y-127018874D01*
X129278117Y-127018874D02*
X129601366Y-127826996D01*
X102023372Y-110693494D02*
X101942560Y-110720431D01*
X101942560Y-110720431D02*
X101861748Y-110801243D01*
X101861748Y-110801243D02*
X101807873Y-110908993D01*
X101807873Y-110908993D02*
X101807873Y-111016742D01*
X101807873Y-111016742D02*
X101834810Y-111097555D01*
X101834810Y-111097555D02*
X101915623Y-111232242D01*
X101915623Y-111232242D02*
X101996435Y-111313054D01*
X101996435Y-111313054D02*
X102131122Y-111393866D01*
X102131122Y-111393866D02*
X102211934Y-111420803D01*
X102211934Y-111420803D02*
X102319684Y-111420803D01*
X102319684Y-111420803D02*
X102427433Y-111366929D01*
X102427433Y-111366929D02*
X102481308Y-111313054D01*
X102481308Y-111313054D02*
X102535183Y-111205304D01*
X102535183Y-111205304D02*
X102535183Y-111151429D01*
X102535183Y-111151429D02*
X102346621Y-110962868D01*
X102346621Y-110962868D02*
X102238871Y-111070617D01*
X102831494Y-110962868D02*
X102265809Y-110397182D01*
X102265809Y-110397182D02*
X102481308Y-110181683D01*
X102481308Y-110181683D02*
X102562120Y-110154746D01*
X102562120Y-110154746D02*
X102615995Y-110154746D01*
X102615995Y-110154746D02*
X102696807Y-110181683D01*
X102696807Y-110181683D02*
X102777619Y-110262495D01*
X102777619Y-110262495D02*
X102804557Y-110343307D01*
X102804557Y-110343307D02*
X102804557Y-110397182D01*
X102804557Y-110397182D02*
X102777619Y-110477994D01*
X102777619Y-110477994D02*
X102562120Y-110693494D01*
X103424117Y-110370245D02*
X103531867Y-110262495D01*
X103531867Y-110262495D02*
X103558804Y-110181683D01*
X103558804Y-110181683D02*
X103558804Y-110127808D01*
X103558804Y-110127808D02*
X103531867Y-109993121D01*
X103531867Y-109993121D02*
X103451054Y-109858434D01*
X103451054Y-109858434D02*
X103235555Y-109642935D01*
X103235555Y-109642935D02*
X103154743Y-109615998D01*
X103154743Y-109615998D02*
X103100868Y-109615998D01*
X103100868Y-109615998D02*
X103020056Y-109642935D01*
X103020056Y-109642935D02*
X102912306Y-109750685D01*
X102912306Y-109750685D02*
X102885369Y-109831497D01*
X102885369Y-109831497D02*
X102885369Y-109885372D01*
X102885369Y-109885372D02*
X102912306Y-109966184D01*
X102912306Y-109966184D02*
X103046993Y-110100871D01*
X103046993Y-110100871D02*
X103127806Y-110127808D01*
X103127806Y-110127808D02*
X103181680Y-110127808D01*
X103181680Y-110127808D02*
X103262493Y-110100871D01*
X103262493Y-110100871D02*
X103370242Y-109993121D01*
X103370242Y-109993121D02*
X103397180Y-109912309D01*
X103397180Y-109912309D02*
X103397180Y-109858434D01*
X103397180Y-109858434D02*
X103370242Y-109777622D01*
X127607998Y-123662868D02*
X127527185Y-123689805D01*
X127527185Y-123689805D02*
X127446373Y-123770618D01*
X127446373Y-123770618D02*
X127392498Y-123878367D01*
X127392498Y-123878367D02*
X127392498Y-123986117D01*
X127392498Y-123986117D02*
X127419436Y-124066929D01*
X127419436Y-124066929D02*
X127500248Y-124201616D01*
X127500248Y-124201616D02*
X127581060Y-124282428D01*
X127581060Y-124282428D02*
X127715747Y-124363241D01*
X127715747Y-124363241D02*
X127796560Y-124390178D01*
X127796560Y-124390178D02*
X127904309Y-124390178D01*
X127904309Y-124390178D02*
X128012059Y-124336303D01*
X128012059Y-124336303D02*
X128065934Y-124282428D01*
X128065934Y-124282428D02*
X128119808Y-124174679D01*
X128119808Y-124174679D02*
X128119808Y-124120804D01*
X128119808Y-124120804D02*
X127931247Y-123932242D01*
X127931247Y-123932242D02*
X127823497Y-124039992D01*
X128416120Y-123932242D02*
X127850434Y-123366557D01*
X127850434Y-123366557D02*
X128065934Y-123151057D01*
X128065934Y-123151057D02*
X128146746Y-123124120D01*
X128146746Y-123124120D02*
X128200621Y-123124120D01*
X128200621Y-123124120D02*
X128281433Y-123151057D01*
X128281433Y-123151057D02*
X128362245Y-123231870D01*
X128362245Y-123231870D02*
X128389182Y-123312682D01*
X128389182Y-123312682D02*
X128389182Y-123366557D01*
X128389182Y-123366557D02*
X128362245Y-123447369D01*
X128362245Y-123447369D02*
X128146746Y-123662868D01*
X129278117Y-123070245D02*
X128954868Y-123393494D01*
X129116492Y-123231870D02*
X128550807Y-122666184D01*
X128550807Y-122666184D02*
X128577744Y-122800871D01*
X128577744Y-122800871D02*
X128577744Y-122908621D01*
X128577744Y-122908621D02*
X128550807Y-122989433D01*
X129278117Y-122423747D02*
X129197305Y-122450685D01*
X129197305Y-122450685D02*
X129143430Y-122450685D01*
X129143430Y-122450685D02*
X129062618Y-122423747D01*
X129062618Y-122423747D02*
X129035680Y-122396810D01*
X129035680Y-122396810D02*
X129008743Y-122315998D01*
X129008743Y-122315998D02*
X129008743Y-122262123D01*
X129008743Y-122262123D02*
X129035680Y-122181311D01*
X129035680Y-122181311D02*
X129143430Y-122073561D01*
X129143430Y-122073561D02*
X129224242Y-122046624D01*
X129224242Y-122046624D02*
X129278117Y-122046624D01*
X129278117Y-122046624D02*
X129358929Y-122073561D01*
X129358929Y-122073561D02*
X129385866Y-122100499D01*
X129385866Y-122100499D02*
X129412804Y-122181311D01*
X129412804Y-122181311D02*
X129412804Y-122235186D01*
X129412804Y-122235186D02*
X129385866Y-122315998D01*
X129385866Y-122315998D02*
X129278117Y-122423747D01*
X129278117Y-122423747D02*
X129251179Y-122504560D01*
X129251179Y-122504560D02*
X129251179Y-122558434D01*
X129251179Y-122558434D02*
X129278117Y-122639247D01*
X129278117Y-122639247D02*
X129385866Y-122746996D01*
X129385866Y-122746996D02*
X129466679Y-122773934D01*
X129466679Y-122773934D02*
X129520553Y-122773934D01*
X129520553Y-122773934D02*
X129601366Y-122746996D01*
X129601366Y-122746996D02*
X129709115Y-122639247D01*
X129709115Y-122639247D02*
X129736053Y-122558434D01*
X129736053Y-122558434D02*
X129736053Y-122504560D01*
X129736053Y-122504560D02*
X129709115Y-122423747D01*
X129709115Y-122423747D02*
X129601366Y-122315998D01*
X129601366Y-122315998D02*
X129520553Y-122289060D01*
X129520553Y-122289060D02*
X129466679Y-122289060D01*
X129466679Y-122289060D02*
X129385866Y-122315998D01*
X119414761Y-133286200D02*
X119529047Y-133324295D01*
X119529047Y-133324295D02*
X119719523Y-133324295D01*
X119719523Y-133324295D02*
X119795714Y-133286200D01*
X119795714Y-133286200D02*
X119833809Y-133248104D01*
X119833809Y-133248104D02*
X119871904Y-133171914D01*
X119871904Y-133171914D02*
X119871904Y-133095723D01*
X119871904Y-133095723D02*
X119833809Y-133019533D01*
X119833809Y-133019533D02*
X119795714Y-132981438D01*
X119795714Y-132981438D02*
X119719523Y-132943342D01*
X119719523Y-132943342D02*
X119567142Y-132905247D01*
X119567142Y-132905247D02*
X119490952Y-132867152D01*
X119490952Y-132867152D02*
X119452857Y-132829057D01*
X119452857Y-132829057D02*
X119414761Y-132752866D01*
X119414761Y-132752866D02*
X119414761Y-132676676D01*
X119414761Y-132676676D02*
X119452857Y-132600485D01*
X119452857Y-132600485D02*
X119490952Y-132562390D01*
X119490952Y-132562390D02*
X119567142Y-132524295D01*
X119567142Y-132524295D02*
X119757619Y-132524295D01*
X119757619Y-132524295D02*
X119871904Y-132562390D01*
X120138571Y-132524295D02*
X120329047Y-133324295D01*
X120329047Y-133324295D02*
X120481428Y-132752866D01*
X120481428Y-132752866D02*
X120633809Y-133324295D01*
X120633809Y-133324295D02*
X120824286Y-132524295D01*
X121129048Y-133324295D02*
X121129048Y-132524295D01*
X121129048Y-132524295D02*
X121319524Y-132524295D01*
X121319524Y-132524295D02*
X121433810Y-132562390D01*
X121433810Y-132562390D02*
X121510000Y-132638580D01*
X121510000Y-132638580D02*
X121548095Y-132714771D01*
X121548095Y-132714771D02*
X121586191Y-132867152D01*
X121586191Y-132867152D02*
X121586191Y-132981438D01*
X121586191Y-132981438D02*
X121548095Y-133133819D01*
X121548095Y-133133819D02*
X121510000Y-133210009D01*
X121510000Y-133210009D02*
X121433810Y-133286200D01*
X121433810Y-133286200D02*
X121319524Y-133324295D01*
X121319524Y-133324295D02*
X121129048Y-133324295D01*
X121929048Y-133324295D02*
X121929048Y-132524295D01*
X122462381Y-132524295D02*
X122614762Y-132524295D01*
X122614762Y-132524295D02*
X122690952Y-132562390D01*
X122690952Y-132562390D02*
X122767143Y-132638580D01*
X122767143Y-132638580D02*
X122805238Y-132790961D01*
X122805238Y-132790961D02*
X122805238Y-133057628D01*
X122805238Y-133057628D02*
X122767143Y-133210009D01*
X122767143Y-133210009D02*
X122690952Y-133286200D01*
X122690952Y-133286200D02*
X122614762Y-133324295D01*
X122614762Y-133324295D02*
X122462381Y-133324295D01*
X122462381Y-133324295D02*
X122386190Y-133286200D01*
X122386190Y-133286200D02*
X122310000Y-133210009D01*
X122310000Y-133210009D02*
X122271904Y-133057628D01*
X122271904Y-133057628D02*
X122271904Y-132790961D01*
X122271904Y-132790961D02*
X122310000Y-132638580D01*
X122310000Y-132638580D02*
X122386190Y-132562390D01*
X122386190Y-132562390D02*
X122462381Y-132524295D01*
X127596435Y-125960431D02*
X127515623Y-125987368D01*
X127515623Y-125987368D02*
X127434811Y-126068180D01*
X127434811Y-126068180D02*
X127380936Y-126175930D01*
X127380936Y-126175930D02*
X127380936Y-126283680D01*
X127380936Y-126283680D02*
X127407873Y-126364492D01*
X127407873Y-126364492D02*
X127488685Y-126499179D01*
X127488685Y-126499179D02*
X127569498Y-126579991D01*
X127569498Y-126579991D02*
X127704185Y-126660803D01*
X127704185Y-126660803D02*
X127784997Y-126687741D01*
X127784997Y-126687741D02*
X127892746Y-126687741D01*
X127892746Y-126687741D02*
X128000496Y-126633866D01*
X128000496Y-126633866D02*
X128054371Y-126579991D01*
X128054371Y-126579991D02*
X128108246Y-126472241D01*
X128108246Y-126472241D02*
X128108246Y-126418367D01*
X128108246Y-126418367D02*
X127919684Y-126229805D01*
X127919684Y-126229805D02*
X127811934Y-126337554D01*
X128404557Y-126229805D02*
X127838872Y-125664119D01*
X127838872Y-125664119D02*
X128727806Y-125906556D01*
X128727806Y-125906556D02*
X128162120Y-125340871D01*
X128997180Y-125637182D02*
X128431494Y-125071497D01*
X128431494Y-125071497D02*
X128566181Y-124936810D01*
X128566181Y-124936810D02*
X128673931Y-124882935D01*
X128673931Y-124882935D02*
X128781680Y-124882935D01*
X128781680Y-124882935D02*
X128862493Y-124909872D01*
X128862493Y-124909872D02*
X128997180Y-124990685D01*
X128997180Y-124990685D02*
X129077992Y-125071497D01*
X129077992Y-125071497D02*
X129158804Y-125206184D01*
X129158804Y-125206184D02*
X129185741Y-125286996D01*
X129185741Y-125286996D02*
X129185741Y-125394746D01*
X129185741Y-125394746D02*
X129131867Y-125502495D01*
X129131867Y-125502495D02*
X128997180Y-125637182D01*
X102023372Y-108153494D02*
X101942560Y-108180431D01*
X101942560Y-108180431D02*
X101861748Y-108261243D01*
X101861748Y-108261243D02*
X101807873Y-108368993D01*
X101807873Y-108368993D02*
X101807873Y-108476742D01*
X101807873Y-108476742D02*
X101834810Y-108557555D01*
X101834810Y-108557555D02*
X101915623Y-108692242D01*
X101915623Y-108692242D02*
X101996435Y-108773054D01*
X101996435Y-108773054D02*
X102131122Y-108853866D01*
X102131122Y-108853866D02*
X102211934Y-108880803D01*
X102211934Y-108880803D02*
X102319684Y-108880803D01*
X102319684Y-108880803D02*
X102427433Y-108826929D01*
X102427433Y-108826929D02*
X102481308Y-108773054D01*
X102481308Y-108773054D02*
X102535183Y-108665304D01*
X102535183Y-108665304D02*
X102535183Y-108611429D01*
X102535183Y-108611429D02*
X102346621Y-108422868D01*
X102346621Y-108422868D02*
X102238871Y-108530617D01*
X102831494Y-108422868D02*
X102265809Y-107857182D01*
X102265809Y-107857182D02*
X102481308Y-107641683D01*
X102481308Y-107641683D02*
X102562120Y-107614746D01*
X102562120Y-107614746D02*
X102615995Y-107614746D01*
X102615995Y-107614746D02*
X102696807Y-107641683D01*
X102696807Y-107641683D02*
X102777619Y-107722495D01*
X102777619Y-107722495D02*
X102804557Y-107803307D01*
X102804557Y-107803307D02*
X102804557Y-107857182D01*
X102804557Y-107857182D02*
X102777619Y-107937994D01*
X102777619Y-107937994D02*
X102562120Y-108153494D01*
X103154743Y-107453121D02*
X103073931Y-107480059D01*
X103073931Y-107480059D02*
X103020056Y-107480059D01*
X103020056Y-107480059D02*
X102939244Y-107453121D01*
X102939244Y-107453121D02*
X102912306Y-107426184D01*
X102912306Y-107426184D02*
X102885369Y-107345372D01*
X102885369Y-107345372D02*
X102885369Y-107291497D01*
X102885369Y-107291497D02*
X102912306Y-107210685D01*
X102912306Y-107210685D02*
X103020056Y-107102935D01*
X103020056Y-107102935D02*
X103100868Y-107075998D01*
X103100868Y-107075998D02*
X103154743Y-107075998D01*
X103154743Y-107075998D02*
X103235555Y-107102935D01*
X103235555Y-107102935D02*
X103262493Y-107129872D01*
X103262493Y-107129872D02*
X103289430Y-107210685D01*
X103289430Y-107210685D02*
X103289430Y-107264559D01*
X103289430Y-107264559D02*
X103262493Y-107345372D01*
X103262493Y-107345372D02*
X103154743Y-107453121D01*
X103154743Y-107453121D02*
X103127806Y-107533933D01*
X103127806Y-107533933D02*
X103127806Y-107587808D01*
X103127806Y-107587808D02*
X103154743Y-107668620D01*
X103154743Y-107668620D02*
X103262493Y-107776370D01*
X103262493Y-107776370D02*
X103343305Y-107803307D01*
X103343305Y-107803307D02*
X103397180Y-107803307D01*
X103397180Y-107803307D02*
X103477992Y-107776370D01*
X103477992Y-107776370D02*
X103585741Y-107668620D01*
X103585741Y-107668620D02*
X103612679Y-107587808D01*
X103612679Y-107587808D02*
X103612679Y-107533933D01*
X103612679Y-107533933D02*
X103585741Y-107453121D01*
X103585741Y-107453121D02*
X103477992Y-107345372D01*
X103477992Y-107345372D02*
X103397180Y-107318434D01*
X103397180Y-107318434D02*
X103343305Y-107318434D01*
X103343305Y-107318434D02*
X103262493Y-107345372D01*
X102023372Y-103073494D02*
X101942560Y-103100431D01*
X101942560Y-103100431D02*
X101861748Y-103181243D01*
X101861748Y-103181243D02*
X101807873Y-103288993D01*
X101807873Y-103288993D02*
X101807873Y-103396742D01*
X101807873Y-103396742D02*
X101834810Y-103477555D01*
X101834810Y-103477555D02*
X101915623Y-103612242D01*
X101915623Y-103612242D02*
X101996435Y-103693054D01*
X101996435Y-103693054D02*
X102131122Y-103773866D01*
X102131122Y-103773866D02*
X102211934Y-103800803D01*
X102211934Y-103800803D02*
X102319684Y-103800803D01*
X102319684Y-103800803D02*
X102427433Y-103746929D01*
X102427433Y-103746929D02*
X102481308Y-103693054D01*
X102481308Y-103693054D02*
X102535183Y-103585304D01*
X102535183Y-103585304D02*
X102535183Y-103531429D01*
X102535183Y-103531429D02*
X102346621Y-103342868D01*
X102346621Y-103342868D02*
X102238871Y-103450617D01*
X102831494Y-103342868D02*
X102265809Y-102777182D01*
X102265809Y-102777182D02*
X102481308Y-102561683D01*
X102481308Y-102561683D02*
X102562120Y-102534746D01*
X102562120Y-102534746D02*
X102615995Y-102534746D01*
X102615995Y-102534746D02*
X102696807Y-102561683D01*
X102696807Y-102561683D02*
X102777619Y-102642495D01*
X102777619Y-102642495D02*
X102804557Y-102723307D01*
X102804557Y-102723307D02*
X102804557Y-102777182D01*
X102804557Y-102777182D02*
X102777619Y-102857994D01*
X102777619Y-102857994D02*
X102562120Y-103073494D01*
X103073931Y-101969060D02*
X102966181Y-102076810D01*
X102966181Y-102076810D02*
X102939244Y-102157622D01*
X102939244Y-102157622D02*
X102939244Y-102211497D01*
X102939244Y-102211497D02*
X102966181Y-102346184D01*
X102966181Y-102346184D02*
X103046993Y-102480871D01*
X103046993Y-102480871D02*
X103262493Y-102696370D01*
X103262493Y-102696370D02*
X103343305Y-102723307D01*
X103343305Y-102723307D02*
X103397180Y-102723307D01*
X103397180Y-102723307D02*
X103477992Y-102696370D01*
X103477992Y-102696370D02*
X103585741Y-102588620D01*
X103585741Y-102588620D02*
X103612679Y-102507808D01*
X103612679Y-102507808D02*
X103612679Y-102453933D01*
X103612679Y-102453933D02*
X103585741Y-102373121D01*
X103585741Y-102373121D02*
X103451054Y-102238434D01*
X103451054Y-102238434D02*
X103370242Y-102211497D01*
X103370242Y-102211497D02*
X103316367Y-102211497D01*
X103316367Y-102211497D02*
X103235555Y-102238434D01*
X103235555Y-102238434D02*
X103127806Y-102346184D01*
X103127806Y-102346184D02*
X103100868Y-102426996D01*
X103100868Y-102426996D02*
X103100868Y-102480871D01*
X103100868Y-102480871D02*
X103127806Y-102561683D01*
X127400123Y-93252868D02*
X127750309Y-92902682D01*
X127750309Y-92902682D02*
X127777247Y-93306743D01*
X127777247Y-93306743D02*
X127858059Y-93225931D01*
X127858059Y-93225931D02*
X127938871Y-93198993D01*
X127938871Y-93198993D02*
X127992746Y-93198993D01*
X127992746Y-93198993D02*
X128073558Y-93225931D01*
X128073558Y-93225931D02*
X128208245Y-93360618D01*
X128208245Y-93360618D02*
X128235182Y-93441430D01*
X128235182Y-93441430D02*
X128235182Y-93495305D01*
X128235182Y-93495305D02*
X128208245Y-93576117D01*
X128208245Y-93576117D02*
X128046621Y-93737741D01*
X128046621Y-93737741D02*
X127965808Y-93764679D01*
X127965808Y-93764679D02*
X127911934Y-93764679D01*
X127911934Y-92741057D02*
X128666181Y-93118181D01*
X128666181Y-93118181D02*
X128289057Y-92363934D01*
X128423744Y-92229247D02*
X128773930Y-91879061D01*
X128773930Y-91879061D02*
X128800868Y-92283122D01*
X128800868Y-92283122D02*
X128881680Y-92202309D01*
X128881680Y-92202309D02*
X128962492Y-92175372D01*
X128962492Y-92175372D02*
X129016367Y-92175372D01*
X129016367Y-92175372D02*
X129097179Y-92202309D01*
X129097179Y-92202309D02*
X129231866Y-92336996D01*
X129231866Y-92336996D02*
X129258804Y-92417809D01*
X129258804Y-92417809D02*
X129258804Y-92471683D01*
X129258804Y-92471683D02*
X129231866Y-92552496D01*
X129231866Y-92552496D02*
X129070242Y-92714120D01*
X129070242Y-92714120D02*
X128989430Y-92741057D01*
X128989430Y-92741057D02*
X128935555Y-92741057D01*
X108000475Y-133286200D02*
X108114761Y-133324295D01*
X108114761Y-133324295D02*
X108305237Y-133324295D01*
X108305237Y-133324295D02*
X108381428Y-133286200D01*
X108381428Y-133286200D02*
X108419523Y-133248104D01*
X108419523Y-133248104D02*
X108457618Y-133171914D01*
X108457618Y-133171914D02*
X108457618Y-133095723D01*
X108457618Y-133095723D02*
X108419523Y-133019533D01*
X108419523Y-133019533D02*
X108381428Y-132981438D01*
X108381428Y-132981438D02*
X108305237Y-132943342D01*
X108305237Y-132943342D02*
X108152856Y-132905247D01*
X108152856Y-132905247D02*
X108076666Y-132867152D01*
X108076666Y-132867152D02*
X108038571Y-132829057D01*
X108038571Y-132829057D02*
X108000475Y-132752866D01*
X108000475Y-132752866D02*
X108000475Y-132676676D01*
X108000475Y-132676676D02*
X108038571Y-132600485D01*
X108038571Y-132600485D02*
X108076666Y-132562390D01*
X108076666Y-132562390D02*
X108152856Y-132524295D01*
X108152856Y-132524295D02*
X108343333Y-132524295D01*
X108343333Y-132524295D02*
X108457618Y-132562390D01*
X108724285Y-132524295D02*
X108914761Y-133324295D01*
X108914761Y-133324295D02*
X109067142Y-132752866D01*
X109067142Y-132752866D02*
X109219523Y-133324295D01*
X109219523Y-133324295D02*
X109410000Y-132524295D01*
X110171905Y-133248104D02*
X110133809Y-133286200D01*
X110133809Y-133286200D02*
X110019524Y-133324295D01*
X110019524Y-133324295D02*
X109943333Y-133324295D01*
X109943333Y-133324295D02*
X109829047Y-133286200D01*
X109829047Y-133286200D02*
X109752857Y-133210009D01*
X109752857Y-133210009D02*
X109714762Y-133133819D01*
X109714762Y-133133819D02*
X109676666Y-132981438D01*
X109676666Y-132981438D02*
X109676666Y-132867152D01*
X109676666Y-132867152D02*
X109714762Y-132714771D01*
X109714762Y-132714771D02*
X109752857Y-132638580D01*
X109752857Y-132638580D02*
X109829047Y-132562390D01*
X109829047Y-132562390D02*
X109943333Y-132524295D01*
X109943333Y-132524295D02*
X110019524Y-132524295D01*
X110019524Y-132524295D02*
X110133809Y-132562390D01*
X110133809Y-132562390D02*
X110171905Y-132600485D01*
X110895714Y-133324295D02*
X110514762Y-133324295D01*
X110514762Y-133324295D02*
X110514762Y-132524295D01*
X111162381Y-133324295D02*
X111162381Y-132524295D01*
X111619524Y-133324295D02*
X111276666Y-132867152D01*
X111619524Y-132524295D02*
X111162381Y-132981438D01*
X127661873Y-101503240D02*
X127931247Y-101233866D01*
X127769623Y-101718739D02*
X127392499Y-100964492D01*
X127392499Y-100964492D02*
X128146746Y-101341615D01*
X128092871Y-100317994D02*
X128012059Y-100344932D01*
X128012059Y-100344932D02*
X127931247Y-100425744D01*
X127931247Y-100425744D02*
X127877372Y-100533494D01*
X127877372Y-100533494D02*
X127877372Y-100641243D01*
X127877372Y-100641243D02*
X127904310Y-100722055D01*
X127904310Y-100722055D02*
X127985122Y-100856742D01*
X127985122Y-100856742D02*
X128065934Y-100937555D01*
X128065934Y-100937555D02*
X128200621Y-101018367D01*
X128200621Y-101018367D02*
X128281433Y-101045304D01*
X128281433Y-101045304D02*
X128389183Y-101045304D01*
X128389183Y-101045304D02*
X128496932Y-100991429D01*
X128496932Y-100991429D02*
X128550807Y-100937555D01*
X128550807Y-100937555D02*
X128604682Y-100829805D01*
X128604682Y-100829805D02*
X128604682Y-100775930D01*
X128604682Y-100775930D02*
X128416120Y-100587368D01*
X128416120Y-100587368D02*
X128308371Y-100695118D01*
X128900993Y-100587368D02*
X128335308Y-100021683D01*
X128335308Y-100021683D02*
X129224242Y-100264120D01*
X129224242Y-100264120D02*
X128658557Y-99698434D01*
X129493616Y-99994746D02*
X128927931Y-99429060D01*
X128927931Y-99429060D02*
X129062618Y-99294373D01*
X129062618Y-99294373D02*
X129170367Y-99240498D01*
X129170367Y-99240498D02*
X129278117Y-99240498D01*
X129278117Y-99240498D02*
X129358929Y-99267436D01*
X129358929Y-99267436D02*
X129493616Y-99348248D01*
X129493616Y-99348248D02*
X129574428Y-99429060D01*
X129574428Y-99429060D02*
X129655241Y-99563747D01*
X129655241Y-99563747D02*
X129682178Y-99644560D01*
X129682178Y-99644560D02*
X129682178Y-99752309D01*
X129682178Y-99752309D02*
X129628303Y-99860059D01*
X129628303Y-99860059D02*
X129493616Y-99994746D01*
X101499998Y-116042868D02*
X101419185Y-116069805D01*
X101419185Y-116069805D02*
X101338373Y-116150618D01*
X101338373Y-116150618D02*
X101284498Y-116258367D01*
X101284498Y-116258367D02*
X101284498Y-116366117D01*
X101284498Y-116366117D02*
X101311436Y-116446929D01*
X101311436Y-116446929D02*
X101392248Y-116581616D01*
X101392248Y-116581616D02*
X101473060Y-116662428D01*
X101473060Y-116662428D02*
X101607747Y-116743241D01*
X101607747Y-116743241D02*
X101688560Y-116770178D01*
X101688560Y-116770178D02*
X101796309Y-116770178D01*
X101796309Y-116770178D02*
X101904059Y-116716303D01*
X101904059Y-116716303D02*
X101957934Y-116662428D01*
X101957934Y-116662428D02*
X102011808Y-116554679D01*
X102011808Y-116554679D02*
X102011808Y-116500804D01*
X102011808Y-116500804D02*
X101823247Y-116312242D01*
X101823247Y-116312242D02*
X101715497Y-116419992D01*
X102308120Y-116312242D02*
X101742434Y-115746557D01*
X101742434Y-115746557D02*
X101957934Y-115531057D01*
X101957934Y-115531057D02*
X102038746Y-115504120D01*
X102038746Y-115504120D02*
X102092621Y-115504120D01*
X102092621Y-115504120D02*
X102173433Y-115531057D01*
X102173433Y-115531057D02*
X102254245Y-115611870D01*
X102254245Y-115611870D02*
X102281182Y-115692682D01*
X102281182Y-115692682D02*
X102281182Y-115746557D01*
X102281182Y-115746557D02*
X102254245Y-115827369D01*
X102254245Y-115827369D02*
X102038746Y-116042868D01*
X103170117Y-115450245D02*
X102846868Y-115773494D01*
X103008492Y-115611870D02*
X102442807Y-115046184D01*
X102442807Y-115046184D02*
X102469744Y-115180871D01*
X102469744Y-115180871D02*
X102469744Y-115288621D01*
X102469744Y-115288621D02*
X102442807Y-115369433D01*
X102954618Y-114534373D02*
X103008492Y-114480499D01*
X103008492Y-114480499D02*
X103089305Y-114453561D01*
X103089305Y-114453561D02*
X103143179Y-114453561D01*
X103143179Y-114453561D02*
X103223992Y-114480499D01*
X103223992Y-114480499D02*
X103358679Y-114561311D01*
X103358679Y-114561311D02*
X103493366Y-114695998D01*
X103493366Y-114695998D02*
X103574178Y-114830685D01*
X103574178Y-114830685D02*
X103601115Y-114911497D01*
X103601115Y-114911497D02*
X103601115Y-114965372D01*
X103601115Y-114965372D02*
X103574178Y-115046184D01*
X103574178Y-115046184D02*
X103520303Y-115100059D01*
X103520303Y-115100059D02*
X103439491Y-115126996D01*
X103439491Y-115126996D02*
X103385616Y-115126996D01*
X103385616Y-115126996D02*
X103304804Y-115100059D01*
X103304804Y-115100059D02*
X103170117Y-115019247D01*
X103170117Y-115019247D02*
X103035430Y-114884560D01*
X103035430Y-114884560D02*
X102954618Y-114749873D01*
X102954618Y-114749873D02*
X102927680Y-114669060D01*
X102927680Y-114669060D02*
X102927680Y-114615186D01*
X102927680Y-114615186D02*
X102954618Y-114534373D01*
X127432407Y-90720584D02*
X127782593Y-90370398D01*
X127782593Y-90370398D02*
X127809531Y-90774459D01*
X127809531Y-90774459D02*
X127890343Y-90693646D01*
X127890343Y-90693646D02*
X127971155Y-90666709D01*
X127971155Y-90666709D02*
X128025030Y-90666709D01*
X128025030Y-90666709D02*
X128105842Y-90693646D01*
X128105842Y-90693646D02*
X128240529Y-90828333D01*
X128240529Y-90828333D02*
X128267467Y-90909146D01*
X128267467Y-90909146D02*
X128267467Y-90963020D01*
X128267467Y-90963020D02*
X128240529Y-91043833D01*
X128240529Y-91043833D02*
X128078905Y-91205457D01*
X128078905Y-91205457D02*
X127998093Y-91232394D01*
X127998093Y-91232394D02*
X127944218Y-91232394D01*
X127944218Y-90208773D02*
X128698465Y-90585897D01*
X128698465Y-90585897D02*
X128321342Y-89831649D01*
X128456028Y-89696963D02*
X128806215Y-89346776D01*
X128806215Y-89346776D02*
X128833152Y-89750837D01*
X128833152Y-89750837D02*
X128913964Y-89670025D01*
X128913964Y-89670025D02*
X128994776Y-89643088D01*
X128994776Y-89643088D02*
X129048651Y-89643088D01*
X129048651Y-89643088D02*
X129129464Y-89670025D01*
X129129464Y-89670025D02*
X129264151Y-89804712D01*
X129264151Y-89804712D02*
X129291088Y-89885524D01*
X129291088Y-89885524D02*
X129291088Y-89939399D01*
X129291088Y-89939399D02*
X129264151Y-90020211D01*
X129264151Y-90020211D02*
X129102526Y-90181836D01*
X129102526Y-90181836D02*
X129021714Y-90208773D01*
X129021714Y-90208773D02*
X128967839Y-90208773D01*
X129533525Y-89858587D02*
X129964523Y-89427588D01*
X129749024Y-88942715D02*
X129937586Y-88754153D01*
X130314709Y-88969652D02*
X130045335Y-89239026D01*
X130045335Y-89239026D02*
X129479650Y-88673341D01*
X129479650Y-88673341D02*
X129749024Y-88403967D01*
X130557146Y-88727215D02*
X129991461Y-88161530D01*
X129991461Y-88161530D02*
X130880395Y-88403967D01*
X130880395Y-88403967D02*
X130314710Y-87838281D01*
X102123372Y-105583494D02*
X102042560Y-105610431D01*
X102042560Y-105610431D02*
X101961748Y-105691243D01*
X101961748Y-105691243D02*
X101907873Y-105798993D01*
X101907873Y-105798993D02*
X101907873Y-105906742D01*
X101907873Y-105906742D02*
X101934810Y-105987555D01*
X101934810Y-105987555D02*
X102015623Y-106122242D01*
X102015623Y-106122242D02*
X102096435Y-106203054D01*
X102096435Y-106203054D02*
X102231122Y-106283866D01*
X102231122Y-106283866D02*
X102311934Y-106310803D01*
X102311934Y-106310803D02*
X102419684Y-106310803D01*
X102419684Y-106310803D02*
X102527433Y-106256929D01*
X102527433Y-106256929D02*
X102581308Y-106203054D01*
X102581308Y-106203054D02*
X102635183Y-106095304D01*
X102635183Y-106095304D02*
X102635183Y-106041429D01*
X102635183Y-106041429D02*
X102446621Y-105852868D01*
X102446621Y-105852868D02*
X102338871Y-105960617D01*
X102931494Y-105852868D02*
X102365809Y-105287182D01*
X102365809Y-105287182D02*
X102581308Y-105071683D01*
X102581308Y-105071683D02*
X102662120Y-105044746D01*
X102662120Y-105044746D02*
X102715995Y-105044746D01*
X102715995Y-105044746D02*
X102796807Y-105071683D01*
X102796807Y-105071683D02*
X102877619Y-105152495D01*
X102877619Y-105152495D02*
X102904557Y-105233307D01*
X102904557Y-105233307D02*
X102904557Y-105287182D01*
X102904557Y-105287182D02*
X102877619Y-105367994D01*
X102877619Y-105367994D02*
X102662120Y-105583494D01*
X102877619Y-104775372D02*
X103254743Y-104398248D01*
X103254743Y-104398248D02*
X103577992Y-105206370D01*
X101499998Y-131282868D02*
X101419185Y-131309805D01*
X101419185Y-131309805D02*
X101338373Y-131390618D01*
X101338373Y-131390618D02*
X101284498Y-131498367D01*
X101284498Y-131498367D02*
X101284498Y-131606117D01*
X101284498Y-131606117D02*
X101311436Y-131686929D01*
X101311436Y-131686929D02*
X101392248Y-131821616D01*
X101392248Y-131821616D02*
X101473060Y-131902428D01*
X101473060Y-131902428D02*
X101607747Y-131983241D01*
X101607747Y-131983241D02*
X101688560Y-132010178D01*
X101688560Y-132010178D02*
X101796309Y-132010178D01*
X101796309Y-132010178D02*
X101904059Y-131956303D01*
X101904059Y-131956303D02*
X101957934Y-131902428D01*
X101957934Y-131902428D02*
X102011808Y-131794679D01*
X102011808Y-131794679D02*
X102011808Y-131740804D01*
X102011808Y-131740804D02*
X101823247Y-131552242D01*
X101823247Y-131552242D02*
X101715497Y-131659992D01*
X102308120Y-131552242D02*
X101742434Y-130986557D01*
X101742434Y-130986557D02*
X101957934Y-130771057D01*
X101957934Y-130771057D02*
X102038746Y-130744120D01*
X102038746Y-130744120D02*
X102092621Y-130744120D01*
X102092621Y-130744120D02*
X102173433Y-130771057D01*
X102173433Y-130771057D02*
X102254245Y-130851870D01*
X102254245Y-130851870D02*
X102281182Y-130932682D01*
X102281182Y-130932682D02*
X102281182Y-130986557D01*
X102281182Y-130986557D02*
X102254245Y-131067369D01*
X102254245Y-131067369D02*
X102038746Y-131282868D01*
X103170117Y-130690245D02*
X102846868Y-131013494D01*
X103008492Y-130851870D02*
X102442807Y-130286184D01*
X102442807Y-130286184D02*
X102469744Y-130420871D01*
X102469744Y-130420871D02*
X102469744Y-130528621D01*
X102469744Y-130528621D02*
X102442807Y-130609433D01*
X103116242Y-129612749D02*
X102846868Y-129882123D01*
X102846868Y-129882123D02*
X103089305Y-130178434D01*
X103089305Y-130178434D02*
X103089305Y-130124560D01*
X103089305Y-130124560D02*
X103116242Y-130043747D01*
X103116242Y-130043747D02*
X103250929Y-129909060D01*
X103250929Y-129909060D02*
X103331741Y-129882123D01*
X103331741Y-129882123D02*
X103385616Y-129882123D01*
X103385616Y-129882123D02*
X103466428Y-129909060D01*
X103466428Y-129909060D02*
X103601115Y-130043747D01*
X103601115Y-130043747D02*
X103628053Y-130124560D01*
X103628053Y-130124560D02*
X103628053Y-130178434D01*
X103628053Y-130178434D02*
X103601115Y-130259247D01*
X103601115Y-130259247D02*
X103466428Y-130393934D01*
X103466428Y-130393934D02*
X103385616Y-130420871D01*
X103385616Y-130420871D02*
X103331741Y-130420871D01*
X127463406Y-83289585D02*
X128217653Y-83666709D01*
X128217653Y-83666709D02*
X127840529Y-82912462D01*
X128487027Y-82804712D02*
X128594776Y-82750838D01*
X128594776Y-82750838D02*
X128648651Y-82750838D01*
X128648651Y-82750838D02*
X128729463Y-82777775D01*
X128729463Y-82777775D02*
X128810276Y-82858587D01*
X128810276Y-82858587D02*
X128837213Y-82939399D01*
X128837213Y-82939399D02*
X128837213Y-82993274D01*
X128837213Y-82993274D02*
X128810276Y-83074086D01*
X128810276Y-83074086D02*
X128594776Y-83289586D01*
X128594776Y-83289586D02*
X128029091Y-82723900D01*
X128029091Y-82723900D02*
X128217653Y-82535338D01*
X128217653Y-82535338D02*
X128298465Y-82508401D01*
X128298465Y-82508401D02*
X128352340Y-82508401D01*
X128352340Y-82508401D02*
X128433152Y-82535338D01*
X128433152Y-82535338D02*
X128487027Y-82589213D01*
X128487027Y-82589213D02*
X128513964Y-82670025D01*
X128513964Y-82670025D02*
X128513964Y-82723900D01*
X128513964Y-82723900D02*
X128487027Y-82804712D01*
X128487027Y-82804712D02*
X128298465Y-82993274D01*
X128594776Y-82158215D02*
X129052712Y-82616151D01*
X129052712Y-82616151D02*
X129133524Y-82643088D01*
X129133524Y-82643088D02*
X129187399Y-82643088D01*
X129187399Y-82643088D02*
X129268211Y-82616151D01*
X129268211Y-82616151D02*
X129375961Y-82508401D01*
X129375961Y-82508401D02*
X129402898Y-82427589D01*
X129402898Y-82427589D02*
X129402898Y-82373714D01*
X129402898Y-82373714D02*
X129375961Y-82292902D01*
X129375961Y-82292902D02*
X128918025Y-81834966D01*
X129699210Y-82131277D02*
X129806959Y-82077403D01*
X129806959Y-82077403D02*
X129941646Y-81942716D01*
X129941646Y-81942716D02*
X129968584Y-81861903D01*
X129968584Y-81861903D02*
X129968584Y-81808029D01*
X129968584Y-81808029D02*
X129941646Y-81727216D01*
X129941646Y-81727216D02*
X129887771Y-81673342D01*
X129887771Y-81673342D02*
X129806959Y-81646404D01*
X129806959Y-81646404D02*
X129753084Y-81646404D01*
X129753084Y-81646404D02*
X129672272Y-81673342D01*
X129672272Y-81673342D02*
X129537585Y-81754154D01*
X129537585Y-81754154D02*
X129456773Y-81781091D01*
X129456773Y-81781091D02*
X129402898Y-81781091D01*
X129402898Y-81781091D02*
X129322086Y-81754154D01*
X129322086Y-81754154D02*
X129268211Y-81700279D01*
X129268211Y-81700279D02*
X129241274Y-81619467D01*
X129241274Y-81619467D02*
X129241274Y-81565592D01*
X129241274Y-81565592D02*
X129268211Y-81484780D01*
X129268211Y-81484780D02*
X129402898Y-81350093D01*
X129402898Y-81350093D02*
X129510648Y-81296218D01*
X127607998Y-116052868D02*
X127527185Y-116079805D01*
X127527185Y-116079805D02*
X127446373Y-116160618D01*
X127446373Y-116160618D02*
X127392498Y-116268367D01*
X127392498Y-116268367D02*
X127392498Y-116376117D01*
X127392498Y-116376117D02*
X127419436Y-116456929D01*
X127419436Y-116456929D02*
X127500248Y-116591616D01*
X127500248Y-116591616D02*
X127581060Y-116672428D01*
X127581060Y-116672428D02*
X127715747Y-116753241D01*
X127715747Y-116753241D02*
X127796560Y-116780178D01*
X127796560Y-116780178D02*
X127904309Y-116780178D01*
X127904309Y-116780178D02*
X128012059Y-116726303D01*
X128012059Y-116726303D02*
X128065934Y-116672428D01*
X128065934Y-116672428D02*
X128119808Y-116564679D01*
X128119808Y-116564679D02*
X128119808Y-116510804D01*
X128119808Y-116510804D02*
X127931247Y-116322242D01*
X127931247Y-116322242D02*
X127823497Y-116429992D01*
X128416120Y-116322242D02*
X127850434Y-115756557D01*
X127850434Y-115756557D02*
X128065934Y-115541057D01*
X128065934Y-115541057D02*
X128146746Y-115514120D01*
X128146746Y-115514120D02*
X128200621Y-115514120D01*
X128200621Y-115514120D02*
X128281433Y-115541057D01*
X128281433Y-115541057D02*
X128362245Y-115621870D01*
X128362245Y-115621870D02*
X128389182Y-115702682D01*
X128389182Y-115702682D02*
X128389182Y-115756557D01*
X128389182Y-115756557D02*
X128362245Y-115837369D01*
X128362245Y-115837369D02*
X128146746Y-116052868D01*
X128443057Y-115271683D02*
X128443057Y-115217809D01*
X128443057Y-115217809D02*
X128469995Y-115136996D01*
X128469995Y-115136996D02*
X128604682Y-115002309D01*
X128604682Y-115002309D02*
X128685494Y-114975372D01*
X128685494Y-114975372D02*
X128739369Y-114975372D01*
X128739369Y-114975372D02*
X128820181Y-115002309D01*
X128820181Y-115002309D02*
X128874056Y-115056184D01*
X128874056Y-115056184D02*
X128927930Y-115163934D01*
X128927930Y-115163934D02*
X128927930Y-115810431D01*
X128927930Y-115810431D02*
X129278117Y-115460245D01*
X129816865Y-114921497D02*
X129493616Y-115244746D01*
X129655240Y-115083121D02*
X129089555Y-114517436D01*
X129089555Y-114517436D02*
X129116492Y-114652123D01*
X129116492Y-114652123D02*
X129116492Y-114759873D01*
X129116492Y-114759873D02*
X129089555Y-114840685D01*
X101353998Y-118582868D02*
X101273185Y-118609805D01*
X101273185Y-118609805D02*
X101192373Y-118690618D01*
X101192373Y-118690618D02*
X101138498Y-118798367D01*
X101138498Y-118798367D02*
X101138498Y-118906117D01*
X101138498Y-118906117D02*
X101165436Y-118986929D01*
X101165436Y-118986929D02*
X101246248Y-119121616D01*
X101246248Y-119121616D02*
X101327060Y-119202428D01*
X101327060Y-119202428D02*
X101461747Y-119283241D01*
X101461747Y-119283241D02*
X101542560Y-119310178D01*
X101542560Y-119310178D02*
X101650309Y-119310178D01*
X101650309Y-119310178D02*
X101758059Y-119256303D01*
X101758059Y-119256303D02*
X101811934Y-119202428D01*
X101811934Y-119202428D02*
X101865808Y-119094679D01*
X101865808Y-119094679D02*
X101865808Y-119040804D01*
X101865808Y-119040804D02*
X101677247Y-118852242D01*
X101677247Y-118852242D02*
X101569497Y-118959992D01*
X102162120Y-118852242D02*
X101596434Y-118286557D01*
X101596434Y-118286557D02*
X101811934Y-118071057D01*
X101811934Y-118071057D02*
X101892746Y-118044120D01*
X101892746Y-118044120D02*
X101946621Y-118044120D01*
X101946621Y-118044120D02*
X102027433Y-118071057D01*
X102027433Y-118071057D02*
X102108245Y-118151870D01*
X102108245Y-118151870D02*
X102135182Y-118232682D01*
X102135182Y-118232682D02*
X102135182Y-118286557D01*
X102135182Y-118286557D02*
X102108245Y-118367369D01*
X102108245Y-118367369D02*
X101892746Y-118582868D01*
X103024117Y-117990245D02*
X102700868Y-118313494D01*
X102862492Y-118151870D02*
X102296807Y-117586184D01*
X102296807Y-117586184D02*
X102323744Y-117720871D01*
X102323744Y-117720871D02*
X102323744Y-117828621D01*
X102323744Y-117828621D02*
X102296807Y-117909433D01*
X103562865Y-117451497D02*
X103239616Y-117774746D01*
X103401240Y-117613121D02*
X102835555Y-117047436D01*
X102835555Y-117047436D02*
X102862492Y-117182123D01*
X102862492Y-117182123D02*
X102862492Y-117289873D01*
X102862492Y-117289873D02*
X102835555Y-117370685D01*
X127596435Y-87860431D02*
X127515623Y-87887368D01*
X127515623Y-87887368D02*
X127434811Y-87968180D01*
X127434811Y-87968180D02*
X127380936Y-88075930D01*
X127380936Y-88075930D02*
X127380936Y-88183680D01*
X127380936Y-88183680D02*
X127407873Y-88264492D01*
X127407873Y-88264492D02*
X127488685Y-88399179D01*
X127488685Y-88399179D02*
X127569498Y-88479991D01*
X127569498Y-88479991D02*
X127704185Y-88560803D01*
X127704185Y-88560803D02*
X127784997Y-88587741D01*
X127784997Y-88587741D02*
X127892746Y-88587741D01*
X127892746Y-88587741D02*
X128000496Y-88533866D01*
X128000496Y-88533866D02*
X128054371Y-88479991D01*
X128054371Y-88479991D02*
X128108246Y-88372241D01*
X128108246Y-88372241D02*
X128108246Y-88318367D01*
X128108246Y-88318367D02*
X127919684Y-88129805D01*
X127919684Y-88129805D02*
X127811934Y-88237554D01*
X128404557Y-88129805D02*
X127838872Y-87564119D01*
X127838872Y-87564119D02*
X128727806Y-87806556D01*
X128727806Y-87806556D02*
X128162120Y-87240871D01*
X128997180Y-87537182D02*
X128431494Y-86971497D01*
X128431494Y-86971497D02*
X128566181Y-86836810D01*
X128566181Y-86836810D02*
X128673931Y-86782935D01*
X128673931Y-86782935D02*
X128781680Y-86782935D01*
X128781680Y-86782935D02*
X128862493Y-86809872D01*
X128862493Y-86809872D02*
X128997180Y-86890685D01*
X128997180Y-86890685D02*
X129077992Y-86971497D01*
X129077992Y-86971497D02*
X129158804Y-87106184D01*
X129158804Y-87106184D02*
X129185741Y-87186996D01*
X129185741Y-87186996D02*
X129185741Y-87294746D01*
X129185741Y-87294746D02*
X129131867Y-87402495D01*
X129131867Y-87402495D02*
X128997180Y-87537182D01*
X127607998Y-103352868D02*
X127527185Y-103379805D01*
X127527185Y-103379805D02*
X127446373Y-103460618D01*
X127446373Y-103460618D02*
X127392498Y-103568367D01*
X127392498Y-103568367D02*
X127392498Y-103676117D01*
X127392498Y-103676117D02*
X127419436Y-103756929D01*
X127419436Y-103756929D02*
X127500248Y-103891616D01*
X127500248Y-103891616D02*
X127581060Y-103972428D01*
X127581060Y-103972428D02*
X127715747Y-104053241D01*
X127715747Y-104053241D02*
X127796560Y-104080178D01*
X127796560Y-104080178D02*
X127904309Y-104080178D01*
X127904309Y-104080178D02*
X128012059Y-104026303D01*
X128012059Y-104026303D02*
X128065934Y-103972428D01*
X128065934Y-103972428D02*
X128119808Y-103864679D01*
X128119808Y-103864679D02*
X128119808Y-103810804D01*
X128119808Y-103810804D02*
X127931247Y-103622242D01*
X127931247Y-103622242D02*
X127823497Y-103729992D01*
X128416120Y-103622242D02*
X127850434Y-103056557D01*
X127850434Y-103056557D02*
X128065934Y-102841057D01*
X128065934Y-102841057D02*
X128146746Y-102814120D01*
X128146746Y-102814120D02*
X128200621Y-102814120D01*
X128200621Y-102814120D02*
X128281433Y-102841057D01*
X128281433Y-102841057D02*
X128362245Y-102921870D01*
X128362245Y-102921870D02*
X128389182Y-103002682D01*
X128389182Y-103002682D02*
X128389182Y-103056557D01*
X128389182Y-103056557D02*
X128362245Y-103137369D01*
X128362245Y-103137369D02*
X128146746Y-103352868D01*
X128443057Y-102571683D02*
X128443057Y-102517809D01*
X128443057Y-102517809D02*
X128469995Y-102436996D01*
X128469995Y-102436996D02*
X128604682Y-102302309D01*
X128604682Y-102302309D02*
X128685494Y-102275372D01*
X128685494Y-102275372D02*
X128739369Y-102275372D01*
X128739369Y-102275372D02*
X128820181Y-102302309D01*
X128820181Y-102302309D02*
X128874056Y-102356184D01*
X128874056Y-102356184D02*
X128927930Y-102463934D01*
X128927930Y-102463934D02*
X128927930Y-103110431D01*
X128927930Y-103110431D02*
X129278117Y-102760245D01*
X128900993Y-102005998D02*
X129278117Y-101628874D01*
X129278117Y-101628874D02*
X129601366Y-102436996D01*
X101923372Y-90373494D02*
X101842560Y-90400431D01*
X101842560Y-90400431D02*
X101761748Y-90481243D01*
X101761748Y-90481243D02*
X101707873Y-90588993D01*
X101707873Y-90588993D02*
X101707873Y-90696742D01*
X101707873Y-90696742D02*
X101734810Y-90777555D01*
X101734810Y-90777555D02*
X101815623Y-90912242D01*
X101815623Y-90912242D02*
X101896435Y-90993054D01*
X101896435Y-90993054D02*
X102031122Y-91073866D01*
X102031122Y-91073866D02*
X102111934Y-91100803D01*
X102111934Y-91100803D02*
X102219684Y-91100803D01*
X102219684Y-91100803D02*
X102327433Y-91046929D01*
X102327433Y-91046929D02*
X102381308Y-90993054D01*
X102381308Y-90993054D02*
X102435183Y-90885304D01*
X102435183Y-90885304D02*
X102435183Y-90831429D01*
X102435183Y-90831429D02*
X102246621Y-90642868D01*
X102246621Y-90642868D02*
X102138871Y-90750617D01*
X102731494Y-90642868D02*
X102165809Y-90077182D01*
X102165809Y-90077182D02*
X102381308Y-89861683D01*
X102381308Y-89861683D02*
X102462120Y-89834746D01*
X102462120Y-89834746D02*
X102515995Y-89834746D01*
X102515995Y-89834746D02*
X102596807Y-89861683D01*
X102596807Y-89861683D02*
X102677619Y-89942495D01*
X102677619Y-89942495D02*
X102704557Y-90023307D01*
X102704557Y-90023307D02*
X102704557Y-90077182D01*
X102704557Y-90077182D02*
X102677619Y-90157994D01*
X102677619Y-90157994D02*
X102462120Y-90373494D01*
X102758432Y-89592309D02*
X102758432Y-89538434D01*
X102758432Y-89538434D02*
X102785369Y-89457622D01*
X102785369Y-89457622D02*
X102920056Y-89322935D01*
X102920056Y-89322935D02*
X103000868Y-89295998D01*
X103000868Y-89295998D02*
X103054743Y-89295998D01*
X103054743Y-89295998D02*
X103135555Y-89322935D01*
X103135555Y-89322935D02*
X103189430Y-89376810D01*
X103189430Y-89376810D02*
X103243305Y-89484559D01*
X103243305Y-89484559D02*
X103243305Y-90131057D01*
X103243305Y-90131057D02*
X103593491Y-89780871D01*
X101499998Y-123662868D02*
X101419185Y-123689805D01*
X101419185Y-123689805D02*
X101338373Y-123770618D01*
X101338373Y-123770618D02*
X101284498Y-123878367D01*
X101284498Y-123878367D02*
X101284498Y-123986117D01*
X101284498Y-123986117D02*
X101311436Y-124066929D01*
X101311436Y-124066929D02*
X101392248Y-124201616D01*
X101392248Y-124201616D02*
X101473060Y-124282428D01*
X101473060Y-124282428D02*
X101607747Y-124363241D01*
X101607747Y-124363241D02*
X101688560Y-124390178D01*
X101688560Y-124390178D02*
X101796309Y-124390178D01*
X101796309Y-124390178D02*
X101904059Y-124336303D01*
X101904059Y-124336303D02*
X101957934Y-124282428D01*
X101957934Y-124282428D02*
X102011808Y-124174679D01*
X102011808Y-124174679D02*
X102011808Y-124120804D01*
X102011808Y-124120804D02*
X101823247Y-123932242D01*
X101823247Y-123932242D02*
X101715497Y-124039992D01*
X102308120Y-123932242D02*
X101742434Y-123366557D01*
X101742434Y-123366557D02*
X101957934Y-123151057D01*
X101957934Y-123151057D02*
X102038746Y-123124120D01*
X102038746Y-123124120D02*
X102092621Y-123124120D01*
X102092621Y-123124120D02*
X102173433Y-123151057D01*
X102173433Y-123151057D02*
X102254245Y-123231870D01*
X102254245Y-123231870D02*
X102281182Y-123312682D01*
X102281182Y-123312682D02*
X102281182Y-123366557D01*
X102281182Y-123366557D02*
X102254245Y-123447369D01*
X102254245Y-123447369D02*
X102038746Y-123662868D01*
X103170117Y-123070245D02*
X102846868Y-123393494D01*
X103008492Y-123231870D02*
X102442807Y-122666184D01*
X102442807Y-122666184D02*
X102469744Y-122800871D01*
X102469744Y-122800871D02*
X102469744Y-122908621D01*
X102469744Y-122908621D02*
X102442807Y-122989433D01*
X102792993Y-122315998D02*
X103143179Y-121965812D01*
X103143179Y-121965812D02*
X103170117Y-122369873D01*
X103170117Y-122369873D02*
X103250929Y-122289060D01*
X103250929Y-122289060D02*
X103331741Y-122262123D01*
X103331741Y-122262123D02*
X103385616Y-122262123D01*
X103385616Y-122262123D02*
X103466428Y-122289060D01*
X103466428Y-122289060D02*
X103601115Y-122423747D01*
X103601115Y-122423747D02*
X103628053Y-122504560D01*
X103628053Y-122504560D02*
X103628053Y-122558434D01*
X103628053Y-122558434D02*
X103601115Y-122639247D01*
X103601115Y-122639247D02*
X103439491Y-122800871D01*
X103439491Y-122800871D02*
X103358679Y-122827808D01*
X103358679Y-122827808D02*
X103304804Y-122827808D01*
D11*
%TO.C,D4*%
X123397500Y-51417000D02*
X123397500Y-52887000D01*
X123397500Y-52887000D02*
X125682500Y-52887000D01*
X125682500Y-51417000D02*
X123397500Y-51417000D01*
%TO.C,U2*%
X114220000Y-75520000D02*
X114220000Y-72070000D01*
X114220000Y-75520000D02*
X114220000Y-77470000D01*
X104100000Y-75520000D02*
X104100000Y-73570000D01*
X104100000Y-75520000D02*
X104100000Y-77470000D01*
%TO.C,R3*%
X120970000Y-52305641D02*
X120970000Y-51998359D01*
X121730000Y-52305641D02*
X121730000Y-51998359D01*
%TO.C,R12*%
X127267554Y-60645808D02*
X127267554Y-60338526D01*
X128027554Y-60645808D02*
X128027554Y-60338526D01*
%TO.C,R16*%
X127061841Y-64896657D02*
X127061841Y-64589375D01*
X127821841Y-64896657D02*
X127821841Y-64589375D01*
%TO.C,J1*%
X97688919Y-80739311D02*
X99018919Y-80739311D01*
X97688919Y-82069311D02*
X97688919Y-80739311D01*
X97688919Y-83339311D02*
X97688919Y-96099311D01*
X97688919Y-83339311D02*
X100348919Y-83339311D01*
X97688919Y-96099311D02*
X100348919Y-96099311D01*
X100348919Y-83339311D02*
X100348919Y-96099311D01*
%TO.C,D9*%
X104538079Y-59717739D02*
X104538079Y-61187739D01*
X104538079Y-61187739D02*
X106823079Y-61187739D01*
X106823079Y-59717739D02*
X104538079Y-59717739D01*
%TO.C,R14*%
X114767795Y-65001686D02*
X114767795Y-64694404D01*
X115527795Y-65001686D02*
X115527795Y-64694404D01*
%TO.C,U3*%
X126488200Y-75520000D02*
X126488200Y-72070000D01*
X126488200Y-75520000D02*
X126488200Y-77470000D01*
X116368200Y-75520000D02*
X116368200Y-73570000D01*
X116368200Y-75520000D02*
X116368200Y-77470000D01*
%TO.C,R4*%
X127278364Y-52543007D02*
X127278364Y-52235725D01*
X128038364Y-52543007D02*
X128038364Y-52235725D01*
%TO.C,D5*%
X104715931Y-55303200D02*
X104715931Y-56773200D01*
X104715931Y-56773200D02*
X107000931Y-56773200D01*
X107000931Y-55303200D02*
X104715931Y-55303200D01*
%TO.C,R6*%
X114793066Y-56674441D02*
X114793066Y-56367159D01*
X115553066Y-56674441D02*
X115553066Y-56367159D01*
%TO.C,D1*%
X104671419Y-51417000D02*
X104671419Y-52887000D01*
X104671419Y-52887000D02*
X106956419Y-52887000D01*
X106956419Y-51417000D02*
X104671419Y-51417000D01*
%TO.C,R10*%
X114723600Y-60916241D02*
X114723600Y-60608959D01*
X115483600Y-60916241D02*
X115483600Y-60608959D01*
%TO.C,J2*%
X97688919Y-110195869D02*
X99018919Y-110195869D01*
X97688919Y-111525869D02*
X97688919Y-110195869D01*
X97688919Y-112795869D02*
X97688919Y-117935869D01*
X97688919Y-112795869D02*
X100348919Y-112795869D01*
X97688919Y-117935869D02*
X100348919Y-117935869D01*
X100348919Y-112795869D02*
X100348919Y-117935869D01*
%TO.C,R11*%
X120768800Y-61144841D02*
X120768800Y-60837559D01*
X121528800Y-61144841D02*
X121528800Y-60837559D01*
%TO.C,D6*%
X111129400Y-55303200D02*
X111129400Y-56773200D01*
X111129400Y-56773200D02*
X113414400Y-56773200D01*
X113414400Y-55303200D02*
X111129400Y-55303200D01*
%TO.C,D16*%
X123524600Y-63812200D02*
X123524600Y-65282200D01*
X123524600Y-65282200D02*
X125809600Y-65282200D01*
X125809600Y-63812200D02*
X123524600Y-63812200D01*
%TO.C,D10*%
X110977546Y-59802606D02*
X110977546Y-61272606D01*
X110977546Y-61272606D02*
X113262546Y-61272606D01*
X113262546Y-59802606D02*
X110977546Y-59802606D01*
%TO.C,R5*%
X108824512Y-56701841D02*
X108824512Y-56394559D01*
X109584512Y-56701841D02*
X109584512Y-56394559D01*
%TO.C,R2*%
X114570754Y-52735441D02*
X114570754Y-52428159D01*
X115330754Y-52735441D02*
X115330754Y-52428159D01*
%TO.C,R13*%
X108799241Y-65029086D02*
X108799241Y-64721804D01*
X109559241Y-65029086D02*
X109559241Y-64721804D01*
%TO.C,D3*%
X117066419Y-51417000D02*
X117066419Y-52887000D01*
X117066419Y-52887000D02*
X119351419Y-52887000D01*
X119351419Y-51417000D02*
X117066419Y-51417000D01*
%TO.C,J3*%
X130708919Y-110195869D02*
X132038919Y-110195869D01*
X130708919Y-111525869D02*
X130708919Y-110195869D01*
X130708919Y-112795869D02*
X130708919Y-117935869D01*
X130708919Y-112795869D02*
X133368919Y-112795869D01*
X130708919Y-117935869D02*
X133368919Y-117935869D01*
X133368919Y-112795869D02*
X133368919Y-117935869D01*
%TO.C,D14*%
X111104129Y-63630445D02*
X111104129Y-65100445D01*
X111104129Y-65100445D02*
X113389129Y-65100445D01*
X113389129Y-63630445D02*
X111104129Y-63630445D01*
%TO.C,R1*%
X108780000Y-52305641D02*
X108780000Y-51998359D01*
X109540000Y-52305641D02*
X109540000Y-51998359D01*
%TO.C,D11*%
X117098400Y-59545000D02*
X117098400Y-61015000D01*
X117098400Y-61015000D02*
X119383400Y-61015000D01*
X119383400Y-59545000D02*
X117098400Y-59545000D01*
%TO.C,D13*%
X104385660Y-63630445D02*
X104385660Y-65100445D01*
X104385660Y-65100445D02*
X106670660Y-65100445D01*
X106670660Y-63630445D02*
X104385660Y-63630445D01*
%TO.C,D15*%
X117066741Y-63630445D02*
X117066741Y-65100445D01*
X117066741Y-65100445D02*
X119351741Y-65100445D01*
X119351741Y-63630445D02*
X117066741Y-63630445D01*
%TO.C,U1*%
X105010000Y-81262000D02*
X105010000Y-81562000D01*
X105010000Y-81262000D02*
X126010000Y-81262000D01*
X105010000Y-83662000D02*
X105010000Y-84062000D01*
X105010000Y-83929000D02*
X108017000Y-83929000D01*
X105010000Y-86262000D02*
X105010000Y-86662000D01*
X105010000Y-88762000D02*
X105010000Y-89162000D01*
X105010000Y-91362000D02*
X105010000Y-91762000D01*
X105010000Y-93862000D02*
X105010000Y-94262000D01*
X105010000Y-96362000D02*
X105010000Y-96762000D01*
X105010000Y-98962000D02*
X105010000Y-99362000D01*
X105010000Y-101462000D02*
X105010000Y-101862000D01*
X105010000Y-104062000D02*
X105010000Y-104462000D01*
X105010000Y-106562000D02*
X105010000Y-106962000D01*
X105010000Y-109062000D02*
X105010000Y-109462000D01*
X105010000Y-111662000D02*
X105010000Y-112062000D01*
X105010000Y-114162000D02*
X105010000Y-114562000D01*
X105010000Y-116762000D02*
X105010000Y-117162000D01*
X105010000Y-119262000D02*
X105010000Y-119662000D01*
X105010000Y-121862000D02*
X105010000Y-122262000D01*
X105010000Y-124362000D02*
X105010000Y-124762000D01*
X105010000Y-126862000D02*
X105010000Y-127262000D01*
X105010000Y-129462000D02*
X105010000Y-129862000D01*
X108017000Y-83929000D02*
X108017000Y-81262000D01*
X111810000Y-132262000D02*
X105010000Y-132262000D01*
X114010000Y-132262000D02*
X114410000Y-132262000D01*
X116610000Y-132262000D02*
X117010000Y-132262000D01*
X126010000Y-81262000D02*
X126010000Y-81562000D01*
X126010000Y-83662000D02*
X126010000Y-84062000D01*
X126010000Y-86262000D02*
X126010000Y-86662000D01*
X126010000Y-88762000D02*
X126010000Y-89162000D01*
X126010000Y-91362000D02*
X126010000Y-91762000D01*
X126010000Y-93862000D02*
X126010000Y-94262000D01*
X126010000Y-96362000D02*
X126010000Y-96762000D01*
X126010000Y-98962000D02*
X126010000Y-99362000D01*
X126010000Y-101462000D02*
X126010000Y-101862000D01*
X126010000Y-104062000D02*
X126010000Y-104462000D01*
X126010000Y-106562000D02*
X126010000Y-106962000D01*
X126010000Y-109062000D02*
X126010000Y-109462000D01*
X126010000Y-111662000D02*
X126010000Y-112062000D01*
X126010000Y-114162000D02*
X126010000Y-114562000D01*
X126010000Y-116762000D02*
X126010000Y-117162000D01*
X126010000Y-119262000D02*
X126010000Y-119662000D01*
X126010000Y-121862000D02*
X126010000Y-122262000D01*
X126010000Y-124362000D02*
X126010000Y-124762000D01*
X126010000Y-126862000D02*
X126010000Y-127262000D01*
X126010000Y-129462000D02*
X126010000Y-129862000D01*
X126010000Y-132262000D02*
X119210000Y-132262000D01*
%TO.C,R8*%
X127322876Y-56701841D02*
X127322876Y-56394559D01*
X128082876Y-56701841D02*
X128082876Y-56394559D01*
%TO.C,R7*%
X121251400Y-56725241D02*
X121251400Y-56417959D01*
X122011400Y-56725241D02*
X122011400Y-56417959D01*
%TO.C,D2*%
X111084888Y-51417000D02*
X111084888Y-52887000D01*
X111084888Y-52887000D02*
X113369888Y-52887000D01*
X113369888Y-51417000D02*
X111084888Y-51417000D01*
%TO.C,R9*%
X108755046Y-61193641D02*
X108755046Y-60886359D01*
X109515046Y-61193641D02*
X109515046Y-60886359D01*
%TO.C,D8*%
X123553402Y-55360839D02*
X123553402Y-56830839D01*
X123553402Y-56830839D02*
X125838402Y-56830839D01*
X125838402Y-55360839D02*
X123553402Y-55360839D01*
%TO.C,D12*%
X123462719Y-59463138D02*
X123462719Y-60933138D01*
X123462719Y-60933138D02*
X125747719Y-60933138D01*
X125747719Y-59463138D02*
X123462719Y-59463138D01*
%TO.C,D7*%
X117092012Y-55424489D02*
X117092012Y-56894489D01*
X117092012Y-56894489D02*
X119377012Y-56894489D01*
X119377012Y-55424489D02*
X117092012Y-55424489D01*
%TO.C,R15*%
X120794200Y-64523041D02*
X120794200Y-64215759D01*
X121554200Y-64523041D02*
X121554200Y-64215759D01*
%TD*%
%LPC*%
D12*
%TO.C,D4*%
X124095000Y-52152000D03*
X125670000Y-52152000D03*
%TD*%
D13*
%TO.C,U2*%
X113605000Y-72945000D03*
X112335000Y-72945000D03*
X111065000Y-72945000D03*
X109795000Y-72945000D03*
X108525000Y-72945000D03*
X107255000Y-72945000D03*
X105985000Y-72945000D03*
X104715000Y-72945000D03*
X104715000Y-78095000D03*
X105985000Y-78095000D03*
X107255000Y-78095000D03*
X108525000Y-78095000D03*
X109795000Y-78095000D03*
X111065000Y-78095000D03*
X112335000Y-78095000D03*
X113605000Y-78095000D03*
%TD*%
D14*
%TO.C,R3*%
X121350000Y-52662000D03*
X121350000Y-51642000D03*
%TD*%
%TO.C,R12*%
X127647554Y-61002167D03*
X127647554Y-59982167D03*
%TD*%
%TO.C,R16*%
X127441841Y-65253016D03*
X127441841Y-64233016D03*
%TD*%
D15*
%TO.C,J1*%
X99018919Y-82069311D03*
D16*
X99018919Y-84609311D03*
X99018919Y-87149311D03*
X99018919Y-89689311D03*
X99018919Y-92229311D03*
X99018919Y-94769311D03*
%TD*%
D12*
%TO.C,D9*%
X105235579Y-60452739D03*
X106810579Y-60452739D03*
%TD*%
D14*
%TO.C,R14*%
X115147795Y-65358045D03*
X115147795Y-64338045D03*
%TD*%
D13*
%TO.C,U3*%
X125873200Y-72945000D03*
X124603200Y-72945000D03*
X123333200Y-72945000D03*
X122063200Y-72945000D03*
X120793200Y-72945000D03*
X119523200Y-72945000D03*
X118253200Y-72945000D03*
X116983200Y-72945000D03*
X116983200Y-78095000D03*
X118253200Y-78095000D03*
X119523200Y-78095000D03*
X120793200Y-78095000D03*
X122063200Y-78095000D03*
X123333200Y-78095000D03*
X124603200Y-78095000D03*
X125873200Y-78095000D03*
%TD*%
D14*
%TO.C,R4*%
X127658364Y-52899366D03*
X127658364Y-51879366D03*
%TD*%
D12*
%TO.C,D5*%
X105413431Y-56038200D03*
X106988431Y-56038200D03*
%TD*%
D14*
%TO.C,R6*%
X115173066Y-57030800D03*
X115173066Y-56010800D03*
%TD*%
D12*
%TO.C,D1*%
X105368919Y-52152000D03*
X106943919Y-52152000D03*
%TD*%
D14*
%TO.C,R10*%
X115103600Y-61272600D03*
X115103600Y-60252600D03*
%TD*%
D15*
%TO.C,J2*%
X99018919Y-111525869D03*
D16*
X99018919Y-114065869D03*
X99018919Y-116605869D03*
%TD*%
D14*
%TO.C,R11*%
X121148800Y-61501200D03*
X121148800Y-60481200D03*
%TD*%
D12*
%TO.C,D6*%
X111826900Y-56038200D03*
X113401900Y-56038200D03*
%TD*%
%TO.C,D16*%
X124222100Y-64547200D03*
X125797100Y-64547200D03*
%TD*%
%TO.C,D10*%
X111675046Y-60537606D03*
X113250046Y-60537606D03*
%TD*%
D14*
%TO.C,R5*%
X109204512Y-57058200D03*
X109204512Y-56038200D03*
%TD*%
%TO.C,R2*%
X114950754Y-53091800D03*
X114950754Y-52071800D03*
%TD*%
%TO.C,R13*%
X109179241Y-65385445D03*
X109179241Y-64365445D03*
%TD*%
D12*
%TO.C,D3*%
X117763919Y-52152000D03*
X119338919Y-52152000D03*
%TD*%
D15*
%TO.C,J3*%
X132038919Y-111525869D03*
D16*
X132038919Y-114065869D03*
X132038919Y-116605869D03*
%TD*%
D12*
%TO.C,D14*%
X111801629Y-64365445D03*
X113376629Y-64365445D03*
%TD*%
D14*
%TO.C,R1*%
X109160000Y-52662000D03*
X109160000Y-51642000D03*
%TD*%
D12*
%TO.C,D11*%
X117795900Y-60280000D03*
X119370900Y-60280000D03*
%TD*%
%TO.C,D13*%
X105083160Y-64365445D03*
X106658160Y-64365445D03*
%TD*%
%TO.C,D15*%
X117764241Y-64365445D03*
X119339241Y-64365445D03*
%TD*%
D17*
%TO.C,U1*%
X112785000Y-82762000D03*
D18*
X113085000Y-85792000D03*
X117935000Y-85792000D03*
D17*
X118235000Y-82762000D03*
D16*
X106620000Y-82632000D03*
D19*
X105720000Y-82632000D03*
D16*
X106620000Y-85172000D03*
D19*
X105720000Y-85172000D03*
D15*
X106620000Y-87712000D03*
D19*
X105720000Y-87712000D03*
D16*
X106620000Y-90252000D03*
D19*
X105720000Y-90252000D03*
D16*
X106620000Y-92792000D03*
D19*
X105720000Y-92792000D03*
D16*
X106620000Y-95332000D03*
D19*
X105720000Y-95332000D03*
D16*
X106620000Y-97872000D03*
D19*
X105720000Y-97872000D03*
D15*
X106620000Y-100412000D03*
D19*
X105720000Y-100412000D03*
D16*
X106620000Y-102952000D03*
D19*
X105720000Y-102952000D03*
D16*
X106620000Y-105492000D03*
D19*
X105720000Y-105492000D03*
D16*
X106620000Y-108032000D03*
D19*
X105720000Y-108032000D03*
D16*
X106620000Y-110572000D03*
D19*
X105720000Y-110572000D03*
D15*
X106620000Y-113112000D03*
D19*
X105720000Y-113112000D03*
D16*
X106620000Y-115652000D03*
D19*
X105720000Y-115652000D03*
D16*
X106620000Y-118192000D03*
D19*
X105720000Y-118192000D03*
D16*
X106620000Y-120732000D03*
D19*
X105720000Y-120732000D03*
D16*
X106620000Y-123272000D03*
D19*
X105720000Y-123272000D03*
D15*
X106620000Y-125812000D03*
D19*
X105720000Y-125812000D03*
D16*
X106620000Y-128352000D03*
D19*
X105720000Y-128352000D03*
D16*
X106620000Y-130892000D03*
D19*
X105720000Y-130892000D03*
D16*
X124400000Y-130892000D03*
D19*
X125300000Y-130892000D03*
D16*
X124400000Y-128352000D03*
D19*
X125300000Y-128352000D03*
D15*
X124400000Y-125812000D03*
D19*
X125300000Y-125812000D03*
D16*
X124400000Y-123272000D03*
D19*
X125300000Y-123272000D03*
D16*
X124400000Y-120732000D03*
D19*
X125300000Y-120732000D03*
D16*
X124400000Y-118192000D03*
D19*
X125300000Y-118192000D03*
D16*
X124400000Y-115652000D03*
D19*
X125300000Y-115652000D03*
D15*
X124400000Y-113112000D03*
D19*
X125300000Y-113112000D03*
D16*
X124400000Y-110572000D03*
D19*
X125300000Y-110572000D03*
D16*
X124400000Y-108032000D03*
D19*
X125300000Y-108032000D03*
D16*
X124400000Y-105492000D03*
D19*
X125300000Y-105492000D03*
D16*
X124400000Y-102952000D03*
D19*
X125300000Y-102952000D03*
D15*
X124400000Y-100412000D03*
D19*
X125300000Y-100412000D03*
D16*
X124400000Y-97872000D03*
D19*
X125300000Y-97872000D03*
D16*
X124400000Y-95332000D03*
D19*
X125300000Y-95332000D03*
D16*
X124400000Y-92792000D03*
D19*
X125300000Y-92792000D03*
D16*
X124400000Y-90252000D03*
D19*
X125300000Y-90252000D03*
D15*
X124400000Y-87712000D03*
D19*
X125300000Y-87712000D03*
D16*
X124400000Y-85172000D03*
D19*
X125300000Y-85172000D03*
D16*
X124400000Y-82632000D03*
D19*
X125300000Y-82632000D03*
D16*
X112970000Y-130662000D03*
D20*
X112970000Y-131562000D03*
D15*
X115510000Y-130662000D03*
D20*
X115510000Y-131562000D03*
D16*
X118050000Y-130662000D03*
D20*
X118050000Y-131562000D03*
%TD*%
D14*
%TO.C,R8*%
X127702876Y-57058200D03*
X127702876Y-56038200D03*
%TD*%
%TO.C,R7*%
X121631400Y-57081600D03*
X121631400Y-56061600D03*
%TD*%
D12*
%TO.C,D2*%
X111782388Y-52152000D03*
X113357388Y-52152000D03*
%TD*%
D14*
%TO.C,R9*%
X109135046Y-61550000D03*
X109135046Y-60530000D03*
%TD*%
D12*
%TO.C,D8*%
X124250902Y-56095839D03*
X125825902Y-56095839D03*
%TD*%
%TO.C,D12*%
X124160219Y-60198138D03*
X125735219Y-60198138D03*
%TD*%
%TO.C,D7*%
X117789512Y-56159489D03*
X119364512Y-56159489D03*
%TD*%
D14*
%TO.C,R15*%
X121174200Y-64879400D03*
X121174200Y-63859400D03*
%TD*%
%LPD*%
M02*
