%TF.GenerationSoftware,KiCad,Pcbnew,7.0.5*%
%TF.CreationDate,2023-07-10T21:20:45-07:00*%
%TF.ProjectId,roshambo-pcb-smt,726f7368-616d-4626-9f2d-7063622d736d,rev?*%
%TF.SameCoordinates,Original*%
%TF.FileFunction,Other,Comment*%
%FSLAX46Y46*%
G04 Gerber Fmt 4.6, Leading zero omitted, Abs format (unit mm)*
G04 Created by KiCad (PCBNEW 7.0.5) date 2023-07-10 21:20:45*
%MOMM*%
%LPD*%
G01*
G04 APERTURE LIST*
%ADD10C,0.150000*%
G04 APERTURE END LIST*
D10*
%TO.C,U1*%
X105829997Y-53255580D02*
X105782378Y-53303200D01*
X105782378Y-53303200D02*
X105639521Y-53350819D01*
X105639521Y-53350819D02*
X105544283Y-53350819D01*
X105544283Y-53350819D02*
X105401426Y-53303200D01*
X105401426Y-53303200D02*
X105306188Y-53207961D01*
X105306188Y-53207961D02*
X105258569Y-53112723D01*
X105258569Y-53112723D02*
X105210950Y-52922247D01*
X105210950Y-52922247D02*
X105210950Y-52779390D01*
X105210950Y-52779390D02*
X105258569Y-52588914D01*
X105258569Y-52588914D02*
X105306188Y-52493676D01*
X105306188Y-52493676D02*
X105401426Y-52398438D01*
X105401426Y-52398438D02*
X105544283Y-52350819D01*
X105544283Y-52350819D02*
X105639521Y-52350819D01*
X105639521Y-52350819D02*
X105782378Y-52398438D01*
X105782378Y-52398438D02*
X105829997Y-52446057D01*
X106401426Y-53350819D02*
X106306188Y-53303200D01*
X106306188Y-53303200D02*
X106258569Y-53255580D01*
X106258569Y-53255580D02*
X106210950Y-53160342D01*
X106210950Y-53160342D02*
X106210950Y-52874628D01*
X106210950Y-52874628D02*
X106258569Y-52779390D01*
X106258569Y-52779390D02*
X106306188Y-52731771D01*
X106306188Y-52731771D02*
X106401426Y-52684152D01*
X106401426Y-52684152D02*
X106544283Y-52684152D01*
X106544283Y-52684152D02*
X106639521Y-52731771D01*
X106639521Y-52731771D02*
X106687140Y-52779390D01*
X106687140Y-52779390D02*
X106734759Y-52874628D01*
X106734759Y-52874628D02*
X106734759Y-53160342D01*
X106734759Y-53160342D02*
X106687140Y-53255580D01*
X106687140Y-53255580D02*
X106639521Y-53303200D01*
X106639521Y-53303200D02*
X106544283Y-53350819D01*
X106544283Y-53350819D02*
X106401426Y-53350819D01*
X107163331Y-52684152D02*
X107163331Y-53684152D01*
X107163331Y-52731771D02*
X107258569Y-52684152D01*
X107258569Y-52684152D02*
X107449045Y-52684152D01*
X107449045Y-52684152D02*
X107544283Y-52731771D01*
X107544283Y-52731771D02*
X107591902Y-52779390D01*
X107591902Y-52779390D02*
X107639521Y-52874628D01*
X107639521Y-52874628D02*
X107639521Y-53160342D01*
X107639521Y-53160342D02*
X107591902Y-53255580D01*
X107591902Y-53255580D02*
X107544283Y-53303200D01*
X107544283Y-53303200D02*
X107449045Y-53350819D01*
X107449045Y-53350819D02*
X107258569Y-53350819D01*
X107258569Y-53350819D02*
X107163331Y-53303200D01*
X108068093Y-52684152D02*
X108068093Y-53684152D01*
X108068093Y-52731771D02*
X108163331Y-52684152D01*
X108163331Y-52684152D02*
X108353807Y-52684152D01*
X108353807Y-52684152D02*
X108449045Y-52731771D01*
X108449045Y-52731771D02*
X108496664Y-52779390D01*
X108496664Y-52779390D02*
X108544283Y-52874628D01*
X108544283Y-52874628D02*
X108544283Y-53160342D01*
X108544283Y-53160342D02*
X108496664Y-53255580D01*
X108496664Y-53255580D02*
X108449045Y-53303200D01*
X108449045Y-53303200D02*
X108353807Y-53350819D01*
X108353807Y-53350819D02*
X108163331Y-53350819D01*
X108163331Y-53350819D02*
X108068093Y-53303200D01*
X109353807Y-53303200D02*
X109258569Y-53350819D01*
X109258569Y-53350819D02*
X109068093Y-53350819D01*
X109068093Y-53350819D02*
X108972855Y-53303200D01*
X108972855Y-53303200D02*
X108925236Y-53207961D01*
X108925236Y-53207961D02*
X108925236Y-52827009D01*
X108925236Y-52827009D02*
X108972855Y-52731771D01*
X108972855Y-52731771D02*
X109068093Y-52684152D01*
X109068093Y-52684152D02*
X109258569Y-52684152D01*
X109258569Y-52684152D02*
X109353807Y-52731771D01*
X109353807Y-52731771D02*
X109401426Y-52827009D01*
X109401426Y-52827009D02*
X109401426Y-52922247D01*
X109401426Y-52922247D02*
X108925236Y-53017485D01*
X109829998Y-53350819D02*
X109829998Y-52684152D01*
X109829998Y-52874628D02*
X109877617Y-52779390D01*
X109877617Y-52779390D02*
X109925236Y-52731771D01*
X109925236Y-52731771D02*
X110020474Y-52684152D01*
X110020474Y-52684152D02*
X110115712Y-52684152D01*
X111210951Y-53350819D02*
X111210951Y-52350819D01*
X111782379Y-53350819D02*
X111353808Y-52779390D01*
X111782379Y-52350819D02*
X111210951Y-52922247D01*
X112591903Y-53303200D02*
X112496665Y-53350819D01*
X112496665Y-53350819D02*
X112306189Y-53350819D01*
X112306189Y-53350819D02*
X112210951Y-53303200D01*
X112210951Y-53303200D02*
X112163332Y-53207961D01*
X112163332Y-53207961D02*
X112163332Y-52827009D01*
X112163332Y-52827009D02*
X112210951Y-52731771D01*
X112210951Y-52731771D02*
X112306189Y-52684152D01*
X112306189Y-52684152D02*
X112496665Y-52684152D01*
X112496665Y-52684152D02*
X112591903Y-52731771D01*
X112591903Y-52731771D02*
X112639522Y-52827009D01*
X112639522Y-52827009D02*
X112639522Y-52922247D01*
X112639522Y-52922247D02*
X112163332Y-53017485D01*
X113449046Y-53303200D02*
X113353808Y-53350819D01*
X113353808Y-53350819D02*
X113163332Y-53350819D01*
X113163332Y-53350819D02*
X113068094Y-53303200D01*
X113068094Y-53303200D02*
X113020475Y-53207961D01*
X113020475Y-53207961D02*
X113020475Y-52827009D01*
X113020475Y-52827009D02*
X113068094Y-52731771D01*
X113068094Y-52731771D02*
X113163332Y-52684152D01*
X113163332Y-52684152D02*
X113353808Y-52684152D01*
X113353808Y-52684152D02*
X113449046Y-52731771D01*
X113449046Y-52731771D02*
X113496665Y-52827009D01*
X113496665Y-52827009D02*
X113496665Y-52922247D01*
X113496665Y-52922247D02*
X113020475Y-53017485D01*
X113925237Y-52684152D02*
X113925237Y-53684152D01*
X113925237Y-52731771D02*
X114020475Y-52684152D01*
X114020475Y-52684152D02*
X114210951Y-52684152D01*
X114210951Y-52684152D02*
X114306189Y-52731771D01*
X114306189Y-52731771D02*
X114353808Y-52779390D01*
X114353808Y-52779390D02*
X114401427Y-52874628D01*
X114401427Y-52874628D02*
X114401427Y-53160342D01*
X114401427Y-53160342D02*
X114353808Y-53255580D01*
X114353808Y-53255580D02*
X114306189Y-53303200D01*
X114306189Y-53303200D02*
X114210951Y-53350819D01*
X114210951Y-53350819D02*
X114020475Y-53350819D01*
X114020475Y-53350819D02*
X113925237Y-53303200D01*
X114972856Y-53350819D02*
X114877618Y-53303200D01*
X114877618Y-53303200D02*
X114829999Y-53255580D01*
X114829999Y-53255580D02*
X114782380Y-53160342D01*
X114782380Y-53160342D02*
X114782380Y-52874628D01*
X114782380Y-52874628D02*
X114829999Y-52779390D01*
X114829999Y-52779390D02*
X114877618Y-52731771D01*
X114877618Y-52731771D02*
X114972856Y-52684152D01*
X114972856Y-52684152D02*
X115115713Y-52684152D01*
X115115713Y-52684152D02*
X115210951Y-52731771D01*
X115210951Y-52731771D02*
X115258570Y-52779390D01*
X115258570Y-52779390D02*
X115306189Y-52874628D01*
X115306189Y-52874628D02*
X115306189Y-53160342D01*
X115306189Y-53160342D02*
X115258570Y-53255580D01*
X115258570Y-53255580D02*
X115210951Y-53303200D01*
X115210951Y-53303200D02*
X115115713Y-53350819D01*
X115115713Y-53350819D02*
X114972856Y-53350819D01*
X116163332Y-52684152D02*
X116163332Y-53350819D01*
X115734761Y-52684152D02*
X115734761Y-53207961D01*
X115734761Y-53207961D02*
X115782380Y-53303200D01*
X115782380Y-53303200D02*
X115877618Y-53350819D01*
X115877618Y-53350819D02*
X116020475Y-53350819D01*
X116020475Y-53350819D02*
X116115713Y-53303200D01*
X116115713Y-53303200D02*
X116163332Y-53255580D01*
X116496666Y-52684152D02*
X116877618Y-52684152D01*
X116639523Y-52350819D02*
X116639523Y-53207961D01*
X116639523Y-53207961D02*
X116687142Y-53303200D01*
X116687142Y-53303200D02*
X116782380Y-53350819D01*
X116782380Y-53350819D02*
X116877618Y-53350819D01*
X117163333Y-53303200D02*
X117258571Y-53350819D01*
X117258571Y-53350819D02*
X117449047Y-53350819D01*
X117449047Y-53350819D02*
X117544285Y-53303200D01*
X117544285Y-53303200D02*
X117591904Y-53207961D01*
X117591904Y-53207961D02*
X117591904Y-53160342D01*
X117591904Y-53160342D02*
X117544285Y-53065104D01*
X117544285Y-53065104D02*
X117449047Y-53017485D01*
X117449047Y-53017485D02*
X117306190Y-53017485D01*
X117306190Y-53017485D02*
X117210952Y-52969866D01*
X117210952Y-52969866D02*
X117163333Y-52874628D01*
X117163333Y-52874628D02*
X117163333Y-52827009D01*
X117163333Y-52827009D02*
X117210952Y-52731771D01*
X117210952Y-52731771D02*
X117306190Y-52684152D01*
X117306190Y-52684152D02*
X117449047Y-52684152D01*
X117449047Y-52684152D02*
X117544285Y-52731771D01*
X118734762Y-53303200D02*
X118830000Y-53350819D01*
X118830000Y-53350819D02*
X119020476Y-53350819D01*
X119020476Y-53350819D02*
X119115714Y-53303200D01*
X119115714Y-53303200D02*
X119163333Y-53207961D01*
X119163333Y-53207961D02*
X119163333Y-53160342D01*
X119163333Y-53160342D02*
X119115714Y-53065104D01*
X119115714Y-53065104D02*
X119020476Y-53017485D01*
X119020476Y-53017485D02*
X118877619Y-53017485D01*
X118877619Y-53017485D02*
X118782381Y-52969866D01*
X118782381Y-52969866D02*
X118734762Y-52874628D01*
X118734762Y-52874628D02*
X118734762Y-52827009D01*
X118734762Y-52827009D02*
X118782381Y-52731771D01*
X118782381Y-52731771D02*
X118877619Y-52684152D01*
X118877619Y-52684152D02*
X119020476Y-52684152D01*
X119020476Y-52684152D02*
X119115714Y-52731771D01*
X119591905Y-53350819D02*
X119591905Y-52350819D01*
X120020476Y-53350819D02*
X120020476Y-52827009D01*
X120020476Y-52827009D02*
X119972857Y-52731771D01*
X119972857Y-52731771D02*
X119877619Y-52684152D01*
X119877619Y-52684152D02*
X119734762Y-52684152D01*
X119734762Y-52684152D02*
X119639524Y-52731771D01*
X119639524Y-52731771D02*
X119591905Y-52779390D01*
X120639524Y-53350819D02*
X120544286Y-53303200D01*
X120544286Y-53303200D02*
X120496667Y-53255580D01*
X120496667Y-53255580D02*
X120449048Y-53160342D01*
X120449048Y-53160342D02*
X120449048Y-52874628D01*
X120449048Y-52874628D02*
X120496667Y-52779390D01*
X120496667Y-52779390D02*
X120544286Y-52731771D01*
X120544286Y-52731771D02*
X120639524Y-52684152D01*
X120639524Y-52684152D02*
X120782381Y-52684152D01*
X120782381Y-52684152D02*
X120877619Y-52731771D01*
X120877619Y-52731771D02*
X120925238Y-52779390D01*
X120925238Y-52779390D02*
X120972857Y-52874628D01*
X120972857Y-52874628D02*
X120972857Y-53160342D01*
X120972857Y-53160342D02*
X120925238Y-53255580D01*
X120925238Y-53255580D02*
X120877619Y-53303200D01*
X120877619Y-53303200D02*
X120782381Y-53350819D01*
X120782381Y-53350819D02*
X120639524Y-53350819D01*
X121306191Y-52684152D02*
X121496667Y-53350819D01*
X121496667Y-53350819D02*
X121687143Y-52874628D01*
X121687143Y-52874628D02*
X121877619Y-53350819D01*
X121877619Y-53350819D02*
X122068095Y-52684152D01*
X122449048Y-52684152D02*
X122449048Y-53350819D01*
X122449048Y-52779390D02*
X122496667Y-52731771D01*
X122496667Y-52731771D02*
X122591905Y-52684152D01*
X122591905Y-52684152D02*
X122734762Y-52684152D01*
X122734762Y-52684152D02*
X122830000Y-52731771D01*
X122830000Y-52731771D02*
X122877619Y-52827009D01*
X122877619Y-52827009D02*
X122877619Y-53350819D01*
X124258572Y-53350819D02*
X124163334Y-53303200D01*
X124163334Y-53303200D02*
X124115715Y-53255580D01*
X124115715Y-53255580D02*
X124068096Y-53160342D01*
X124068096Y-53160342D02*
X124068096Y-52874628D01*
X124068096Y-52874628D02*
X124115715Y-52779390D01*
X124115715Y-52779390D02*
X124163334Y-52731771D01*
X124163334Y-52731771D02*
X124258572Y-52684152D01*
X124258572Y-52684152D02*
X124401429Y-52684152D01*
X124401429Y-52684152D02*
X124496667Y-52731771D01*
X124496667Y-52731771D02*
X124544286Y-52779390D01*
X124544286Y-52779390D02*
X124591905Y-52874628D01*
X124591905Y-52874628D02*
X124591905Y-53160342D01*
X124591905Y-53160342D02*
X124544286Y-53255580D01*
X124544286Y-53255580D02*
X124496667Y-53303200D01*
X124496667Y-53303200D02*
X124401429Y-53350819D01*
X124401429Y-53350819D02*
X124258572Y-53350819D01*
X125020477Y-52684152D02*
X125020477Y-53350819D01*
X125020477Y-52779390D02*
X125068096Y-52731771D01*
X125068096Y-52731771D02*
X125163334Y-52684152D01*
X125163334Y-52684152D02*
X125306191Y-52684152D01*
X125306191Y-52684152D02*
X125401429Y-52731771D01*
X125401429Y-52731771D02*
X125449048Y-52827009D01*
X125449048Y-52827009D02*
X125449048Y-53350819D01*
X126687144Y-53350819D02*
X126687144Y-52350819D01*
X126687144Y-52350819D02*
X126925239Y-52350819D01*
X126925239Y-52350819D02*
X127068096Y-52398438D01*
X127068096Y-52398438D02*
X127163334Y-52493676D01*
X127163334Y-52493676D02*
X127210953Y-52588914D01*
X127210953Y-52588914D02*
X127258572Y-52779390D01*
X127258572Y-52779390D02*
X127258572Y-52922247D01*
X127258572Y-52922247D02*
X127210953Y-53112723D01*
X127210953Y-53112723D02*
X127163334Y-53207961D01*
X127163334Y-53207961D02*
X127068096Y-53303200D01*
X127068096Y-53303200D02*
X126925239Y-53350819D01*
X126925239Y-53350819D02*
X126687144Y-53350819D01*
X127591906Y-52684152D02*
X127782382Y-53350819D01*
X127782382Y-53350819D02*
X127972858Y-52874628D01*
X127972858Y-52874628D02*
X128163334Y-53350819D01*
X128163334Y-53350819D02*
X128353810Y-52684152D01*
X129163334Y-52684152D02*
X129163334Y-53493676D01*
X129163334Y-53493676D02*
X129115715Y-53588914D01*
X129115715Y-53588914D02*
X129068096Y-53636533D01*
X129068096Y-53636533D02*
X128972858Y-53684152D01*
X128972858Y-53684152D02*
X128830001Y-53684152D01*
X128830001Y-53684152D02*
X128734763Y-53636533D01*
X129163334Y-53303200D02*
X129068096Y-53350819D01*
X129068096Y-53350819D02*
X128877620Y-53350819D01*
X128877620Y-53350819D02*
X128782382Y-53303200D01*
X128782382Y-53303200D02*
X128734763Y-53255580D01*
X128734763Y-53255580D02*
X128687144Y-53160342D01*
X128687144Y-53160342D02*
X128687144Y-52874628D01*
X128687144Y-52874628D02*
X128734763Y-52779390D01*
X128734763Y-52779390D02*
X128782382Y-52731771D01*
X128782382Y-52731771D02*
X128877620Y-52684152D01*
X128877620Y-52684152D02*
X129068096Y-52684152D01*
X129068096Y-52684152D02*
X129163334Y-52731771D01*
X129591906Y-53303200D02*
X129687144Y-53350819D01*
X129687144Y-53350819D02*
X129877620Y-53350819D01*
X129877620Y-53350819D02*
X129972858Y-53303200D01*
X129972858Y-53303200D02*
X130020477Y-53207961D01*
X130020477Y-53207961D02*
X130020477Y-53160342D01*
X130020477Y-53160342D02*
X129972858Y-53065104D01*
X129972858Y-53065104D02*
X129877620Y-53017485D01*
X129877620Y-53017485D02*
X129734763Y-53017485D01*
X129734763Y-53017485D02*
X129639525Y-52969866D01*
X129639525Y-52969866D02*
X129591906Y-52874628D01*
X129591906Y-52874628D02*
X129591906Y-52827009D01*
X129591906Y-52827009D02*
X129639525Y-52731771D01*
X129639525Y-52731771D02*
X129734763Y-52684152D01*
X129734763Y-52684152D02*
X129877620Y-52684152D01*
X129877620Y-52684152D02*
X129972858Y-52731771D01*
X131353811Y-53350819D02*
X131258573Y-53303200D01*
X131258573Y-53303200D02*
X131210954Y-53207961D01*
X131210954Y-53207961D02*
X131210954Y-52350819D01*
X132163335Y-53350819D02*
X132163335Y-52827009D01*
X132163335Y-52827009D02*
X132115716Y-52731771D01*
X132115716Y-52731771D02*
X132020478Y-52684152D01*
X132020478Y-52684152D02*
X131830002Y-52684152D01*
X131830002Y-52684152D02*
X131734764Y-52731771D01*
X132163335Y-53303200D02*
X132068097Y-53350819D01*
X132068097Y-53350819D02*
X131830002Y-53350819D01*
X131830002Y-53350819D02*
X131734764Y-53303200D01*
X131734764Y-53303200D02*
X131687145Y-53207961D01*
X131687145Y-53207961D02*
X131687145Y-53112723D01*
X131687145Y-53112723D02*
X131734764Y-53017485D01*
X131734764Y-53017485D02*
X131830002Y-52969866D01*
X131830002Y-52969866D02*
X132068097Y-52969866D01*
X132068097Y-52969866D02*
X132163335Y-52922247D01*
X132544288Y-52684152D02*
X132782383Y-53350819D01*
X133020478Y-52684152D02*
X132782383Y-53350819D01*
X132782383Y-53350819D02*
X132687145Y-53588914D01*
X132687145Y-53588914D02*
X132639526Y-53636533D01*
X132639526Y-53636533D02*
X132544288Y-53684152D01*
X133782383Y-53303200D02*
X133687145Y-53350819D01*
X133687145Y-53350819D02*
X133496669Y-53350819D01*
X133496669Y-53350819D02*
X133401431Y-53303200D01*
X133401431Y-53303200D02*
X133353812Y-53207961D01*
X133353812Y-53207961D02*
X133353812Y-52827009D01*
X133353812Y-52827009D02*
X133401431Y-52731771D01*
X133401431Y-52731771D02*
X133496669Y-52684152D01*
X133496669Y-52684152D02*
X133687145Y-52684152D01*
X133687145Y-52684152D02*
X133782383Y-52731771D01*
X133782383Y-52731771D02*
X133830002Y-52827009D01*
X133830002Y-52827009D02*
X133830002Y-52922247D01*
X133830002Y-52922247D02*
X133353812Y-53017485D01*
X134258574Y-53350819D02*
X134258574Y-52684152D01*
X134258574Y-52874628D02*
X134306193Y-52779390D01*
X134306193Y-52779390D02*
X134353812Y-52731771D01*
X134353812Y-52731771D02*
X134449050Y-52684152D01*
X134449050Y-52684152D02*
X134544288Y-52684152D01*
%TD*%
M02*
