%TF.GenerationSoftware,KiCad,Pcbnew,7.0.5*%
%TF.CreationDate,2023-07-28T19:51:42-07:00*%
%TF.ProjectId,roshambo-pcb-smt,726f7368-616d-4626-9f2d-7063622d736d,rev?*%
%TF.SameCoordinates,Original*%
%TF.FileFunction,Legend,Bot*%
%TF.FilePolarity,Positive*%
%FSLAX46Y46*%
G04 Gerber Fmt 4.6, Leading zero omitted, Abs format (unit mm)*
G04 Created by KiCad (PCBNEW 7.0.5) date 2023-07-28 19:51:42*
%MOMM*%
%LPD*%
G01*
G04 APERTURE LIST*
%ADD10R,1.700000X1.700000*%
%ADD11O,1.700000X1.700000*%
%ADD12O,1.800000X1.800000*%
%ADD13O,1.500000X1.500000*%
G04 APERTURE END LIST*
%LPC*%
D10*
%TO.C,J1*%
X99207254Y-83516991D03*
D11*
X99207254Y-86056991D03*
X99207254Y-88596991D03*
X99207254Y-91136991D03*
X99207254Y-93676991D03*
X99207254Y-96216991D03*
%TD*%
D10*
%TO.C,J2*%
X99000000Y-111456991D03*
D11*
X99000000Y-113996991D03*
X99000000Y-116536991D03*
%TD*%
D10*
%TO.C,J3*%
X132227254Y-111525869D03*
D11*
X132227254Y-114065869D03*
X132227254Y-116605869D03*
%TD*%
D12*
%TO.C,U1*%
X118429336Y-131668709D03*
D13*
X118129336Y-128638709D03*
X113279336Y-128638709D03*
D12*
X112979336Y-131668709D03*
D11*
X124594336Y-131798709D03*
X124594336Y-129258709D03*
D10*
X124594336Y-126718709D03*
D11*
X124594336Y-124178709D03*
X124594336Y-121638709D03*
X124594336Y-119098709D03*
X124594336Y-116558709D03*
D10*
X124594336Y-114018709D03*
D11*
X124594336Y-111478709D03*
X124594336Y-108938709D03*
X124594336Y-106398709D03*
X124594336Y-103858709D03*
D10*
X124594336Y-101318709D03*
D11*
X124594336Y-98778709D03*
X124594336Y-96238709D03*
X124594336Y-93698709D03*
X124594336Y-91158709D03*
D10*
X124594336Y-88618709D03*
D11*
X124594336Y-86078709D03*
X124594336Y-83538709D03*
X106814336Y-83538709D03*
X106814336Y-86078709D03*
D10*
X106814336Y-88618709D03*
D11*
X106814336Y-91158709D03*
X106814336Y-93698709D03*
X106814336Y-96238709D03*
X106814336Y-98778709D03*
D10*
X106814336Y-101318709D03*
D11*
X106814336Y-103858709D03*
X106814336Y-106398709D03*
X106814336Y-108938709D03*
X106814336Y-111478709D03*
D10*
X106814336Y-114018709D03*
D11*
X106814336Y-116558709D03*
X106814336Y-119098709D03*
X106814336Y-121638709D03*
X106814336Y-124178709D03*
D10*
X106814336Y-126718709D03*
D11*
X106814336Y-129258709D03*
X106814336Y-131798709D03*
X118244336Y-83768709D03*
D10*
X115704336Y-83768709D03*
D11*
X113164336Y-83768709D03*
%TD*%
%LPD*%
M02*
