M48
; DRILL file {KiCad 7.0.5} date Sat Jul 15 11:17:08 2023
; FORMAT={-:-/ absolute / inch / decimal}
; #@! TF.CreationDate,2023-07-15T11:17:08-07:00
; #@! TF.GenerationSoftware,Kicad,Pcbnew,7.0.5
; #@! TF.FileFunction,Plated,1,2,PTH
FMAT,2
INCH
; #@! TA.AperFunction,Plated,PTH,ViaDrill
T1C0.0157
; #@! TA.AperFunction,Plated,PTH,ComponentDrill
T2C0.0394
; #@! TA.AperFunction,Plated,PTH,ComponentDrill
T3C0.0402
%
G90
G05
T1
X3.8566Y-4.1582
X3.8688Y-2.1515
X3.8699Y-2.6717
X3.8786Y-4.8352
X3.8836Y-3.9432
X3.8984Y-2.1774
X3.8986Y-2.7049
X3.9269Y-2.261
X3.9281Y-2.7309
X3.9356Y-5.1472
X3.9526Y-3.0222
X3.9556Y-2.0042
X3.9561Y-2.7613
X3.9566Y-2.2868
X3.9796Y-4.4632
X3.9852Y-2.3142
X3.9938Y-2.7858
X3.9956Y-2.8722
X3.9996Y-3.4852
X4.0132Y-2.3431
X4.0246Y-2.8102
X4.0346Y-4.6122
X4.0576Y-3.8312
X4.0746Y-2.4602
X4.0786Y-2.3812
X4.0786Y-2.5342
X4.0826Y-2.0522
X4.0866Y-2.2052
X4.2056Y-3.0132
X4.2586Y-2.0702
X4.2614Y-3.0142
X4.2666Y-2.9752
X4.2946Y-4.1082
X4.3096Y-3.6222
X4.3166Y-3.0092
X4.3286Y-3.7972
X4.3456Y-2.0532
X4.3476Y-2.5342
X4.3486Y-2.3842
X4.3516Y-2.2032
X4.3766Y-3.0102
X4.4176Y-4.5322
X4.4176Y-4.8112
X4.4296Y-2.7192
X4.4296Y-4.2132
X4.4986Y-3.4952
X4.5316Y-3.8702
X4.5426Y-3.0412
X4.5426Y-3.4602
X4.5426Y-3.6232
X4.5556Y-2.9442
X4.5786Y-3.4342
X4.5786Y-3.5882
X4.5816Y-2.5352
X4.5846Y-2.0542
X4.5856Y-2.3762
X4.5866Y-2.2102
X4.6466Y-4.9762
X4.6786Y-2.7082
X4.6886Y-3.9242
X4.6936Y-4.2412
X4.6966Y-3.0092
X4.7396Y-3.0062
X4.7586Y-4.6322
X4.7776Y-3.3582
X4.7816Y-3.0012
X4.8126Y-2.1212
X4.8296Y-2.0532
X4.8366Y-2.3732
X4.8386Y-2.5402
X4.8406Y-2.2112
X4.8876Y-3.1502
X5.0526Y-2.6792
X5.0526Y-2.8752
X5.0566Y-2.569
X5.0806Y-2.7972
X5.0896Y-2.5917
X5.0916Y-2.5362
X5.092Y-2.6804
X5.0966Y-2.2822
X5.1198Y-2.8012
X5.1238Y-2.6113
X5.1256Y-2.4495
X5.1312Y-2.6779
X5.1436Y-3.9442
X5.1562Y-2.479
X5.1656Y-3.1502
X5.1826Y-3.5552
X5.1876Y-5.2212
X5.2056Y-2.8032
X5.206Y-2.5782
X5.2236Y-4.8162
X5.2276Y-2.0122
T2
X3.8984Y-3.2311
X3.8984Y-3.3311
X3.8984Y-3.4311
X3.8984Y-3.5311
X3.8984Y-3.6311
X3.8984Y-3.7311
X3.8984Y-4.3908
X3.8984Y-4.4908
X3.8984Y-4.5908
X5.1984Y-4.3908
X5.1984Y-4.4908
X5.1984Y-4.5908
T3
X4.1976Y-3.2532
X4.1976Y-3.3532
X4.1976Y-3.4532
X4.1976Y-3.5532
X4.1976Y-3.6532
X4.1976Y-3.7532
X4.1976Y-3.8532
X4.1976Y-3.9532
X4.1976Y-4.0532
X4.1976Y-4.1532
X4.1976Y-4.2532
X4.1976Y-4.3532
X4.1976Y-4.4532
X4.1976Y-4.5532
X4.1976Y-4.6532
X4.1976Y-4.7532
X4.1976Y-4.8532
X4.1976Y-4.9532
X4.1976Y-5.0532
X4.1976Y-5.1532
X4.4476Y-5.1442
X4.5476Y-5.1442
X4.6476Y-5.1442
X4.8976Y-3.2532
X4.8976Y-3.3532
X4.8976Y-3.4532
X4.8976Y-3.5532
X4.8976Y-3.6532
X4.8976Y-3.7532
X4.8976Y-3.8532
X4.8976Y-3.9532
X4.8976Y-4.0532
X4.8976Y-4.1532
X4.8976Y-4.2532
X4.8976Y-4.3532
X4.8976Y-4.4532
X4.8976Y-4.5532
X4.8976Y-4.6532
X4.8976Y-4.7532
X4.8976Y-4.8532
X4.8976Y-4.9532
X4.8976Y-5.0532
X4.8976Y-5.1532
T0
M30
