M48
; DRILL file {KiCad 7.0.5} date Mon Jul 10 21:20:45 2023
; FORMAT={-:-/ absolute / inch / decimal}
; #@! TF.CreationDate,2023-07-10T21:20:45-07:00
; #@! TF.GenerationSoftware,Kicad,Pcbnew,7.0.5
; #@! TF.FileFunction,Plated,1,2,PTH
FMAT,2
INCH
; #@! TA.AperFunction,Plated,PTH,ViaDrill
T1C0.0157
; #@! TA.AperFunction,Plated,PTH,ComponentDrill
T2C0.0394
; #@! TA.AperFunction,Plated,PTH,ComponentDrill
T3C0.0402
%
G90
G05
T1
X3.8339Y-3.047
X3.8481Y-3.4539
X3.8986Y-4.2248
X3.9127Y-2.2285
X3.9576Y-1.5081
X3.9759Y-1.8114
X4.0163Y-2.072
X4.0298Y-3.1018
X4.0503Y-3.3718
X4.0656Y-2.3224
X4.152Y-3.9883
X4.2385Y-1.5081
X4.2385Y-1.7777
X4.2696Y-2.0574
X4.4262Y-1.9923
X4.4411Y-4.0622
X4.4565Y-3.9161
X4.4716Y-1.8465
X4.4793Y-2.927
X4.4821Y-1.5387
X4.4976Y-2.8532
X4.5457Y-2.0985
X4.5476Y-2.8532
X4.5558Y-3.6498
X4.5626Y-1.4688
X4.5976Y-2.8532
X4.6154Y-2.512
X4.7024Y-1.5699
X4.7233Y-3.0748
X4.7425Y-2.0985
X4.7598Y-1.4613
X4.7609Y-1.7819
X4.8723Y-2.9312
X4.9017Y-3.9105
X4.9199Y-4.072
X4.9813Y-1.8339
X5.0181Y-2.0985
X5.0575Y-1.5088
X5.215Y-2.0591
X5.2198Y-1.5188
X5.2699Y-4.2185
X5.2762Y-1.7847
X5.3463Y-2.3098
X5.3741Y-3.4034
X5.3963Y-2.8283
T2
X3.9638Y-2.4115
X3.9638Y-2.5115
X3.9638Y-2.6115
X3.9638Y-2.7115
X3.9638Y-2.8115
X3.9638Y-2.9115
X3.9638Y-3.8615
X3.9638Y-3.9615
X3.9638Y-4.0615
X5.3638Y-3.8615
X5.3638Y-3.9615
X5.3638Y-4.0615
T3
X4.3138Y-2.2115
X4.3138Y-2.3115
X4.3138Y-2.4115
X4.3138Y-2.5115
X4.3138Y-2.6115
X4.3138Y-2.7115
X4.3138Y-2.8115
X4.3138Y-2.9115
X4.3138Y-3.0115
X4.3138Y-3.1115
X4.3138Y-3.2115
X4.3138Y-3.3115
X4.3138Y-3.4115
X4.3138Y-3.5115
X4.3138Y-3.6115
X4.3138Y-3.7115
X4.3138Y-3.8115
X4.3138Y-3.9115
X4.3138Y-4.0115
X4.3138Y-4.1115
X4.5638Y-4.1024
X4.6638Y-4.1024
X4.7638Y-4.1024
X5.0138Y-2.2115
X5.0138Y-2.3115
X5.0138Y-2.4115
X5.0138Y-2.5115
X5.0138Y-2.6115
X5.0138Y-2.7115
X5.0138Y-2.8115
X5.0138Y-2.9115
X5.0138Y-3.0115
X5.0138Y-3.1115
X5.0138Y-3.2115
X5.0138Y-3.3115
X5.0138Y-3.4115
X5.0138Y-3.5115
X5.0138Y-3.6115
X5.0138Y-3.7115
X5.0138Y-3.8115
X5.0138Y-3.9115
X5.0138Y-4.0115
X5.0138Y-4.1115
T0
M30
